<svg width="28" height="28" viewBox="0 0 28 28" fill="none" xmlns="http://www.w3.org/2000/svg">
<path d="M4.66675 25.667C4.66675 20.5123 8.84542 16.3337 14.0001 16.3337C19.1548 16.3337 23.3334 20.5123 23.3334 25.667H21.0001C21.0001 21.801 17.8661 18.667 14.0001 18.667C10.1341 18.667 7.00008 21.801 7.00008 25.667H4.66675ZM14.0001 15.167C10.1326 15.167 7.00008 12.0345 7.00008 8.16699C7.00008 4.29949 10.1326 1.16699 14.0001 1.16699C17.8676 1.16699 21.0001 4.29949 21.0001 8.16699C21.0001 12.0345 17.8676 15.167 14.0001 15.167ZM14.0001 12.8337C16.5784 12.8337 18.6667 10.7453 18.6667 8.16699C18.6667 5.58866 16.5784 3.50033 14.0001 3.50033C11.4217 3.50033 9.33341 5.58866 9.33341 8.16699C9.33341 10.7453 11.4217 12.8337 14.0001 12.8337Z" fill="#446FC3"/>
</svg>
