<svg width="28" height="28" viewBox="0 0 28 28" fill="none" xmlns="http://www.w3.org/2000/svg">
<path d="M14 24.3824L19.7746 18.6077C22.964 15.4185 22.964 10.2476 19.7746 7.0583C16.5854 3.86902 11.4146 3.86902 8.22529 7.0583C5.03601 10.2476 5.03601 15.4185 8.22529 18.6077L14 24.3824ZM14 27.6822L6.57538 20.2577C2.47487 16.1571 2.47487 9.50889 6.57538 5.40839C10.6759 1.30788 17.3241 1.30788 21.4247 5.40839C25.5252 9.50889 25.5252 16.1571 21.4247 20.2577L14 27.6822ZM14 15.1663C15.2887 15.1663 16.3333 14.1217 16.3333 12.833C16.3333 11.5443 15.2887 10.4997 14 10.4997C12.7113 10.4997 11.6667 11.5443 11.6667 12.833C11.6667 14.1217 12.7113 15.1663 14 15.1663ZM14 17.4997C11.4227 17.4997 9.33333 15.4103 9.33333 12.833C9.33333 10.2557 11.4227 8.16634 14 8.16634C16.5773 8.16634 18.6667 10.2557 18.6667 12.833C18.6667 15.4103 16.5773 17.4997 14 17.4997Z" fill="#446FC3"/>
</svg>
