<svg width="20" height="20" viewBox="0 0 20 20" fill="none" xmlns="http://www.w3.org/2000/svg">
<path d="M10 1.66699C14.6024 1.66699 18.3334 5.39795 18.3334 10.0003C18.3334 14.6027 14.6024 18.3337 10 18.3337C5.39765 18.3337 1.66669 14.6027 1.66669 10.0003C1.66669 5.39795 5.39765 1.66699 10 1.66699ZM7.35217 12.7859C7.02339 12.3889 6.61444 12.2467 6.12003 12.362L5.99465 12.3962L5.50405 13.2429C5.31588 13.5722 5.42677 13.9922 5.75607 14.1804C6.05793 14.3529 6.43602 14.2742 6.64188 14.0062L6.69357 13.9284L7.35217 12.7859ZM11.0081 7.21807C10.6015 7.55409 10.1915 8.54874 10.7662 9.53999L13.2998 13.9284C13.4913 14.2577 13.9079 14.3686 14.2373 14.1804C14.5391 14.0048 14.6574 13.6401 14.5301 13.3269L14.4893 13.2429L13.8206 12.0837H14.8119C15.1915 12.0837 15.4974 11.7779 15.4974 11.3982C15.4974 11.0477 15.2368 10.7602 14.898 10.718L14.8119 10.7127H13.0276L11.2 7.54817L11.0081 7.21807ZM11.2399 4.68111C10.9381 4.50862 10.56 4.58742 10.3541 4.85539L10.3024 4.93312L9.99669 5.46068L9.6976 4.93312C9.5061 4.60382 9.08944 4.49293 8.7601 4.68111C8.45827 4.85668 8.33994 5.22143 8.46719 5.53464L8.5081 5.61861L9.20702 6.83164L6.9691 10.7093H5.2218C4.84209 10.7093 4.53631 11.0151 4.53631 11.3948C4.53631 11.7453 4.79685 12.0328 5.13559 12.075L5.2218 12.0803H11.455C11.7391 11.5472 11.4045 10.7897 10.7798 10.7152L10.6788 10.7093H8.55177L11.4919 5.61861C11.6801 5.2893 11.5693 4.86928 11.2399 4.68111Z" fill="#3A3B4F"/>
</svg>
