<svg width="26" height="20" viewBox="0 0 26 20" fill="none" xmlns="http://www.w3.org/2000/svg">
<path d="M21.0814 4.72922H10.1191V11.0863H8.95148V8.92542C8.95012 7.70113 8.46318 6.52737 7.59749 5.66166C6.73179 4.79594 5.55805 4.30897 4.33376 4.30759H1.68651V0.93457H0V19.0646H1.68651V16.5483L23.6112 16.7237V19.0646H25.2977V8.9455C25.2964 7.82766 24.8518 6.75597 24.0614 5.96554C23.2709 5.17511 22.1992 4.73049 21.0814 4.72922ZM1.68651 5.9941H4.33376C5.11089 5.99498 5.85594 6.30409 6.40546 6.85361C6.95498 7.40312 7.26409 8.14818 7.26496 8.92531V11.0862H1.68651V5.9941ZM23.6112 15.0372L1.68651 14.8618V12.7728H23.6112V15.0372ZM23.6112 11.0863H11.8056V6.41573H21.0814C21.7521 6.4165 22.3951 6.68327 22.8694 7.15753C23.3436 7.63179 23.6104 8.2748 23.6112 8.9455V11.0863Z" fill="#6568AC"/>
</svg>
