<svg width="20" height="20" viewBox="0 0 20 20" fill="none" xmlns="http://www.w3.org/2000/svg">
<path d="M16.6668 18.333H15.0002V16.6663C15.0002 15.2856 13.8809 14.1663 12.5002 14.1663H7.50016C6.11945 14.1663 5.00016 15.2856 5.00016 16.6663V18.333H3.3335V16.6663C3.3335 14.3652 5.19898 12.4997 7.50016 12.4997H12.5002C14.8013 12.4997 16.6668 14.3652 16.6668 16.6663V18.333ZM10.0002 10.833C7.23874 10.833 5.00016 8.59442 5.00016 5.83301C5.00016 3.07158 7.23874 0.833008 10.0002 0.833008C12.7616 0.833008 15.0002 3.07158 15.0002 5.83301C15.0002 8.59442 12.7616 10.833 10.0002 10.833ZM10.0002 9.16634C11.8411 9.16634 13.3335 7.67396 13.3335 5.83301C13.3335 3.99206 11.8411 2.49967 10.0002 2.49967C8.15921 2.49967 6.66683 3.99206 6.66683 5.83301C6.66683 7.67396 8.15921 9.16634 10.0002 9.16634Z" fill="#6568AC"/>
</svg>
