<svg width="12" height="13" viewBox="0 0 12 13" fill="none" xmlns="http://www.w3.org/2000/svg">
<g clip-path="url(#clip0_917_6515)">
<path d="M7.73438 0.875V1.90625H8.73961L7.87008 2.77555C7.52302 2.37044 7.09238 2.04528 6.60773 1.8224C6.12309 1.59951 5.59594 1.4842 5.0625 1.48438C3.02062 1.48438 1.35938 3.14562 1.35938 5.1875C1.35938 7.05453 2.74828 8.60281 4.54688 8.85453V9.73438H3.375V10.7656H4.54688V12.125H5.57812V10.7656H6.75V9.73438H5.57812V8.85453C7.37672 8.60281 8.76562 7.05453 8.76562 5.1875C8.76587 4.66266 8.654 4.14381 8.4375 3.6657L9.46875 2.63445V3.64062H10.5V0.875H7.73438ZM5.0625 7.85938C4.53405 7.85938 4.01747 7.70267 3.57809 7.40908C3.1387 7.11549 2.79624 6.6982 2.59401 6.20998C2.39178 5.72176 2.33887 5.18454 2.44196 4.66624C2.54506 4.14795 2.79953 3.67187 3.1732 3.2982C3.54687 2.92453 4.02295 2.67006 4.54124 2.56696C5.05954 2.46387 5.59676 2.51678 6.08498 2.71901C6.5732 2.92124 6.99049 3.2637 7.28408 3.70309C7.57767 4.14247 7.73438 4.65905 7.73438 5.1875C7.73357 5.89588 7.45181 6.57501 6.95091 7.07591C6.45001 7.57681 5.77088 7.85857 5.0625 7.85938Z" fill="white"/>
</g>
<defs>
<clipPath id="clip0_917_6515">
<rect width="12" height="12" fill="white" transform="translate(0 0.5)"/>
</clipPath>
</defs>
</svg>
