<svg width="12" height="13" viewBox="0 0 12 13" fill="none" xmlns="http://www.w3.org/2000/svg">
<path d="M6.375 2V2.75H9.21112L6.97237 4.98875C6.37794 4.51055 5.63791 4.24989 4.875 4.25C3.015 4.25 1.5 5.765 1.5 7.625C1.5 9.485 3.015 11 4.875 11C6.735 11 8.25 9.485 8.25 7.625C8.24962 6.86206 7.98902 6.12207 7.51125 5.52725L9.75 3.2885V6.125H10.5V2H6.375ZM4.875 5C6.32925 5 7.5 6.17075 7.5 7.625C7.5 9.07925 6.32925 10.25 4.875 10.25C3.42075 10.25 2.25 9.07925 2.25 7.625C2.25 6.17075 3.42075 5 4.875 5Z" fill="white"/>
</svg>
