<svg width="20" height="20" viewBox="0 0 20 20" fill="none" xmlns="http://www.w3.org/2000/svg">
<path d="M3.00808 1.51172L11.4941 10.0001L3.00899 18.4888C2.84811 18.4208 2.70719 18.3018 2.61294 18.139C2.53948 18.0121 2.50079 17.8681 2.50079 17.7214V2.27886C2.50079 1.93433 2.70988 1.63863 3.00808 1.51172ZM12.0833 10.5893L14.0016 12.5076L4.88746 17.7851L12.0833 10.5893ZM14.7491 7.92422L17.0884 9.279C17.4867 9.50958 17.6227 10.0194 17.3921 10.4177C17.3191 10.5437 17.2145 10.6484 17.0884 10.7213L14.7483 12.0759L12.6725 10.0001L14.7491 7.92422ZM4.88746 2.21505L14.0025 7.49172L12.0833 9.41092L4.88746 2.21505Z" fill="#3A3B4F"/>
</svg>
