<svg width="32" height="32" viewBox="0 0 32 32" fill="none" xmlns="http://www.w3.org/2000/svg">
<path d="M25.8386 20.1409C27.9012 15.256 26.0499 9.48567 21.3391 6.76592C17.935 4.80053 13.8978 4.92479 10.7129 6.74072L9.38971 4.42497C13.3708 2.15511 18.4172 1.99979 22.6724 4.45652C28.66 7.91343 30.952 15.3131 28.1624 21.4825L29.9515 22.5155L24.398 25.4676L24.178 19.1821L25.8386 20.1409ZM6.17298 11.8662C4.11034 16.7511 5.96171 22.5213 10.6724 25.2411C14.0766 27.2065 18.1136 27.0823 21.2984 25.2665L22.6216 27.5821C18.6406 29.852 13.5943 30.0072 9.33911 27.5505C3.35159 24.0936 1.05959 16.694 3.84913 10.5245L2.06006 9.49156L7.61349 6.53943L7.83357 12.8249L6.17298 11.8662ZM11.3391 18.6701H18.6724C19.0407 18.6701 19.3391 18.3717 19.3391 18.0035C19.3391 17.6353 19.0407 17.3368 18.6724 17.3368H13.3391C11.4982 17.3368 10.0058 15.8445 10.0058 14.0035C10.0058 12.1626 11.4982 10.6702 13.3391 10.6702H14.6724V9.33687H17.3391V10.6702H20.6724V13.3368H13.3391C12.9709 13.3368 12.6724 13.6353 12.6724 14.0035C12.6724 14.3717 12.9709 14.6701 13.3391 14.6701H18.6724C20.5134 14.6701 22.0058 16.1625 22.0058 18.0035C22.0058 19.8445 20.5134 21.3368 18.6724 21.3368H17.3391V22.6701H14.6724V21.3368H11.3391V18.6701Z" fill="#F44157"/>
</svg>
