<svg width="16" height="16" viewBox="0 0 16 16" fill="none" xmlns="http://www.w3.org/2000/svg">
<path d="M11.3335 1.33301V2.66634L8.6668 2.66567V3.99967H10.6668V5.33301C12.1395 5.33301 13.3335 6.52691 13.3335 7.99967V13.333C13.3335 14.0694 12.7365 14.6663 12.0001 14.6663H4.00013C3.26375 14.6663 2.6668 14.0694 2.6668 13.333V7.99967C2.6668 6.52691 3.8607 5.33301 5.33346 5.33301V3.99967H7.33346V2.66567L5.00013 2.66634C4.58013 2.66634 4.0868 2.99301 3.53346 3.73301L2.4668 2.93301C3.2468 1.89301 4.0868 1.33301 5.00013 1.33301H11.3335ZM10.6668 6.66634H5.33346C4.59708 6.66634 4.00013 7.26327 4.00013 7.99967V13.333H12.0001V7.99967C12.0001 7.26327 11.4032 6.66634 10.6668 6.66634ZM8.6668 7.99967V9.33301H10.0001V10.6663H8.66613L8.6668 11.9997H7.33346L7.3328 10.6663H6.00013V9.33301H7.33346V7.99967H8.6668Z" fill="#3D5FEA"/>
</svg>
