<svg width="40" height="118" viewBox="0 0 40 118" fill="none" xmlns="http://www.w3.org/2000/svg">
<g clip-path="url(#clip0_614_7584)">
<path d="M0 12C0 5.37258 5.37258 0 12 0H331C337.627 0 343 5.37258 343 12V106C343 112.627 337.627 118 331 118H12C5.37258 118 0 112.627 0 106V91.3746C0 89.52 0.665298 87.7269 1.87502 86.3211L2.78822 85.2599C4.64918 83.0973 4.73824 79.9259 3.00156 77.6623L2.77806 77.371C1.16211 75.2647 1.255 72.3113 3.0001 70.3108V70.3108C4.73724 68.3193 4.83811 65.3821 3.24166 63.2761L2.88561 62.8065C1.17931 60.5556 1.17931 57.4443 2.88561 55.1935L3.27523 54.6796C4.85213 52.5995 4.75249 49.6982 3.03662 47.7311V47.7311C1.28017 45.7176 1.22216 42.7338 2.89901 40.6535L3.04101 40.4773C4.75546 38.3504 4.74599 35.3134 3.01833 33.1971L1.82596 31.7366C0.645026 30.2901 0 28.48 0 26.6127V12Z" fill="#D9F1FF"/>
</g>
<defs>
<clipPath id="clip0_614_7584">
<rect width="40" height="118" fill="white"/>
</clipPath>
</defs>
</svg>
