<svg width="24" height="26" viewBox="0 0 24 26" fill="none" xmlns="http://www.w3.org/2000/svg">
<path fill-rule="evenodd" clip-rule="evenodd" d="M15.9699 24.2635C18.2616 23.6277 20.6609 23.3069 22.9883 23.013C23.4896 22.9514 23.955 23.2952 23.9909 23.7795C24.0625 24.2643 23.7042 24.7075 23.2387 24.7691C20.9829 25.052 18.6556 25.3548 16.4714 25.9669C16.0059 26.0997 15.5044 25.8264 15.3611 25.3562C15.2179 24.8863 15.5044 24.3967 15.9699 24.2635Z" fill="#3D5FEA"/>
<path fill-rule="evenodd" clip-rule="evenodd" d="M9.0239 15.2478C12.712 11.5263 16.8656 8.28375 20.4822 4.46236C20.8044 4.10546 21.3773 4.08634 21.7354 4.41952C22.0935 4.75304 22.1291 5.31388 21.7711 5.67077C18.1546 9.50314 14.0009 12.7563 10.3128 16.4888C9.95474 16.8372 9.38197 16.8421 9.0239 16.4994C8.70163 16.157 8.66583 15.5962 9.0239 15.2478Z" fill="#3D5FEA"/>
<path fill-rule="evenodd" clip-rule="evenodd" d="M2.11248 0.933223C2.00506 3.06326 1.89785 5.1933 1.79043 7.32369C1.79043 7.81158 1.36053 8.18831 0.859233 8.16459C0.357934 8.14051 7.34329e-05 7.7252 7.34329e-05 7.23694C0.107495 5.10337 0.214706 2.97014 0.322127 0.836917C0.357934 0.349019 0.787689 -0.0252245 1.28899 0.00133015C1.75448 0.0278848 2.14829 0.445679 2.11248 0.933223Z" fill="#3D5FEA"/>
</svg>
