<svg width="20" height="20" viewBox="0 0 20 20" fill="none" xmlns="http://www.w3.org/2000/svg">
<g id="Frame">
<path id="Vector" d="M5.00037 5.00043C5.00006 5.67902 4.58837 6.28967 3.95942 6.54443C3.33047 6.7992 2.60986 6.6472 2.13738 6.16011C1.66491 5.67302 1.53493 4.94811 1.80872 4.32721C2.08252 3.70631 2.70542 3.3134 3.3837 3.33376C4.28459 3.3608 5.00078 4.09913 5.00037 5.00043ZM5.05037 7.90043H1.71703V18.3337H5.05037V7.90043ZM10.3171 7.90043H7.00037V18.3337H10.2837V12.8587C10.2837 9.80874 14.2587 9.5254 14.2587 12.8587V18.3337H17.5504V11.7254C17.5504 6.58376 11.6671 6.77543 10.2837 9.3004L10.3171 7.90043Z" fill="#3E51FF"/>
</g>
</svg>
