<svg width="144" height="26" viewBox="0 0 144 26" fill="none" xmlns="http://www.w3.org/2000/svg">
<g opacity="0.97">
<path opacity="0.97" d="M13.5063 10.5266V20.4205C13.5063 20.526 13.4254 20.6103 13.3243 20.6103H9.36137C9.26028 20.6103 9.17941 20.526 9.17941 20.4205V12.3725C9.17941 10.8536 8.43131 10.0836 6.93511 10.0836C5.91405 10.0836 5.05473 10.5372 4.34707 11.4337C4.33696 11.4548 4.32686 11.4759 4.32686 11.497V20.4205C4.32686 20.526 4.24598 20.6103 4.14489 20.6103H0.181971C0.080876 20.6103 0 20.526 0 20.4205V1.24455C0 1.13907 0.080876 1.05469 0.181971 1.05469H4.14489C4.24598 1.05469 4.32686 1.13907 4.32686 1.24455V7.93187C4.32686 8.01625 4.42795 8.05845 4.4886 7.99516C5.62086 6.72942 7.12719 6.09655 9.01765 6.09655C10.5139 6.09655 11.636 6.49737 12.3841 7.28845C13.1322 8.07954 13.5063 9.15542 13.5063 10.5266Z" fill="white"/>
<path opacity="0.97" d="M28.5382 8.24844C27.1936 6.81393 25.3941 6.09668 23.1397 6.09668C20.9156 6.09668 19.1364 6.81393 17.7918 8.24844C16.4574 9.69345 15.78 11.4444 15.78 13.5118C15.78 15.5897 16.4574 17.3406 17.7918 18.7857C19.1364 20.2307 20.9156 20.9585 23.1397 20.9585C25.3941 20.9585 27.1936 20.2307 28.5382 18.7857C29.8828 17.3406 30.5601 15.5897 30.5601 13.5118C30.5601 11.4444 29.8828 9.69345 28.5382 8.24844ZM25.3234 15.9905C24.7876 16.6445 24.0597 16.9714 23.1397 16.9714C22.24 16.9714 21.5323 16.6445 21.0066 15.9905C20.4809 15.3365 20.2181 14.5138 20.2181 13.5118C20.2181 12.5414 20.4809 11.7186 21.0066 11.0647C21.5323 10.4107 22.24 10.0837 23.1397 10.0837C24.0597 10.0837 24.7876 10.4107 25.3234 11.0647C25.8592 11.7186 26.122 12.5414 26.122 13.5118C26.122 14.5138 25.8592 15.3365 25.3234 15.9905Z" fill="white"/>
<path opacity="0.97" d="M50.1754 6.09668C49.1846 6.09668 48.2646 6.34983 47.4053 6.84558C46.6167 7.30968 46.0102 7.84762 45.5754 8.46994C45.535 8.53323 45.444 8.52268 45.4137 8.44884C44.8273 6.87722 43.5637 6.09668 41.6226 6.09668C40.6521 6.09668 39.7524 6.31818 38.9234 6.77174C38.2157 7.16201 37.68 7.56284 37.316 7.9742C37.2553 8.03749 37.1542 7.99529 37.1542 7.91091V6.63462C37.1542 6.52914 37.0734 6.44476 36.9723 6.44476H33.0094C32.9083 6.44476 32.8274 6.52914 32.8274 6.63462V20.41C32.8274 20.5155 32.9083 20.5999 33.0094 20.5999H36.9723C37.0734 20.5999 37.1542 20.5155 37.1542 20.41V11.4866C37.1542 11.4655 37.1645 11.4444 37.1746 11.4233C37.8822 10.5267 38.6909 10.0732 39.6007 10.0732C40.7836 10.0732 41.3699 10.706 41.3699 11.9823V20.41C41.3699 20.5155 41.4508 20.5999 41.5519 20.5999H45.5149C45.616 20.5999 45.6968 20.5155 45.6968 20.41V11.4866C45.6968 11.4655 45.7069 11.4444 45.717 11.4233C46.364 10.5267 47.1727 10.0732 48.1433 10.0732C49.3463 10.0732 49.9427 10.706 49.9427 11.9823V20.41C49.9427 20.5155 50.0236 20.5999 50.1247 20.5999H54.0573C54.1584 20.5999 54.2393 20.5155 54.2393 20.41V10.3369C54.2393 8.93404 53.8854 7.86871 53.1677 7.16201C52.46 6.45531 51.4593 6.09668 50.1754 6.09668Z" fill="white"/>
<path opacity="0.97" d="M66.2468 6.58146L63.2847 15.1674C63.2544 15.2518 63.1432 15.2518 63.1129 15.1674L60.1508 6.57092C60.1205 6.49709 60.0598 6.44434 59.9789 6.44434H55.8239C55.6925 6.44434 55.6116 6.58146 55.6521 6.70803L60.8483 20.4835C60.8787 20.5573 60.9393 20.5995 61.0202 20.5995H63.1937H65.3673C65.438 20.5995 65.5088 20.5468 65.5391 20.4835L70.7354 6.70803C70.786 6.58146 70.695 6.44434 70.5636 6.44434H66.4086C66.3378 6.45488 66.2771 6.50762 66.2468 6.58146Z" fill="white"/>
<path opacity="0.97" d="M83.4538 8.24844C82.1699 6.81393 80.5018 6.09668 78.4597 6.09668C76.3569 6.09668 74.6383 6.81394 73.2836 8.2379C71.9391 9.6618 71.2617 11.4233 71.2617 13.5118C71.2617 15.7584 71.9593 17.5621 73.3544 18.9228C74.7495 20.2835 76.5187 20.9585 78.6518 20.9585C79.7436 20.9585 80.795 20.8003 81.816 20.4733C82.7764 20.1674 83.565 19.7455 84.2019 19.197C84.2726 19.1338 84.2928 19.0177 84.2423 18.9439L82.554 16.2964C82.5035 16.2015 82.3821 16.1909 82.2912 16.2542C81.9373 16.5495 81.4723 16.7921 80.8961 16.982C80.249 17.214 79.6526 17.3195 79.1269 17.3195C78.1968 17.3195 77.4386 17.1086 76.8523 16.6761C76.3063 16.2753 75.9424 15.7584 75.7604 15.1256C75.7503 15.0728 75.7908 15.0096 75.8514 15.0096H85.2128C85.3139 15.0096 85.3948 14.9252 85.3948 14.8197V13.9864C85.3948 11.6026 84.7478 9.69345 83.4538 8.24844ZM75.6796 11.9296C75.7705 11.3284 76.0435 10.8115 76.4883 10.3791C76.9433 9.94659 77.5903 9.73564 78.4597 9.73564C79.3594 9.73564 80.0266 9.95714 80.4816 10.3896C80.9264 10.8326 81.1892 11.3495 81.2701 11.9296H75.6796Z" fill="white"/>
<path opacity="0.97" d="M96.1008 6.25451V10.1572C96.1008 10.2732 95.9997 10.3681 95.8885 10.347C95.6762 10.3049 95.3932 10.2838 95.0393 10.2838C94.4429 10.2838 93.8262 10.4103 93.1994 10.6529C92.5827 10.8955 92.148 11.1909 91.8852 11.5495C91.8751 11.5706 91.8649 11.5917 91.8649 11.6128V20.4202C91.8649 20.5257 91.7841 20.6101 91.683 20.6101H87.7202C87.6191 20.6101 87.5381 20.5257 87.5381 20.4202V6.64478C87.5381 6.5393 87.6191 6.45492 87.7202 6.45492H91.683C91.7841 6.45492 91.8649 6.5393 91.8649 6.64478V7.93161C91.8649 8.016 91.966 8.05819 92.0267 7.9949C92.1986 7.79449 92.3906 7.61518 92.6029 7.43586C92.9366 7.16162 93.3207 6.90847 93.7453 6.68697C94.4833 6.30725 95.2213 6.09629 95.9492 6.0752C96.03 6.08574 96.1008 6.17013 96.1008 6.25451Z" fill="white"/>
<path opacity="0.97" d="M103.786 6.09668C101.986 6.09668 100.571 6.55025 99.5297 7.44681C98.4884 8.34337 97.9728 9.45089 97.9728 10.7588C97.9728 11.8347 98.2458 12.7101 98.7917 13.3852C99.3376 14.0602 99.9947 14.5138 100.773 14.7669C101.551 15.0096 102.32 15.1994 103.088 15.326C103.856 15.4526 104.513 15.6002 105.059 15.7479C105.605 15.9061 105.878 16.1382 105.878 16.4546C105.878 17.1191 105.272 17.4461 104.048 17.4461C103.28 17.4461 102.421 17.2562 101.481 16.8554C100.632 16.5073 99.9442 16.1065 99.4387 15.6846C99.3477 15.6108 99.2264 15.6319 99.1657 15.7374L97.5583 18.6275C97.5179 18.7013 97.528 18.8068 97.5988 18.8701C98.2963 19.4818 99.1961 19.9881 100.298 20.3678C101.46 20.7687 102.643 20.9691 103.866 20.9691C105.777 20.9691 107.283 20.5366 108.375 19.6822C109.467 18.8279 110.023 17.7098 110.023 16.3386C110.023 15.2627 109.75 14.3767 109.204 13.6911C108.658 12.9949 108.001 12.5203 107.233 12.2566C106.465 11.9929 105.696 11.7925 104.928 11.6448C104.16 11.4971 103.502 11.36 102.957 11.2229C102.411 11.0858 102.138 10.8854 102.138 10.6111C102.138 10.3369 102.289 10.1048 102.603 9.9255C102.916 9.73564 103.321 9.6513 103.826 9.6513C104.594 9.6513 105.342 9.79892 106.07 10.1048C106.707 10.3685 107.233 10.6849 107.647 11.0436C107.738 11.1174 107.87 11.0963 107.92 10.9908L109.386 8.15351C109.427 8.06912 109.406 7.96364 109.336 7.91091C107.708 6.68736 105.858 6.09668 103.786 6.09668Z" fill="white"/>
<path opacity="0.97" d="M116.32 0.748897C115.835 0.253149 115.249 0 114.551 0C113.864 0 113.277 0.253149 112.802 0.748897C112.317 1.24464 112.084 1.85642 112.084 2.58422C112.084 3.30147 112.317 3.92379 112.802 4.43009C113.277 4.93638 113.864 5.18953 114.551 5.18953C115.249 5.18953 115.835 4.93638 116.32 4.43009C116.816 3.92379 117.058 3.30147 117.058 2.58422C117.058 1.85642 116.816 1.24464 116.32 0.748897ZM116.533 6.44472H112.57C112.479 6.44472 112.388 6.53965 112.388 6.64513V20.4206C112.388 20.5261 112.479 20.6104 112.57 20.6104H116.533C116.634 20.6104 116.715 20.5261 116.715 20.4206V6.64513C116.715 6.53965 116.634 6.44472 116.533 6.44472Z" fill="white"/>
<path opacity="0.97" d="M143.405 6.64476V25.8102C143.405 25.9156 143.324 26 143.223 26H139.26C139.159 26 139.078 25.9156 139.078 25.8102V19.1228C139.078 19.0385 138.977 18.9963 138.916 19.0595C137.784 20.3253 136.277 20.9582 134.377 20.9582C132.881 20.9582 131.758 20.5679 131.01 19.7663C130.262 18.9752 129.888 17.8993 129.888 16.5281V6.63421C129.888 6.52873 129.969 6.44434 130.07 6.44434H134.033C134.134 6.44434 134.215 6.52873 134.215 6.63421V14.6822C134.215 16.2116 134.963 16.9711 136.459 16.9711C137.48 16.9711 138.34 16.5175 139.047 15.621C139.057 15.5999 139.068 15.5788 139.068 15.5577V6.63421C139.068 6.52873 139.148 6.44434 139.25 6.44434H143.212C143.324 6.44434 143.405 6.53928 143.405 6.64476Z" fill="white"/>
<path opacity="0.97" d="M127.481 20.1037C126.834 20.6733 125.803 20.9581 124.367 20.9581C122.982 20.9581 121.931 20.61 121.203 19.9033C120.485 19.1966 120.121 18.1629 120.121 16.7917V2.7631C120.121 2.65762 120.202 2.57324 120.303 2.57324H124.266C124.367 2.57324 124.448 2.65762 124.448 2.7631V6.4443H127.016C127.117 6.4443 127.198 6.52868 127.198 6.63416V10.1571C127.198 10.2626 127.117 10.347 127.016 10.347H124.448V15.5365C124.448 15.9479 124.559 16.2854 124.771 16.5597C124.984 16.8339 125.277 16.971 125.631 16.971C126.025 16.971 126.318 16.9077 126.52 16.7917C126.632 16.7284 126.763 16.7812 126.793 16.9077L127.541 19.9139C127.562 19.9771 127.541 20.051 127.481 20.1037Z" fill="white"/>
</g>
</svg>
