<svg width="144" height="26" viewBox="0 0 144 26" fill="none" xmlns="http://www.w3.org/2000/svg">
<g opacity="0.97">
<path opacity="0.97" d="M13.5063 10.5266V20.4205C13.5063 20.526 13.4254 20.6103 13.3243 20.6103H9.36137C9.26028 20.6103 9.17941 20.526 9.17941 20.4205V12.3725C9.17941 10.8536 8.43131 10.0836 6.93511 10.0836C5.91405 10.0836 5.05473 10.5372 4.34707 11.4337C4.33696 11.4548 4.32686 11.4759 4.32686 11.497V20.4205C4.32686 20.526 4.24598 20.6103 4.14489 20.6103H0.181971C0.080876 20.6103 0 20.526 0 20.4205V1.24455C0 1.13907 0.080876 1.05469 0.181971 1.05469H4.14489C4.24598 1.05469 4.32686 1.13907 4.32686 1.24455V7.93187C4.32686 8.01625 4.42795 8.05845 4.4886 7.99516C5.62086 6.72942 7.12719 6.09655 9.01765 6.09655C10.5139 6.09655 11.636 6.49737 12.3841 7.28845C13.1322 8.07954 13.5063 9.15542 13.5063 10.5266Z" fill="#3D5FEA"/>
<path opacity="0.97" d="M28.5382 8.24892C27.1936 6.81442 25.3941 6.09717 23.1397 6.09717C20.9156 6.09717 19.1364 6.81442 17.7918 8.24892C16.4574 9.69393 15.78 11.4449 15.78 13.5122C15.78 15.5902 16.4574 17.3411 17.7918 18.7862C19.1364 20.2312 20.9156 20.959 23.1397 20.959C25.3941 20.959 27.1936 20.2312 28.5382 18.7862C29.8828 17.3411 30.5601 15.5902 30.5601 13.5122C30.5601 11.4449 29.8828 9.69393 28.5382 8.24892ZM25.3234 15.991C24.7876 16.645 24.0597 16.9719 23.1397 16.9719C22.24 16.9719 21.5323 16.645 21.0066 15.991C20.4809 15.337 20.2181 14.5143 20.2181 13.5122C20.2181 12.5418 20.4809 11.7191 21.0066 11.0652C21.5323 10.4112 22.24 10.0842 23.1397 10.0842C24.0597 10.0842 24.7876 10.4112 25.3234 11.0652C25.8592 11.7191 26.122 12.5418 26.122 13.5122C26.122 14.5143 25.8592 15.337 25.3234 15.991Z" fill="#3D5FEA"/>
<path opacity="0.97" d="M50.1754 6.09717C49.1846 6.09717 48.2646 6.35032 47.4053 6.84606C46.6167 7.31017 46.0102 7.84811 45.5754 8.47043C45.535 8.53372 45.444 8.52317 45.4137 8.44933C44.8273 6.87771 43.5637 6.09717 41.6226 6.09717C40.6521 6.09717 39.7524 6.31867 38.9234 6.77223C38.2157 7.1625 37.68 7.56333 37.316 7.97469C37.2553 8.03798 37.1542 7.99578 37.1542 7.91139V6.63511C37.1542 6.52963 37.0734 6.44525 36.9723 6.44525H33.0094C32.9083 6.44525 32.8274 6.52963 32.8274 6.63511V20.4105C32.8274 20.516 32.9083 20.6004 33.0094 20.6004H36.9723C37.0734 20.6004 37.1542 20.516 37.1542 20.4105V11.4871C37.1542 11.466 37.1645 11.4449 37.1746 11.4238C37.8822 10.5272 38.6909 10.0737 39.6007 10.0737C40.7836 10.0737 41.3699 10.7065 41.3699 11.9828V20.4105C41.3699 20.516 41.4508 20.6004 41.5519 20.6004H45.5149C45.616 20.6004 45.6968 20.516 45.6968 20.4105V11.4871C45.6968 11.466 45.7069 11.4449 45.717 11.4238C46.364 10.5272 47.1727 10.0737 48.1433 10.0737C49.3463 10.0737 49.9427 10.7065 49.9427 11.9828V20.4105C49.9427 20.516 50.0236 20.6004 50.1247 20.6004H54.0573C54.1584 20.6004 54.2393 20.516 54.2393 20.4105V10.3374C54.2393 8.93453 53.8854 7.8692 53.1677 7.1625C52.46 6.45579 51.4593 6.09717 50.1754 6.09717Z" fill="#3D5FEA"/>
<path opacity="0.97" d="M66.2468 6.58146L63.2847 15.1674C63.2544 15.2518 63.1432 15.2518 63.1129 15.1674L60.1508 6.57092C60.1205 6.49709 60.0598 6.44434 59.9789 6.44434H55.8239C55.6925 6.44434 55.6116 6.58146 55.6521 6.70803L60.8483 20.4835C60.8787 20.5573 60.9393 20.5995 61.0202 20.5995H63.1937H65.3673C65.438 20.5995 65.5088 20.5468 65.5391 20.4835L70.7354 6.70803C70.786 6.58146 70.695 6.44434 70.5636 6.44434H66.4086C66.3378 6.45488 66.2771 6.50762 66.2468 6.58146Z" fill="#3D5FEA"/>
<path opacity="0.97" d="M83.4538 8.24892C82.1699 6.81442 80.5018 6.09717 78.4597 6.09717C76.3569 6.09717 74.6383 6.81443 73.2836 8.23839C71.9391 9.66229 71.2617 11.4238 71.2617 13.5122C71.2617 15.7589 71.9593 17.5626 73.3544 18.9233C74.7495 20.284 76.5187 20.959 78.6518 20.959C79.7436 20.959 80.795 20.8008 81.816 20.4738C82.7764 20.1679 83.565 19.746 84.2019 19.1975C84.2726 19.1342 84.2928 19.0182 84.2423 18.9444L82.554 16.2969C82.5035 16.2019 82.3821 16.1914 82.2912 16.2547C81.9373 16.55 81.4723 16.7926 80.8961 16.9825C80.249 17.2145 79.6526 17.32 79.1269 17.32C78.1968 17.32 77.4386 17.1091 76.8523 16.6766C76.3063 16.2758 75.9424 15.7589 75.7604 15.1261C75.7503 15.0733 75.7908 15.01 75.8514 15.01H85.2128C85.3139 15.01 85.3948 14.9257 85.3948 14.8202V13.9869C85.3948 11.6031 84.7478 9.69393 83.4538 8.24892ZM75.6796 11.9301C75.7705 11.3288 76.0435 10.812 76.4883 10.3795C76.9433 9.94708 77.5903 9.73613 78.4597 9.73613C79.3594 9.73613 80.0266 9.95763 80.4816 10.3901C80.9264 10.8331 81.1892 11.3499 81.2701 11.9301H75.6796Z" fill="#3D5FEA"/>
<path opacity="0.97" d="M96.1008 6.255V10.1577C96.1008 10.2737 95.9997 10.3686 95.8885 10.3475C95.6762 10.3053 95.3932 10.2842 95.0393 10.2842C94.4429 10.2842 93.8262 10.4108 93.1994 10.6534C92.5827 10.896 92.148 11.1914 91.8852 11.55C91.8751 11.5711 91.8649 11.5922 91.8649 11.6133V20.4207C91.8649 20.5262 91.7841 20.6106 91.683 20.6106H87.7202C87.6191 20.6106 87.5381 20.5262 87.5381 20.4207V6.64527C87.5381 6.53979 87.6191 6.45541 87.7202 6.45541H91.683C91.7841 6.45541 91.8649 6.53979 91.8649 6.64527V7.9321C91.8649 8.01648 91.966 8.05867 92.0267 7.99539C92.1986 7.79498 92.3906 7.61567 92.6029 7.43635C92.9366 7.16211 93.3207 6.90896 93.7453 6.68746C94.4833 6.30774 95.2213 6.09678 95.9492 6.07568C96.03 6.08623 96.1008 6.17061 96.1008 6.255Z" fill="#3D5FEA"/>
<path opacity="0.97" d="M103.786 6.09717C101.986 6.09717 100.571 6.55073 99.5297 7.4473C98.4884 8.34385 97.9728 9.45138 97.9728 10.7593C97.9728 11.8351 98.2458 12.7106 98.7917 13.3857C99.3376 14.0607 99.9947 14.5143 100.773 14.7674C101.551 15.01 102.32 15.1999 103.088 15.3265C103.856 15.453 104.513 15.6007 105.059 15.7484C105.605 15.9066 105.878 16.1387 105.878 16.4551C105.878 17.1196 105.272 17.4466 104.048 17.4466C103.28 17.4466 102.421 17.2567 101.481 16.8559C100.632 16.5078 99.9442 16.107 99.4387 15.6851C99.3477 15.6113 99.2264 15.6324 99.1657 15.7378L97.5583 18.6279C97.5179 18.7018 97.528 18.8073 97.5988 18.8705C98.2963 19.4823 99.1961 19.9886 100.298 20.3683C101.46 20.7692 102.643 20.9696 103.866 20.9696C105.777 20.9696 107.283 20.5371 108.375 19.6827C109.467 18.8284 110.023 17.7103 110.023 16.3391C110.023 15.2632 109.75 14.3772 109.204 13.6916C108.658 12.9954 108.001 12.5208 107.233 12.2571C106.465 11.9934 105.696 11.793 104.928 11.6453C104.16 11.4976 103.502 11.3605 102.957 11.2234C102.411 11.0862 102.138 10.8858 102.138 10.6116C102.138 10.3374 102.289 10.1053 102.603 9.92599C102.916 9.73613 103.321 9.65179 103.826 9.65179C104.594 9.65179 105.342 9.79941 106.07 10.1053C106.707 10.369 107.233 10.6854 107.647 11.0441C107.738 11.1179 107.87 11.0968 107.92 10.9913L109.386 8.15399C109.427 8.06961 109.406 7.96413 109.336 7.91139C107.708 6.68785 105.858 6.09717 103.786 6.09717Z" fill="#3D5FEA"/>
<path opacity="0.97" d="M116.32 0.748897C115.835 0.253149 115.249 0 114.551 0C113.864 0 113.277 0.253149 112.802 0.748897C112.317 1.24464 112.084 1.85642 112.084 2.58422C112.084 3.30147 112.317 3.92379 112.802 4.43009C113.277 4.93638 113.864 5.18953 114.551 5.18953C115.249 5.18953 115.835 4.93638 116.32 4.43009C116.816 3.92379 117.058 3.30147 117.058 2.58422C117.058 1.85642 116.816 1.24464 116.32 0.748897ZM116.533 6.44472H112.57C112.479 6.44472 112.388 6.53965 112.388 6.64513V20.4206C112.388 20.5261 112.479 20.6104 112.57 20.6104H116.533C116.634 20.6104 116.715 20.5261 116.715 20.4206V6.64513C116.715 6.53965 116.634 6.44472 116.533 6.44472Z" fill="#3D5FEA"/>
<path opacity="0.97" d="M143.405 6.64476V25.8102C143.405 25.9156 143.324 26 143.223 26H139.26C139.159 26 139.078 25.9156 139.078 25.8102V19.1228C139.078 19.0385 138.977 18.9963 138.916 19.0595C137.784 20.3253 136.277 20.9582 134.377 20.9582C132.881 20.9582 131.758 20.5679 131.01 19.7663C130.262 18.9752 129.888 17.8993 129.888 16.5281V6.63421C129.888 6.52873 129.969 6.44434 130.07 6.44434H134.033C134.134 6.44434 134.215 6.52873 134.215 6.63421V14.6822C134.215 16.2116 134.963 16.9711 136.459 16.9711C137.48 16.9711 138.34 16.5175 139.047 15.621C139.057 15.5999 139.068 15.5788 139.068 15.5577V6.63421C139.068 6.52873 139.148 6.44434 139.25 6.44434H143.212C143.324 6.44434 143.405 6.53928 143.405 6.64476Z" fill="#3D5FEA"/>
<path opacity="0.97" d="M127.481 20.1032C126.834 20.6728 125.803 20.9576 124.367 20.9576C122.982 20.9576 121.931 20.6095 121.203 19.9028C120.485 19.1961 120.121 18.1624 120.121 16.7912V2.76261C120.121 2.65714 120.202 2.57275 120.303 2.57275H124.266C124.367 2.57275 124.448 2.65714 124.448 2.76261V6.44381H127.016C127.117 6.44381 127.198 6.52819 127.198 6.63367V10.1566C127.198 10.2621 127.117 10.3465 127.016 10.3465H124.448V15.536C124.448 15.9474 124.559 16.2849 124.771 16.5592C124.984 16.8334 125.277 16.9705 125.631 16.9705C126.025 16.9705 126.318 16.9072 126.52 16.7912C126.632 16.7279 126.763 16.7807 126.793 16.9072L127.541 19.9134C127.562 19.9767 127.541 20.0505 127.481 20.1032Z" fill="#3D5FEA"/>
</g>
</svg>
