<svg width="20" height="20" viewBox="0 0 20 20" fill="none" xmlns="http://www.w3.org/2000/svg">
<g id="Frame">
<path id="Vector" d="M10.0003 0C14.6027 0 18.3337 3.73096 18.3337 8.33333C18.3337 12.9357 14.6027 16.6667 10.0003 16.6667C8.47209 16.6667 7.03993 16.2553 5.80856 15.5372L1.67048 16.6667L2.79711 12.5262C2.07863 11.2947 1.66699 9.86208 1.66699 8.33333C1.66699 3.73096 5.39795 0 10.0003 0ZM6.99311 4.42361C6.88528 4.43118 6.77957 4.45752 6.68332 4.50676C6.61111 4.5437 6.54408 4.59709 6.43875 4.69655C6.33929 4.79046 6.28165 4.87248 6.22092 4.95155C5.91283 5.35267 5.74725 5.84504 5.75033 6.35082C5.752 6.75967 5.8582 7.157 6.02592 7.528C6.36603 8.28033 6.92691 9.07567 7.66779 9.81325C7.84576 9.99042 8.02012 10.1695 8.20813 10.335C9.12768 11.1447 10.2235 11.7285 11.4084 12.0402C11.4084 12.0402 11.8751 12.1118 11.8819 12.1123C12.0365 12.1206 12.1908 12.1094 12.3456 12.1015C12.5883 12.089 12.8253 12.0233 13.0398 11.9091C13.1778 11.8357 13.243 11.7992 13.3588 11.7262C13.3588 11.7262 13.3943 11.7022 13.4628 11.6512C13.5753 11.5673 13.6448 11.5083 13.7383 11.4112C13.8073 11.3395 13.8667 11.2548 13.9125 11.1594C13.9777 11.0234 14.0433 10.7638 14.0693 10.5482C14.0893 10.3836 14.0833 10.2936 14.0811 10.2378C14.0775 10.1482 14.0034 10.0559 13.9223 10.0167L13.4377 9.79892C13.4377 9.79892 12.7131 9.48358 12.2699 9.28142C12.2238 9.26033 12.1733 9.25058 12.1225 9.2475C12.0113 9.24067 11.8868 9.26967 11.8075 9.35317C11.8033 9.3515 11.7482 9.39917 11.1453 10.1296C11.112 10.1693 11.0341 10.2557 10.8993 10.2477C10.879 10.2463 10.8588 10.2433 10.839 10.2382C10.7844 10.2238 10.7313 10.2048 10.6793 10.1827C10.5762 10.139 10.54 10.1224 10.4696 10.0921C9.98851 9.88192 9.54701 9.60075 9.15676 9.25667C9.05209 9.1645 8.95476 9.06525 8.85443 8.968C8.50426 8.62858 8.21758 8.26758 8.00432 7.9115C7.99268 7.89208 7.97473 7.864 7.95541 7.83258C7.92052 7.77583 7.88203 7.70833 7.86997 7.662C7.83899 7.53942 7.92117 7.44092 7.92117 7.44092C7.92117 7.44092 8.124 7.21917 8.21824 7.09858C8.30891 6.9825 8.38718 6.869 8.43701 6.78808C8.53518 6.63028 8.56626 6.46718 8.51468 6.34136C8.28088 5.77137 8.03966 5.20447 7.79106 4.64078C7.74199 4.52954 7.59605 4.44872 7.46333 4.43339C7.41838 4.4282 7.37347 4.42298 7.32833 4.42002C7.21662 4.41457 7.10468 4.41577 6.99311 4.42361Z" fill="#3E51FF"/>
</g>
</svg>
