<svg width="133" height="18" viewBox="0 0 133 18" fill="none" xmlns="http://www.w3.org/2000/svg">
<mask id="path-1-outside-1_209_6508" maskUnits="userSpaceOnUse" x="-0.988353" y="-0.545687" width="135.2" height="19.5711" fill="black">
<rect fill="white" x="-0.988353" y="-0.545687" width="135.2" height="19.5711"/>
<path d="M0.324053 16.0123L0.171588 2.92231L2.93916 2.89008L3.06504 13.6983L8.67688 13.6329L8.70346 15.9147L0.324053 16.0123ZM14.6015 16.0378C13.5916 16.0496 12.72 15.8552 11.9866 15.4546C11.2574 15.0497 10.6924 14.4724 10.2916 13.7228C9.89073 12.9689 9.68427 12.0742 9.67221 11.0388C9.66045 10.0289 9.84613 9.14032 10.2293 8.37302C10.6124 7.60572 11.1573 7.00487 11.8639 6.57048C12.5748 6.13603 13.4118 5.9132 14.3748 5.90198C15.0225 5.89444 15.6266 5.99181 16.1872 6.19411C16.7521 6.39209 17.2457 6.69531 17.6681 7.10377C18.0948 7.51218 18.4289 8.02821 18.6706 8.65185C18.9122 9.27124 19.0379 9.99852 19.0476 10.8337L19.0563 11.5815L10.7664 11.6781L10.7467 9.99068L16.4736 9.92398C16.469 9.53196 16.3798 9.18567 16.2058 8.88512C16.0318 8.58457 15.7926 8.35084 15.4881 8.18392C15.1878 8.01269 14.8395 7.92938 14.4432 7.934C14.0299 7.93881 13.6645 8.03895 13.3472 8.23442C13.034 8.42558 12.7899 8.68199 12.6146 9.00366C12.4393 9.32106 12.3518 9.67367 12.3521 10.0615L12.3707 11.6658C12.3764 12.1515 12.4708 12.5702 12.6539 12.9218C12.8412 13.2733 13.1022 13.543 13.4368 13.7309C13.7714 13.9188 14.1666 14.0101 14.6226 14.0048C14.9251 14.0012 15.2016 13.9554 15.452 13.8673C15.7024 13.7791 15.9161 13.6488 16.0931 13.4762C16.2701 13.3037 16.404 13.0933 16.4948 12.8451L19.0151 12.9819C18.8943 13.5885 18.6384 14.1199 18.2474 14.5762C17.8606 15.0282 17.3576 15.3835 16.7384 15.6422C16.1234 15.8965 15.4111 16.0284 14.6015 16.0378ZM28.609 8.66395L26.118 8.84638C26.073 8.63382 25.9791 8.44314 25.8365 8.27434C25.6939 8.10127 25.5069 7.96494 25.2756 7.86536C25.0485 7.76146 24.7773 7.71135 24.462 7.71502C24.0402 7.71994 23.6854 7.81356 23.3977 7.9959C23.11 8.17398 22.9679 8.41003 22.9713 8.70404C22.974 8.9384 23.0701 9.13545 23.2594 9.29519C23.4488 9.45492 23.772 9.58114 24.2291 9.67383L26.0102 10.0111C26.9669 10.196 27.6822 10.503 28.156 10.9322C28.6298 11.3613 28.8708 11.9296 28.879 12.6369C28.8865 13.2803 28.7035 13.8471 28.3299 14.3373C27.9606 14.8275 27.4494 15.2127 26.7964 15.4931C26.1475 15.7691 25.397 15.9121 24.5448 15.922C23.2452 15.9371 22.2066 15.6786 21.429 15.1464C20.6557 14.61 20.1975 13.8738 20.0545 12.9379L22.7309 12.7661C22.8165 13.1614 23.016 13.4617 23.3295 13.6668C23.643 13.8677 24.0426 13.9654 24.5283 13.9597C25.0056 13.9541 25.388 13.8581 25.6756 13.6715C25.9675 13.4806 26.1138 13.2381 26.1146 12.944C26.1075 12.6969 26.0007 12.4957 25.7944 12.3404C25.588 12.1809 25.2712 12.061 24.8441 11.9807L23.14 11.6618C22.179 11.4812 21.4614 11.1572 20.9872 10.6896C20.5172 10.2221 20.278 9.62184 20.2694 8.88893C20.2621 8.25829 20.4262 7.71302 20.7618 7.25311C21.1016 6.79316 21.5811 6.43599 22.2004 6.1816C22.8239 5.92716 23.5553 5.79505 24.3948 5.78528C25.6348 5.77083 26.6136 6.02153 27.3313 6.53735C28.0533 7.05312 28.4792 7.76199 28.609 8.66395ZM38.3557 8.55042L35.8648 8.73286C35.8197 8.5203 35.7259 8.32962 35.5833 8.16081C35.4406 7.98775 35.2536 7.85142 35.0224 7.75183C34.7953 7.64794 34.5241 7.59783 34.2088 7.6015C33.7869 7.60641 33.4322 7.70004 33.1445 7.88238C32.8568 8.06046 32.7146 8.2965 32.718 8.59052C32.7208 8.82488 32.8168 9.02193 33.0062 9.18166C33.1956 9.3414 33.5188 9.46762 33.9759 9.56031L35.7569 9.89754C36.7137 10.0824 37.429 10.3895 37.9027 10.8186C38.3765 11.2478 38.6175 11.8161 38.6258 12.5234C38.6333 13.1668 38.4502 13.7336 38.0766 14.2238C37.7073 14.7139 37.1961 15.0992 36.5431 15.3795C35.8943 15.6556 35.1438 15.7986 34.2916 15.8085C32.9919 15.8236 31.9533 15.5651 31.1758 15.0329C30.4024 14.4964 29.9443 13.7602 29.8013 12.8243L32.4777 12.6525C32.5633 13.0479 32.7628 13.3481 33.0763 13.5533C33.3897 13.7542 33.7893 13.8518 34.2751 13.8462C34.7523 13.8406 35.1348 13.7445 35.4224 13.5579C35.7142 13.367 35.8606 13.1245 35.8614 12.8305C35.8543 12.5834 35.7475 12.3822 35.5411 12.2269C35.3347 12.0674 35.018 11.9475 34.5909 11.8672L32.8867 11.5483C31.9258 11.3677 31.2082 11.0436 30.7339 10.5761C30.264 10.1085 30.0247 9.50831 30.0162 8.77541C30.0088 8.14477 30.173 7.5995 30.5085 7.13959C30.8484 6.67964 31.3279 6.32246 31.9471 6.06808C32.5706 5.81364 33.3021 5.68153 34.1415 5.67175C35.3815 5.65731 36.3603 5.908 37.0781 6.42382C37.8 6.9396 38.2259 7.64847 38.3557 8.55042ZM48.9291 5.62737L48.9529 7.67268L43.0407 7.74154L43.0169 5.69623L48.9291 5.62737ZM44.3317 3.32848L47.0546 3.29677L47.1612 12.4496C47.1641 12.701 47.2047 12.8965 47.2831 13.0362C47.3613 13.1717 47.469 13.2663 47.606 13.3201C47.7473 13.3739 47.9095 13.3997 48.0927 13.3976C48.2206 13.3961 48.3483 13.3839 48.4758 13.3612C48.6034 13.3341 48.7012 13.3138 48.7692 13.3002L49.221 15.3214C49.0852 15.3656 48.894 15.4168 48.6475 15.4751C48.401 15.5376 48.1011 15.5773 47.7475 15.5942C47.0916 15.6274 46.5154 15.5468 46.0188 15.3523C45.5264 15.1577 45.1414 14.8511 44.8638 14.4324C44.5862 14.0137 44.4457 13.4827 44.4425 12.8392L44.3317 3.32848ZM53.3248 9.71849L53.3909 15.3942L50.6681 15.426L50.5156 2.33594L53.1618 2.30512L53.22 7.30975L53.3351 7.30841C53.5499 6.72632 53.9026 6.26835 54.393 5.93449C54.8834 5.59637 55.5015 5.42297 56.2472 5.41428C56.929 5.40634 57.5251 5.54855 58.0357 5.84092C58.5504 6.12898 58.9516 6.54834 59.2393 7.09901C59.5312 7.64536 59.6795 8.30206 59.6842 9.0691L59.757 15.3201L57.0341 15.3518L56.967 9.58658C56.9642 8.98145 56.8053 8.51239 56.4903 8.17939C56.1796 7.84634 55.7473 7.68304 55.1934 7.68949C54.8226 7.69381 54.4955 7.77646 54.2118 7.93745C53.9324 8.09838 53.7135 8.33106 53.5551 8.63548C53.4009 8.93559 53.3242 9.2966 53.3248 9.71849ZM64.3415 15.4521C63.7151 15.4594 63.1556 15.3572 62.6631 15.1456C62.1705 14.9297 61.7789 14.6083 61.4884 14.1812C61.2021 13.7499 61.0552 13.2104 61.0476 12.5627C61.0413 12.0173 61.1361 11.558 61.332 11.185C61.528 10.8119 61.7972 10.5105 62.1397 10.2806C62.4823 10.0508 62.8723 9.87577 63.3099 9.75561C63.7517 9.6354 64.2152 9.54903 64.7004 9.4965C65.2707 9.4302 65.7302 9.36944 66.079 9.31424C66.4278 9.25478 66.6804 9.17086 66.8368 9.0625C66.9932 8.95414 67.0702 8.79556 67.0678 8.58677L67.0674 8.54842C67.0626 8.14362 66.9312 7.83192 66.6729 7.61332C66.4189 7.39467 66.0597 7.28805 65.5953 7.29346C65.1052 7.29917 64.7166 7.41237 64.4294 7.63306C64.1421 7.84948 63.9535 8.12017 63.8635 8.4451L61.3428 8.2699C61.4637 7.67186 61.7091 7.15334 62.079 6.71434C62.4489 6.27109 62.9286 5.92883 63.5182 5.68757C64.1119 5.442 64.8008 5.31465 65.5849 5.30552C66.1303 5.29917 66.653 5.357 67.1531 5.47903C67.6574 5.601 68.1049 5.79396 68.4958 6.05789C68.891 6.32177 69.2039 6.66332 69.4347 7.08254C69.6654 7.49749 69.7841 7.99685 69.7909 8.58062L69.868 15.2023L67.2858 15.2324L67.27 13.871L67.1933 13.8719C67.0392 14.1805 66.8314 14.4536 66.57 14.691C66.3085 14.9242 65.9931 15.109 65.6239 15.2454C65.2547 15.3775 64.8272 15.4464 64.3415 15.4521ZM65.0994 13.5639C65.4999 13.5592 65.8526 13.4763 66.1576 13.315C66.4625 13.1495 66.7007 12.9294 66.8723 12.6547C67.0438 12.3799 67.1275 12.07 67.1235 11.7248L67.1114 10.683C67.0268 10.7394 66.9102 10.7919 66.7616 10.8405C66.6173 10.8848 66.4537 10.9272 66.2709 10.9677C66.0881 11.0039 65.9052 11.038 65.7223 11.0699C65.5394 11.0976 65.3735 11.123 65.2246 11.146C64.9056 11.1966 64.6273 11.2745 64.3899 11.3795C64.1525 11.4846 63.9687 11.6252 63.8387 11.8014C63.7086 11.9734 63.645 12.1872 63.648 12.4429C63.6523 12.8136 63.7898 13.0954 64.0606 13.2883C64.3355 13.4769 64.6818 13.5687 65.0994 13.5639ZM74.2772 9.47445L74.3433 15.1502L71.6205 15.1819L71.5062 5.3644L74.1012 5.33418L74.1213 7.0663L74.2364 7.06496C74.447 6.49145 74.8061 6.03553 75.3136 5.69721C75.821 5.35463 76.439 5.1791 77.1676 5.17061C77.8494 5.16267 78.4456 5.30488 78.9561 5.59725C79.4666 5.88962 79.8658 6.31114 80.1534 6.8618C80.4411 7.40821 80.5893 8.06277 80.5982 8.82551L80.671 15.0765L77.9482 15.1082L77.8811 9.34298C77.8783 8.74212 77.7195 8.27519 77.4045 7.94219C77.0894 7.60493 76.6592 7.43947 76.1138 7.44582C75.7474 7.45009 75.4244 7.53269 75.145 7.69363C74.8699 7.85451 74.6553 8.08714 74.5011 8.39152C74.3512 8.69158 74.2766 9.05256 74.2772 9.47445ZM94.7513 5.06809L94.3054 6.85039L85.7342 6.95022L86.1737 5.16799L94.7513 5.06809ZM90.4109 14.9631L85.9785 9.81121L85.9663 8.21323L88.1266 8.18807C88.6081 8.18246 89.0098 8.08829 89.3315 7.90555C89.6533 7.72281 89.8933 7.4771 90.0517 7.16842C90.21 6.85973 90.289 6.50936 90.2887 6.11729C90.2776 5.52931 90.0995 5.05195 89.7543 4.68521C89.4133 4.31415 88.855 4.13314 88.0795 4.14218L85.7018 4.16987L86.1998 1.92031L88.0534 1.89872C89.14 1.88606 90.0473 2.03957 90.7755 2.35924C91.508 2.67459 92.0588 3.13056 92.428 3.72716C92.8014 4.3237 92.9951 5.0374 93.009 5.86826C93.0134 6.60548 92.8973 7.25034 92.6608 7.80285C92.4286 8.3553 92.0568 8.81776 91.5455 9.19022C91.0384 9.56263 90.3748 9.8431 89.5544 10.0316L89.4526 10.0712L93.4201 14.8129L93.4214 14.928L90.4109 14.9631ZM94.7262 1.821L94.2678 3.62902L87.2115 3.71121L87.6699 1.90319L94.7262 1.821ZM95.9875 12.5968L95.9622 10.4173L101.327 1.74412L103.206 1.72223L103.241 4.73907L102.129 4.75203L98.7473 10.2442L98.7485 10.3465L106.514 10.256L106.54 12.4739L95.9875 12.5968ZM102.297 14.8246L102.263 11.8589L102.303 10.8932L102.196 1.734L104.791 1.70377L104.943 14.7938L102.297 14.8246ZM113.187 14.9854C112.087 14.994 111.138 14.7344 110.339 14.2068C109.545 13.679 108.929 12.9085 108.491 11.895C108.057 10.8816 107.834 9.65893 107.821 8.22716C107.805 6.7997 108.002 5.5807 108.412 4.57018C108.826 3.5596 109.424 2.78767 110.207 2.25437C110.993 1.71677 111.934 1.44159 113.029 1.42883C114.124 1.41608 115.069 1.6693 115.863 2.18849C116.662 2.70763 117.28 3.46753 117.718 4.46818C118.156 5.46457 118.381 6.67652 118.393 8.10402C118.41 9.54001 118.211 10.7697 117.797 11.793C117.387 12.8163 116.791 13.601 116.009 14.1471C115.227 14.6932 114.286 14.9726 113.187 14.9854ZM113.16 12.6909C113.91 12.6821 114.504 12.298 114.943 11.5386C115.381 10.7792 115.59 9.6453 115.568 8.13693C115.556 7.1441 115.445 6.31864 115.232 5.66056C115.024 5.00242 114.733 4.50933 114.359 4.18129C113.988 3.85319 113.554 3.69205 113.055 3.69786C112.31 3.70654 111.717 4.08633 111.279 4.83723C110.84 5.58813 110.627 6.70716 110.64 8.19433C110.652 9.19994 110.762 10.0382 110.97 10.7091C111.182 11.3757 111.476 11.8752 111.85 12.2075C112.225 12.5355 112.661 12.6967 113.16 12.6909ZM125.65 0.84714L121.614 16.5685L119.268 16.5958L123.304 0.874462L125.65 0.84714ZM132.803 8.0129L132.828 10.1733L126.858 10.2428L126.833 8.08243L132.803 8.0129Z"/>
</mask>
<path d="M0.324053 16.0123L0.171588 2.92231L2.93916 2.89008L3.06504 13.6983L8.67688 13.6329L8.70346 15.9147L0.324053 16.0123ZM14.6015 16.0378C13.5916 16.0496 12.72 15.8552 11.9866 15.4546C11.2574 15.0497 10.6924 14.4724 10.2916 13.7228C9.89073 12.9689 9.68427 12.0742 9.67221 11.0388C9.66045 10.0289 9.84613 9.14032 10.2293 8.37302C10.6124 7.60572 11.1573 7.00487 11.8639 6.57048C12.5748 6.13603 13.4118 5.9132 14.3748 5.90198C15.0225 5.89444 15.6266 5.99181 16.1872 6.19411C16.7521 6.39209 17.2457 6.69531 17.6681 7.10377C18.0948 7.51218 18.4289 8.02821 18.6706 8.65185C18.9122 9.27124 19.0379 9.99852 19.0476 10.8337L19.0563 11.5815L10.7664 11.6781L10.7467 9.99068L16.4736 9.92398C16.469 9.53196 16.3798 9.18567 16.2058 8.88512C16.0318 8.58457 15.7926 8.35084 15.4881 8.18392C15.1878 8.01269 14.8395 7.92938 14.4432 7.934C14.0299 7.93881 13.6645 8.03895 13.3472 8.23442C13.034 8.42558 12.7899 8.68199 12.6146 9.00366C12.4393 9.32106 12.3518 9.67367 12.3521 10.0615L12.3707 11.6658C12.3764 12.1515 12.4708 12.5702 12.6539 12.9218C12.8412 13.2733 13.1022 13.543 13.4368 13.7309C13.7714 13.9188 14.1666 14.0101 14.6226 14.0048C14.9251 14.0012 15.2016 13.9554 15.452 13.8673C15.7024 13.7791 15.9161 13.6488 16.0931 13.4762C16.2701 13.3037 16.404 13.0933 16.4948 12.8451L19.0151 12.9819C18.8943 13.5885 18.6384 14.1199 18.2474 14.5762C17.8606 15.0282 17.3576 15.3835 16.7384 15.6422C16.1234 15.8965 15.4111 16.0284 14.6015 16.0378ZM28.609 8.66395L26.118 8.84638C26.073 8.63382 25.9791 8.44314 25.8365 8.27434C25.6939 8.10127 25.5069 7.96494 25.2756 7.86536C25.0485 7.76146 24.7773 7.71135 24.462 7.71502C24.0402 7.71994 23.6854 7.81356 23.3977 7.9959C23.11 8.17398 22.9679 8.41003 22.9713 8.70404C22.974 8.9384 23.0701 9.13545 23.2594 9.29519C23.4488 9.45492 23.772 9.58114 24.2291 9.67383L26.0102 10.0111C26.9669 10.196 27.6822 10.503 28.156 10.9322C28.6298 11.3613 28.8708 11.9296 28.879 12.6369C28.8865 13.2803 28.7035 13.8471 28.3299 14.3373C27.9606 14.8275 27.4494 15.2127 26.7964 15.4931C26.1475 15.7691 25.397 15.9121 24.5448 15.922C23.2452 15.9371 22.2066 15.6786 21.429 15.1464C20.6557 14.61 20.1975 13.8738 20.0545 12.9379L22.7309 12.7661C22.8165 13.1614 23.016 13.4617 23.3295 13.6668C23.643 13.8677 24.0426 13.9654 24.5283 13.9597C25.0056 13.9541 25.388 13.8581 25.6756 13.6715C25.9675 13.4806 26.1138 13.2381 26.1146 12.944C26.1075 12.6969 26.0007 12.4957 25.7944 12.3404C25.588 12.1809 25.2712 12.061 24.8441 11.9807L23.14 11.6618C22.179 11.4812 21.4614 11.1572 20.9872 10.6896C20.5172 10.2221 20.278 9.62184 20.2694 8.88893C20.2621 8.25829 20.4262 7.71302 20.7618 7.25311C21.1016 6.79316 21.5811 6.43599 22.2004 6.1816C22.8239 5.92716 23.5553 5.79505 24.3948 5.78528C25.6348 5.77083 26.6136 6.02153 27.3313 6.53735C28.0533 7.05312 28.4792 7.76199 28.609 8.66395ZM38.3557 8.55042L35.8648 8.73286C35.8197 8.5203 35.7259 8.32962 35.5833 8.16081C35.4406 7.98775 35.2536 7.85142 35.0224 7.75183C34.7953 7.64794 34.5241 7.59783 34.2088 7.6015C33.7869 7.60641 33.4322 7.70004 33.1445 7.88238C32.8568 8.06046 32.7146 8.2965 32.718 8.59052C32.7208 8.82488 32.8168 9.02193 33.0062 9.18166C33.1956 9.3414 33.5188 9.46762 33.9759 9.56031L35.7569 9.89754C36.7137 10.0824 37.429 10.3895 37.9027 10.8186C38.3765 11.2478 38.6175 11.8161 38.6258 12.5234C38.6333 13.1668 38.4502 13.7336 38.0766 14.2238C37.7073 14.7139 37.1961 15.0992 36.5431 15.3795C35.8943 15.6556 35.1438 15.7986 34.2916 15.8085C32.9919 15.8236 31.9533 15.5651 31.1758 15.0329C30.4024 14.4964 29.9443 13.7602 29.8013 12.8243L32.4777 12.6525C32.5633 13.0479 32.7628 13.3481 33.0763 13.5533C33.3897 13.7542 33.7893 13.8518 34.2751 13.8462C34.7523 13.8406 35.1348 13.7445 35.4224 13.5579C35.7142 13.367 35.8606 13.1245 35.8614 12.8305C35.8543 12.5834 35.7475 12.3822 35.5411 12.2269C35.3347 12.0674 35.018 11.9475 34.5909 11.8672L32.8867 11.5483C31.9258 11.3677 31.2082 11.0436 30.7339 10.5761C30.264 10.1085 30.0247 9.50831 30.0162 8.77541C30.0088 8.14477 30.173 7.5995 30.5085 7.13959C30.8484 6.67964 31.3279 6.32246 31.9471 6.06808C32.5706 5.81364 33.3021 5.68153 34.1415 5.67175C35.3815 5.65731 36.3603 5.908 37.0781 6.42382C37.8 6.9396 38.2259 7.64847 38.3557 8.55042ZM48.9291 5.62737L48.9529 7.67268L43.0407 7.74154L43.0169 5.69623L48.9291 5.62737ZM44.3317 3.32848L47.0546 3.29677L47.1612 12.4496C47.1641 12.701 47.2047 12.8965 47.2831 13.0362C47.3613 13.1717 47.469 13.2663 47.606 13.3201C47.7473 13.3739 47.9095 13.3997 48.0927 13.3976C48.2206 13.3961 48.3483 13.3839 48.4758 13.3612C48.6034 13.3341 48.7012 13.3138 48.7692 13.3002L49.221 15.3214C49.0852 15.3656 48.894 15.4168 48.6475 15.4751C48.401 15.5376 48.1011 15.5773 47.7475 15.5942C47.0916 15.6274 46.5154 15.5468 46.0188 15.3523C45.5264 15.1577 45.1414 14.8511 44.8638 14.4324C44.5862 14.0137 44.4457 13.4827 44.4425 12.8392L44.3317 3.32848ZM53.3248 9.71849L53.3909 15.3942L50.6681 15.426L50.5156 2.33594L53.1618 2.30512L53.22 7.30975L53.3351 7.30841C53.5499 6.72632 53.9026 6.26835 54.393 5.93449C54.8834 5.59637 55.5015 5.42297 56.2472 5.41428C56.929 5.40634 57.5251 5.54855 58.0357 5.84092C58.5504 6.12898 58.9516 6.54834 59.2393 7.09901C59.5312 7.64536 59.6795 8.30206 59.6842 9.0691L59.757 15.3201L57.0341 15.3518L56.967 9.58658C56.9642 8.98145 56.8053 8.51239 56.4903 8.17939C56.1796 7.84634 55.7473 7.68304 55.1934 7.68949C54.8226 7.69381 54.4955 7.77646 54.2118 7.93745C53.9324 8.09838 53.7135 8.33106 53.5551 8.63548C53.4009 8.93559 53.3242 9.2966 53.3248 9.71849ZM64.3415 15.4521C63.7151 15.4594 63.1556 15.3572 62.6631 15.1456C62.1705 14.9297 61.7789 14.6083 61.4884 14.1812C61.2021 13.7499 61.0552 13.2104 61.0476 12.5627C61.0413 12.0173 61.1361 11.558 61.332 11.185C61.528 10.8119 61.7972 10.5105 62.1397 10.2806C62.4823 10.0508 62.8723 9.87577 63.3099 9.75561C63.7517 9.6354 64.2152 9.54903 64.7004 9.4965C65.2707 9.4302 65.7302 9.36944 66.079 9.31424C66.4278 9.25478 66.6804 9.17086 66.8368 9.0625C66.9932 8.95414 67.0702 8.79556 67.0678 8.58677L67.0674 8.54842C67.0626 8.14362 66.9312 7.83192 66.6729 7.61332C66.4189 7.39467 66.0597 7.28805 65.5953 7.29346C65.1052 7.29917 64.7166 7.41237 64.4294 7.63306C64.1421 7.84948 63.9535 8.12017 63.8635 8.4451L61.3428 8.2699C61.4637 7.67186 61.7091 7.15334 62.079 6.71434C62.4489 6.27109 62.9286 5.92883 63.5182 5.68757C64.1119 5.442 64.8008 5.31465 65.5849 5.30552C66.1303 5.29917 66.653 5.357 67.1531 5.47903C67.6574 5.601 68.1049 5.79396 68.4958 6.05789C68.891 6.32177 69.2039 6.66332 69.4347 7.08254C69.6654 7.49749 69.7841 7.99685 69.7909 8.58062L69.868 15.2023L67.2858 15.2324L67.27 13.871L67.1933 13.8719C67.0392 14.1805 66.8314 14.4536 66.57 14.691C66.3085 14.9242 65.9931 15.109 65.6239 15.2454C65.2547 15.3775 64.8272 15.4464 64.3415 15.4521ZM65.0994 13.5639C65.4999 13.5592 65.8526 13.4763 66.1576 13.315C66.4625 13.1495 66.7007 12.9294 66.8723 12.6547C67.0438 12.3799 67.1275 12.07 67.1235 11.7248L67.1114 10.683C67.0268 10.7394 66.9102 10.7919 66.7616 10.8405C66.6173 10.8848 66.4537 10.9272 66.2709 10.9677C66.0881 11.0039 65.9052 11.038 65.7223 11.0699C65.5394 11.0976 65.3735 11.123 65.2246 11.146C64.9056 11.1966 64.6273 11.2745 64.3899 11.3795C64.1525 11.4846 63.9687 11.6252 63.8387 11.8014C63.7086 11.9734 63.645 12.1872 63.648 12.4429C63.6523 12.8136 63.7898 13.0954 64.0606 13.2883C64.3355 13.4769 64.6818 13.5687 65.0994 13.5639ZM74.2772 9.47445L74.3433 15.1502L71.6205 15.1819L71.5062 5.3644L74.1012 5.33418L74.1213 7.0663L74.2364 7.06496C74.447 6.49145 74.8061 6.03553 75.3136 5.69721C75.821 5.35463 76.439 5.1791 77.1676 5.17061C77.8494 5.16267 78.4456 5.30488 78.9561 5.59725C79.4666 5.88962 79.8658 6.31114 80.1534 6.8618C80.4411 7.40821 80.5893 8.06277 80.5982 8.82551L80.671 15.0765L77.9482 15.1082L77.8811 9.34298C77.8783 8.74212 77.7195 8.27519 77.4045 7.94219C77.0894 7.60493 76.6592 7.43947 76.1138 7.44582C75.7474 7.45009 75.4244 7.53269 75.145 7.69363C74.8699 7.85451 74.6553 8.08714 74.5011 8.39152C74.3512 8.69158 74.2766 9.05256 74.2772 9.47445ZM94.7513 5.06809L94.3054 6.85039L85.7342 6.95022L86.1737 5.16799L94.7513 5.06809ZM90.4109 14.9631L85.9785 9.81121L85.9663 8.21323L88.1266 8.18807C88.6081 8.18246 89.0098 8.08829 89.3315 7.90555C89.6533 7.72281 89.8933 7.4771 90.0517 7.16842C90.21 6.85973 90.289 6.50936 90.2887 6.11729C90.2776 5.52931 90.0995 5.05195 89.7543 4.68521C89.4133 4.31415 88.855 4.13314 88.0795 4.14218L85.7018 4.16987L86.1998 1.92031L88.0534 1.89872C89.14 1.88606 90.0473 2.03957 90.7755 2.35924C91.508 2.67459 92.0588 3.13056 92.428 3.72716C92.8014 4.3237 92.9951 5.0374 93.009 5.86826C93.0134 6.60548 92.8973 7.25034 92.6608 7.80285C92.4286 8.3553 92.0568 8.81776 91.5455 9.19022C91.0384 9.56263 90.3748 9.8431 89.5544 10.0316L89.4526 10.0712L93.4201 14.8129L93.4214 14.928L90.4109 14.9631ZM94.7262 1.821L94.2678 3.62902L87.2115 3.71121L87.6699 1.90319L94.7262 1.821ZM95.9875 12.5968L95.9622 10.4173L101.327 1.74412L103.206 1.72223L103.241 4.73907L102.129 4.75203L98.7473 10.2442L98.7485 10.3465L106.514 10.256L106.54 12.4739L95.9875 12.5968ZM102.297 14.8246L102.263 11.8589L102.303 10.8932L102.196 1.734L104.791 1.70377L104.943 14.7938L102.297 14.8246ZM113.187 14.9854C112.087 14.994 111.138 14.7344 110.339 14.2068C109.545 13.679 108.929 12.9085 108.491 11.895C108.057 10.8816 107.834 9.65893 107.821 8.22716C107.805 6.7997 108.002 5.5807 108.412 4.57018C108.826 3.5596 109.424 2.78767 110.207 2.25437C110.993 1.71677 111.934 1.44159 113.029 1.42883C114.124 1.41608 115.069 1.6693 115.863 2.18849C116.662 2.70763 117.28 3.46753 117.718 4.46818C118.156 5.46457 118.381 6.67652 118.393 8.10402C118.41 9.54001 118.211 10.7697 117.797 11.793C117.387 12.8163 116.791 13.601 116.009 14.1471C115.227 14.6932 114.286 14.9726 113.187 14.9854ZM113.16 12.6909C113.91 12.6821 114.504 12.298 114.943 11.5386C115.381 10.7792 115.59 9.6453 115.568 8.13693C115.556 7.1441 115.445 6.31864 115.232 5.66056C115.024 5.00242 114.733 4.50933 114.359 4.18129C113.988 3.85319 113.554 3.69205 113.055 3.69786C112.31 3.70654 111.717 4.08633 111.279 4.83723C110.84 5.58813 110.627 6.70716 110.64 8.19433C110.652 9.19994 110.762 10.0382 110.97 10.7091C111.182 11.3757 111.476 11.8752 111.85 12.2075C112.225 12.5355 112.661 12.6967 113.16 12.6909ZM125.65 0.84714L121.614 16.5685L119.268 16.5958L123.304 0.874462L125.65 0.84714ZM132.803 8.0129L132.828 10.1733L126.858 10.2428L126.833 8.08243L132.803 8.0129Z" fill="white"/>
<path d="M0.324053 16.0123L-0.67588 16.024L-0.664233 17.0239L0.335699 17.0123L0.324053 16.0123ZM0.171588 2.92231L0.159941 1.92238L-0.839991 1.93403L-0.828344 2.93396L0.171588 2.92231ZM2.93916 2.89008L3.93909 2.87843L3.92744 1.8785L2.92751 1.89015L2.93916 2.89008ZM3.06504 13.6983L2.06511 13.7099L2.07676 14.7099L3.07669 14.6982L3.06504 13.6983ZM8.67688 13.6329L9.67681 13.6213L9.66517 12.6214L8.66523 12.633L8.67688 13.6329ZM8.70346 15.9147L8.7151 16.9147L9.71504 16.903L9.70339 15.9031L8.70346 15.9147ZM1.32398 16.0007L1.17152 2.91067L-0.828344 2.93396L-0.67588 16.024L1.32398 16.0007ZM0.183235 3.92225L2.9508 3.89001L2.92751 1.89015L0.159941 1.92238L0.183235 3.92225ZM1.93922 2.90173L2.06511 13.7099L4.06498 13.6866L3.93909 2.87843L1.93922 2.90173ZM3.07669 14.6982L8.68853 14.6329L8.66523 12.633L3.0534 12.6984L3.07669 14.6982ZM7.67695 13.6446L7.70352 15.9264L9.70339 15.9031L9.67681 13.6213L7.67695 13.6446ZM8.69181 14.9148L0.312406 15.0124L0.335699 17.0123L8.7151 16.9147L8.69181 14.9148ZM11.9866 15.4546L11.5011 16.3289L11.5072 16.3322L11.9866 15.4546ZM10.2916 13.7228L9.40863 14.1923L9.40971 14.1943L10.2916 13.7228ZM10.2293 8.37302L9.3346 7.92628L9.3346 7.92628L10.2293 8.37302ZM11.8639 6.57048L11.3425 5.7172L11.3402 5.71857L11.8639 6.57048ZM16.1872 6.19411L15.8478 7.13478L15.8565 7.13781L16.1872 6.19411ZM17.6681 7.10377L16.973 7.82264L16.9766 7.82615L17.6681 7.10377ZM18.6706 8.65185L17.7381 9.01317L17.739 9.01526L18.6706 8.65185ZM19.0563 11.5815L19.0679 12.5814L20.0679 12.5698L20.0562 11.5699L19.0563 11.5815ZM10.7664 11.6781L9.76644 11.6897L9.77809 12.6896L10.778 12.678L10.7664 11.6781ZM10.7467 9.99068L10.7351 8.99075L9.73514 9.00239L9.74679 10.0023L10.7467 9.99068ZM16.4736 9.92398L16.4853 10.9239L17.4852 10.9123L17.4735 9.91233L16.4736 9.92398ZM16.2058 8.88512L15.3403 9.38608L15.3403 9.38608L16.2058 8.88512ZM15.4881 8.18392L14.9928 9.05263L15.0001 9.05679L15.0074 9.06082L15.4881 8.18392ZM13.3472 8.23442L13.8682 9.08795L13.8716 9.08587L13.3472 8.23442ZM12.6146 9.00366L13.49 9.48711L13.4928 9.48207L12.6146 9.00366ZM12.3521 10.0615L11.352 10.0621L11.3521 10.0731L12.3521 10.0615ZM12.6539 12.9218L11.7669 13.3837L11.7714 13.3921L12.6539 12.9218ZM15.452 13.8673L15.1199 12.924L15.1199 12.924L15.452 13.8673ZM16.0931 13.4762L15.395 12.7602L15.395 12.7602L16.0931 13.4762ZM16.4948 12.8451L16.5491 11.8466L15.8102 11.8064L15.5558 12.5014L16.4948 12.8451ZM19.0151 12.9819L19.9958 13.1772L20.2211 12.046L19.0693 11.9834L19.0151 12.9819ZM18.2474 14.5762L17.488 13.9255L17.4876 13.926L18.2474 14.5762ZM16.7384 15.6422L17.1206 16.5663L17.1238 16.5649L16.7384 15.6422ZM14.5899 15.0379C13.7158 15.0481 13.0204 14.8798 12.4659 14.577L11.5072 16.3322C12.4196 16.8305 13.4675 17.0511 14.6132 17.0377L14.5899 15.0379ZM12.472 14.5803C11.9143 14.2707 11.4854 13.8348 11.1734 13.2513L9.40971 14.1943C9.89934 15.1101 10.6004 15.8287 11.5011 16.3289L12.472 14.5803ZM11.1745 13.2533C10.863 12.6675 10.6827 11.9364 10.6721 11.0271L8.67228 11.0504C8.68581 12.212 8.91844 13.2703 9.40863 14.1923L11.1745 13.2533ZM10.6721 11.0271C10.6619 10.1481 10.8234 9.42157 11.1239 8.81975L9.3346 7.92628C8.86884 8.85906 8.65899 9.90972 8.67228 11.0504L10.6721 11.0271ZM11.1239 8.81975C11.4266 8.21353 11.8456 7.75557 12.3876 7.42238L11.3402 5.71857C10.469 6.25418 9.79817 6.99791 9.3346 7.92628L11.1239 8.81975ZM12.3854 7.42375C12.92 7.09703 13.575 6.91137 14.3864 6.90192L14.3631 4.90205C13.2486 4.91503 12.2296 5.17504 11.3425 5.7172L12.3854 7.42375ZM14.3864 6.90192C14.9249 6.89564 15.4091 6.97644 15.8478 7.13474L16.5267 5.25347C15.8441 5.00718 15.12 4.89324 14.3631 4.90205L14.3864 6.90192ZM15.8565 7.13781C16.2877 7.28895 16.6563 7.51646 16.973 7.82263L18.3633 6.3849C17.8351 5.87415 17.2165 5.49522 16.518 5.2504L15.8565 7.13781ZM16.9766 7.82615C17.2843 8.12067 17.5424 8.50794 17.7381 9.01316L19.603 8.29055C19.3155 7.54847 18.9053 6.90369 18.3596 6.38138L16.9766 7.82615ZM17.739 9.01526C17.9272 9.49783 18.039 10.101 18.0477 10.8453L20.0475 10.822C20.0367 9.89608 19.8972 9.04465 19.6022 8.28845L17.739 9.01526ZM18.0477 10.8453L18.0564 11.5932L20.0562 11.5699L20.0475 10.822L18.0477 10.8453ZM19.0447 10.5816L10.7547 10.6781L10.778 12.678L19.0679 12.5814L19.0447 10.5816ZM11.7663 11.6664L11.7467 9.97903L9.74679 10.0023L9.76644 11.6897L11.7663 11.6664ZM10.7584 10.9906L16.4853 10.9239L16.462 8.92404L10.7351 8.99075L10.7584 10.9906ZM17.4735 9.91233C17.4672 9.37092 17.342 8.85192 17.0713 8.38416L15.3403 9.38608C15.4175 9.51943 15.4708 9.693 15.4737 9.93562L17.4735 9.91233ZM17.0713 8.38417C16.8058 7.9255 16.4335 7.56174 15.9687 7.30701L15.0074 9.06082C15.1517 9.13993 15.2579 9.24364 15.3403 9.38608L17.0713 8.38417ZM15.9834 7.31521C15.5073 7.04375 14.979 6.92769 14.4315 6.93406L14.4548 8.93393C14.6999 8.93107 14.8682 8.98162 14.9928 9.05263L15.9834 7.31521ZM14.4315 6.93406C13.8573 6.94075 13.3108 7.08234 12.8227 7.38298L13.8716 9.08587C14.0182 8.99557 14.2024 8.93687 14.4548 8.93393L14.4315 6.93406ZM12.8261 7.3809C12.3633 7.66342 11.9959 8.04911 11.7365 8.52525L13.4928 9.48207C13.5838 9.31488 13.7048 9.18775 13.8682 9.08795L12.8261 7.3809ZM11.7392 8.52022C11.4764 8.99612 11.3517 9.51716 11.3521 10.0621L13.3521 10.0608C13.3519 9.83018 13.4022 9.64601 13.49 9.4871L11.7392 8.52022ZM11.3521 10.0731L11.3708 11.6774L13.3707 11.6541L13.352 10.0498L11.3521 10.0731ZM11.3708 11.6774C11.3779 12.2852 11.4968 12.865 11.7669 13.3837L13.5408 12.4599C13.4447 12.2754 13.3749 12.0178 13.3707 11.6541L11.3708 11.6774ZM11.7714 13.3921C12.045 13.9056 12.4394 14.3177 12.9472 14.6029L13.9264 12.859C13.765 12.7683 13.6374 12.6411 13.5364 12.4515L11.7714 13.3921ZM12.9472 14.6029C13.4613 14.8915 14.036 15.0117 14.6342 15.0047L14.6109 13.0048C14.2973 13.0085 14.0815 12.9461 13.9264 12.859L12.9472 14.6029ZM14.6342 15.0047C15.0309 15.0001 15.4174 14.9396 15.784 14.8105L15.1199 12.924C14.9858 12.9712 14.8193 13.0024 14.6109 13.0048L14.6342 15.0047ZM15.784 14.8105C16.1612 14.6778 16.5025 14.4736 16.7911 14.1923L15.395 12.7602C15.3297 12.8239 15.2436 12.8804 15.1199 12.924L15.784 14.8105ZM16.7911 14.1923C17.0827 13.9081 17.2952 13.5677 17.4339 13.1888L15.5558 12.5014C15.5127 12.619 15.4575 12.6993 15.395 12.7602L16.7911 14.1923ZM16.4406 13.8436L18.9609 13.9805L19.0693 11.9834L16.5491 11.8466L16.4406 13.8436ZM18.0343 12.7866C17.946 13.2301 17.7641 13.6034 17.488 13.9255L19.0067 15.2269C19.5127 14.6364 19.8425 13.947 19.9958 13.1772L18.0343 12.7866ZM17.4876 13.926C17.2149 14.2447 16.8464 14.5133 16.3529 14.7194L17.1238 16.5649C17.8687 16.2537 18.5062 15.8117 19.0071 15.2264L17.4876 13.926ZM16.3562 14.7181C15.8812 14.9145 15.299 15.0296 14.5899 15.0379L14.6132 17.0377C15.5232 17.0271 16.3656 16.8785 17.1206 16.5663L16.3562 14.7181ZM28.609 8.66395L28.682 9.66128L29.7516 9.58294L29.5988 8.52147L28.609 8.66395ZM26.118 8.84638L25.1398 9.0539L25.3209 9.90744L26.1911 9.84371L26.118 8.84638ZM25.8365 8.27434L25.0648 8.91042L25.0726 8.91966L25.8365 8.27434ZM25.2756 7.86536L24.8595 8.7747L24.8698 8.77938L24.8801 8.78384L25.2756 7.86536ZM23.3977 7.9959L23.924 8.84626L23.9331 8.84052L23.3977 7.9959ZM23.2594 9.29519L22.6147 10.0596L22.6147 10.0596L23.2594 9.29519ZM24.2291 9.67383L24.0304 10.654L24.0431 10.6564L24.2291 9.67383ZM26.0102 10.0111L26.1999 9.02923L26.1962 9.02853L26.0102 10.0111ZM28.156 10.9322L27.4846 11.6733L27.4846 11.6733L28.156 10.9322ZM28.3299 14.3373L27.5345 13.7312L27.5312 13.7355L28.3299 14.3373ZM26.7964 15.4931L27.1879 16.4132L27.1908 16.4119L26.7964 15.4931ZM21.429 15.1464L20.859 15.9681L20.8642 15.9717L21.429 15.1464ZM20.0545 12.9379L19.9904 11.9399L18.9011 12.0099L19.066 13.0889L20.0545 12.9379ZM22.7309 12.7661L23.7083 12.5545L23.5261 11.713L22.6669 11.7681L22.7309 12.7661ZM23.3295 13.6668L22.7819 14.5036L22.7899 14.5087L23.3295 13.6668ZM25.6756 13.6715L26.2199 14.5104L26.2231 14.5083L25.6756 13.6715ZM26.1146 12.944L27.1146 12.9468L27.1147 12.931L27.1142 12.9151L26.1146 12.944ZM25.7944 12.3404L25.1828 13.1317L25.1931 13.1395L25.7944 12.3404ZM24.8441 11.9807L25.0288 10.9979L25.0281 10.9978L24.8441 11.9807ZM23.14 11.6618L22.9553 12.6446L22.956 12.6447L23.14 11.6618ZM20.9872 10.6896L20.2819 11.3986L20.2851 11.4018L20.9872 10.6896ZM20.7618 7.25311L19.9575 6.65886L19.954 6.66368L20.7618 7.25311ZM22.2004 6.1816L21.8225 5.25572L21.8204 5.25661L22.2004 6.1816ZM27.3313 6.53735L26.7477 7.34938L26.75 7.35104L27.3313 6.53735ZM28.5359 7.66662L26.045 7.84905L26.1911 9.84371L28.682 9.66128L28.5359 7.66662ZM27.0963 8.63886C27.0163 8.26209 26.8476 7.92161 26.6004 7.62901L25.0726 8.91966C25.1106 8.96467 25.1296 9.00556 25.1398 9.0539L27.0963 8.63886ZM26.6082 7.6383C26.3525 7.32812 26.0303 7.10155 25.6711 6.94688L24.8801 8.78384C24.9835 8.82834 25.0352 8.87442 25.0649 8.91038L26.6082 7.6383ZM25.6917 6.95602C25.3 6.77682 24.8756 6.71014 24.4504 6.71509L24.4736 8.71496C24.6791 8.71256 24.797 8.7461 24.8595 8.7747L25.6917 6.95602ZM24.4504 6.71509C23.8871 6.72165 23.3403 6.84832 22.8624 7.15128L23.9331 8.84052C24.0305 8.77881 24.1932 8.71822 24.4736 8.71496L24.4504 6.71509ZM22.8714 7.14559C22.339 7.47513 21.9632 8.01275 21.9714 8.71569L23.9712 8.6924C23.9713 8.70171 23.9703 8.72133 23.9634 8.74758C23.9564 8.77427 23.9454 8.80004 23.932 8.82238C23.9045 8.86808 23.885 8.87038 23.924 8.84621L22.8714 7.14559ZM21.9714 8.71569C21.9777 9.259 22.2176 9.72462 22.6147 10.0596L23.9042 8.5308C23.9022 8.52909 23.9238 8.54736 23.9443 8.58943C23.9655 8.63293 23.971 8.67211 23.9712 8.6924L21.9714 8.71569ZM22.6147 10.0596C23.0018 10.3861 23.5302 10.5525 24.0304 10.6539L24.4279 8.69378C24.2378 8.65524 24.1011 8.61465 24.0076 8.57815C23.9105 8.54023 23.8888 8.51785 23.9042 8.5308L22.6147 10.0596ZM24.0431 10.6564L25.8241 10.9936L26.1962 9.02853L24.4152 8.69129L24.0431 10.6564ZM25.8204 10.9929C26.6846 11.1599 27.1997 11.4152 27.4846 11.6733L28.8273 10.191C28.1647 9.59081 27.2492 9.23201 26.1999 9.02923L25.8204 10.9929ZM27.4846 11.6733C27.7289 11.8946 27.8737 12.1866 27.8791 12.6486L29.8789 12.6253C29.8678 11.6726 29.5306 10.8281 28.8273 10.191L27.4846 11.6733ZM27.8791 12.6486C27.8841 13.0796 27.7667 13.4266 27.5345 13.7312L29.1252 14.9435C29.6402 14.2677 29.8889 13.4811 29.8789 12.6253L27.8791 12.6486ZM27.5312 13.7355C27.2823 14.0659 26.9204 14.3515 26.4019 14.5742L27.1908 16.4119C27.9783 16.0739 28.6388 15.589 29.1285 14.9391L27.5312 13.7355ZM26.4049 14.5729C25.8985 14.7883 25.2814 14.9134 24.5332 14.9221L24.5565 16.9219C25.5127 16.9108 26.3966 16.7499 27.1878 16.4132L26.4049 14.5729ZM24.5332 14.9221C23.3631 14.9357 22.5483 14.7007 21.9938 14.3212L20.8642 15.9717C21.8648 16.6565 23.1272 16.9386 24.5565 16.9219L24.5332 14.9221ZM21.999 14.3248C21.4529 13.9459 21.1448 13.453 21.043 12.7868L19.066 13.0889C19.2502 14.2945 19.8585 15.274 20.859 15.9681L21.999 14.3248ZM20.1186 13.9358L22.795 13.764L22.6669 11.7681L19.9904 11.9399L20.1186 13.9358ZM21.7536 12.9776C21.8899 13.6072 22.2301 14.1424 22.7819 14.5036L23.8772 12.8301C23.802 12.7809 23.7432 12.7156 23.7083 12.5545L21.7536 12.9776ZM22.7899 14.5087C23.311 14.8427 23.9177 14.9669 24.54 14.9596L24.5167 12.9598C24.1675 12.9638 23.9749 12.8927 23.8692 12.8249L22.7899 14.5087ZM24.54 14.9596C25.1352 14.9527 25.7228 14.8329 26.2199 14.5104L25.1314 12.8326C25.0532 12.8833 24.876 12.9556 24.5167 12.9598L24.54 14.9596ZM26.2231 14.5083C26.7359 14.1728 27.1126 13.6437 27.1146 12.9468L25.1146 12.9412C25.1147 12.9313 25.1161 12.9133 25.1223 12.8904C25.1287 12.8672 25.138 12.8464 25.1481 12.8297C25.1683 12.7962 25.1769 12.8027 25.1282 12.8346L26.2231 14.5083ZM27.1142 12.9151C27.0978 12.3487 26.8324 11.87 26.3956 11.5414L25.1931 13.1395C25.1949 13.1409 25.1698 13.1217 25.1459 13.0765C25.1212 13.03 25.1155 12.9896 25.1151 12.9729L27.1142 12.9151ZM26.4059 11.5492C26.0174 11.2489 25.5204 11.0903 25.0288 10.998L24.6594 12.9635C25.022 13.0317 25.1585 13.1129 25.1828 13.1317L26.4059 11.5492ZM25.0281 10.9978L23.324 10.6789L22.956 12.6447L24.6601 12.9637L25.0281 10.9978ZM23.3247 10.679C22.4725 10.5189 21.9698 10.2541 21.6892 9.97752L20.2851 11.4018C20.953 12.0602 21.8855 12.4436 22.9553 12.6446L23.3247 10.679ZM21.6925 9.98073C21.4287 9.71831 21.2752 9.37842 21.2694 8.87729L19.2695 8.90058C19.2807 9.86526 19.6057 10.7258 20.2819 11.3986L21.6925 9.98073ZM21.2694 8.87729C21.2642 8.43799 21.375 8.10928 21.5696 7.84255L19.954 6.66368C19.4774 7.31676 19.2599 8.07859 19.2695 8.90058L21.2694 8.87729ZM21.5661 7.84736C21.78 7.55782 22.1009 7.30355 22.5804 7.10659L21.8204 5.25661C21.0614 5.56842 20.4232 6.0285 19.9575 6.65887L21.5661 7.84736ZM22.5782 7.10747C23.0606 6.91062 23.6627 6.79387 24.4064 6.78521L24.3831 4.78535C23.4479 4.79624 22.5872 4.9437 21.8226 5.25573L22.5782 7.10747ZM24.4064 6.78521C25.5167 6.77228 26.2607 6.99939 26.7477 7.34938L27.9149 5.72532C26.9665 5.04367 25.7528 4.76939 24.3831 4.78535L24.4064 6.78521ZM26.75 7.35104C27.2432 7.70341 27.5271 8.16634 27.6192 8.80642L29.5988 8.52147C29.4313 7.35764 28.8633 6.40283 27.9126 5.72366L26.75 7.35104ZM38.3557 8.55042L38.4288 9.54775L39.4983 9.46942L39.3455 8.40795L38.3557 8.55042ZM35.8648 8.73286L34.8866 8.94038L35.0676 9.79392L35.9378 9.73018L35.8648 8.73286ZM35.5833 8.16081L34.8116 8.7969L34.8194 8.80614L35.5833 8.16081ZM35.0224 7.75183L34.6063 8.66117L34.6165 8.66586L34.6269 8.67031L35.0224 7.75183ZM33.1445 7.88238L33.6708 8.73274L33.6799 8.727L33.1445 7.88238ZM33.0062 9.18166L32.3614 9.94605L32.3614 9.94605L33.0062 9.18166ZM33.9759 9.56031L33.7771 10.5404L33.7898 10.5429L33.9759 9.56031ZM35.7569 9.89754L35.9467 8.9157L35.943 8.915L35.7569 9.89754ZM37.9027 10.8186L37.2314 11.5598L37.2314 11.5598L37.9027 10.8186ZM38.0766 14.2238L37.2813 13.6176L37.278 13.622L38.0766 14.2238ZM36.5431 15.3795L36.9346 16.2997L36.9376 16.2984L36.5431 15.3795ZM31.1758 15.0329L30.6058 15.8546L30.611 15.8582L31.1758 15.0329ZM29.8013 12.8243L29.7372 11.8264L28.6478 11.8963L28.8127 12.9754L29.8013 12.8243ZM32.4777 12.6525L33.4551 12.441L33.2729 11.5994L32.4136 11.6546L32.4777 12.6525ZM33.0763 13.5533L32.5287 14.3901L32.5367 14.3952L33.0763 13.5533ZM35.4224 13.5579L35.9667 14.3969L35.9698 14.3948L35.4224 13.5579ZM35.8614 12.8305L36.8614 12.8333L36.8614 12.8175L36.861 12.8016L35.8614 12.8305ZM35.5411 12.2269L34.9296 13.0182L34.9399 13.026L35.5411 12.2269ZM34.5909 11.8672L34.7755 10.8844L34.7748 10.8843L34.5909 11.8672ZM32.8867 11.5483L32.7021 12.5311L32.7028 12.5312L32.8867 11.5483ZM30.7339 10.5761L30.0286 11.285L30.0319 11.2882L30.7339 10.5761ZM30.5085 7.13959L29.7042 6.54534L29.7007 6.55016L30.5085 7.13959ZM31.9471 6.06808L31.5693 5.1422L31.5671 5.14309L31.9471 6.06808ZM37.0781 6.42382L36.4944 7.23586L36.4968 7.23751L37.0781 6.42382ZM38.2827 7.55309L35.7918 7.73553L35.9378 9.73018L38.4288 9.54775L38.2827 7.55309ZM36.843 8.52533C36.7631 8.14857 36.5944 7.80808 36.3472 7.51549L34.8194 8.80614C34.8574 8.85115 34.8763 8.89203 34.8866 8.94038L36.843 8.52533ZM36.3549 7.52477C36.0993 7.2146 35.777 6.98802 35.4178 6.83335L34.6269 8.67031C34.7303 8.71482 34.782 8.76089 34.8116 8.79685L36.3549 7.52477ZM35.4384 6.84249C35.0468 6.6633 34.6223 6.59661 34.1971 6.60157L34.2204 8.60143C34.4258 8.59904 34.5438 8.63258 34.6063 8.66117L35.4384 6.84249ZM34.1971 6.60157C33.6338 6.60813 33.0871 6.73479 32.6091 7.03776L33.6799 8.727C33.7772 8.66529 33.94 8.6047 34.2204 8.60143L34.1971 6.60157ZM32.6182 7.03207C32.0858 7.36161 31.7099 7.89923 31.7181 8.60216L33.718 8.57887C33.7181 8.58819 33.7171 8.60781 33.7102 8.63406C33.7032 8.66075 33.6922 8.68652 33.6788 8.70885C33.6512 8.75456 33.6317 8.75686 33.6708 8.73269L32.6182 7.03207ZM31.7181 8.60216C31.7244 9.14548 31.9643 9.61109 32.3614 9.94605L33.651 8.41728C33.6489 8.41556 33.6705 8.43384 33.691 8.47591C33.7122 8.5194 33.7177 8.55859 33.718 8.57887L31.7181 8.60216ZM32.3614 9.94605C32.7486 10.2726 33.277 10.4389 33.7771 10.5404L34.1746 8.58026C33.9845 8.54171 33.8479 8.50113 33.7544 8.46463C33.6573 8.42671 33.6356 8.40432 33.651 8.41728L32.3614 9.94605ZM33.7898 10.5429L35.5709 10.8801L35.943 8.915L34.1619 8.57777L33.7898 10.5429ZM35.5672 10.8794C36.4314 11.0464 36.9464 11.3016 37.2314 11.5598L38.5741 10.0775C37.9115 9.47729 36.996 9.11849 35.9467 8.91571L35.5672 10.8794ZM37.2314 11.5598C37.4757 11.7811 37.6204 12.0731 37.6258 12.535L39.6257 12.5118C39.6146 11.559 39.2773 10.7145 38.5741 10.0775L37.2314 11.5598ZM37.6258 12.535C37.6308 12.9661 37.5134 13.3131 37.2813 13.6176L38.872 14.83C39.387 14.1542 39.6357 13.3676 39.6257 12.5118L37.6258 12.535ZM37.278 13.622C37.029 13.9524 36.6672 14.238 36.1486 14.4606L36.9376 16.2984C37.7251 15.9603 38.3856 15.4755 38.8753 14.8256L37.278 13.622ZM36.1516 14.4593C35.6453 14.6748 35.0281 14.7998 34.2799 14.8085L34.3032 16.8084C35.2594 16.7973 36.1433 16.6364 36.9346 16.2997L36.1516 14.4593ZM34.2799 14.8085C33.1099 14.8222 32.2951 14.5872 31.7406 14.2077L30.611 15.8582C31.6116 16.543 32.874 16.8251 34.3032 16.8084L34.2799 14.8085ZM31.7458 14.2113C31.1996 13.8324 30.8916 13.3395 30.7898 12.6733L28.8127 12.9754C28.997 14.181 29.6053 15.1605 30.6058 15.8546L31.7458 14.2113ZM29.8653 13.8223L32.5418 13.6505L32.4136 11.6546L29.7372 11.8264L29.8653 13.8223ZM31.5003 12.8641C31.6366 13.4937 31.9768 14.0289 32.5287 14.39L33.6239 12.7166C33.5488 12.6674 33.4899 12.6021 33.4551 12.441L31.5003 12.8641ZM32.5367 14.3952C33.0578 14.7292 33.6644 14.8534 34.2868 14.8461L34.2635 12.8462C33.9143 12.8503 33.7217 12.7792 33.6159 12.7114L32.5367 14.3952ZM34.2868 14.8461C34.882 14.8392 35.4696 14.7193 35.9667 14.3968L34.8781 12.719C34.7999 12.7698 34.6227 12.8421 34.2635 12.8462L34.2868 14.8461ZM35.9698 14.3948C36.4827 14.0593 36.8594 13.5302 36.8614 12.8333L34.8614 12.8276C34.8614 12.8178 34.8628 12.7998 34.8691 12.7768C34.8755 12.7537 34.8848 12.7328 34.8948 12.7162C34.9151 12.6827 34.9237 12.6892 34.8749 12.7211L35.9698 14.3948ZM36.861 12.8016C36.8446 12.2352 36.5791 11.7565 36.1424 11.4279L34.9399 13.026C34.9417 13.0273 34.9166 13.0082 34.8926 12.963C34.868 12.9165 34.8623 12.8761 34.8618 12.8594L36.861 12.8016ZM36.1527 11.4357C35.7641 11.1354 35.2671 10.9768 34.7755 10.8844L34.4062 12.85C34.7688 12.9182 34.9053 12.9993 34.9296 13.0181L36.1527 11.4357ZM34.7748 10.8843L33.0707 10.5653L32.7028 12.5312L34.4069 12.8502L34.7748 10.8843ZM33.0714 10.5655C32.2193 10.4053 31.7166 10.1406 31.436 9.86399L30.0319 11.2882C30.6998 11.9467 31.6323 12.33 32.7021 12.5311L33.0714 10.5655ZM31.4392 9.86721C31.1755 9.60478 31.022 9.26489 31.0161 8.76376L29.0163 8.78705C29.0275 9.75173 29.3525 10.6123 30.0286 11.285L31.4392 9.86721ZM31.0161 8.76376C31.011 8.32447 31.1217 7.99575 31.3163 7.72902L29.7007 6.55016C29.2242 7.20324 29.0067 7.96507 29.0163 8.78705L31.0161 8.76376ZM31.3128 7.73383C31.5267 7.44429 31.8477 7.19003 32.3271 6.99306L31.5671 5.14309C30.8081 5.4549 30.17 5.91498 29.7042 6.54535L31.3128 7.73383ZM32.325 6.99395C32.8074 6.7971 33.4095 6.68035 34.1532 6.67169L34.1299 4.67182C33.1947 4.68271 32.3339 4.83018 31.5693 5.1422L32.325 6.99395ZM34.1532 6.67169C35.2634 6.65875 36.0075 6.88586 36.4944 7.23585L37.6617 5.6118C36.7132 4.93014 35.4996 4.65587 34.1299 4.67182L34.1532 6.67169ZM36.4968 7.23751C36.99 7.58989 37.2738 8.05281 37.366 8.6929L39.3455 8.40795C39.178 7.24412 38.61 6.28931 37.6594 5.61014L36.4968 7.23751ZM48.9291 5.62737L49.9291 5.61572L49.9174 4.61579L48.9175 4.62743L48.9291 5.62737ZM48.9529 7.67268L48.9646 8.67261L49.9645 8.66097L49.9529 7.66103L48.9529 7.67268ZM43.0407 7.74154L42.0408 7.75319L42.0524 8.75312L43.0524 8.74148L43.0407 7.74154ZM43.0169 5.69623L43.0052 4.6963L42.0053 4.70794L42.017 5.70787L43.0169 5.69623ZM44.3317 3.32848L44.3201 2.32855L43.3202 2.3402L43.3318 3.34013L44.3317 3.32848ZM47.0546 3.29677L48.0545 3.28512L48.0428 2.28519L47.0429 2.29683L47.0546 3.29677ZM47.2831 13.0362L46.4107 13.5253L46.4173 13.5366L47.2831 13.0362ZM47.606 13.3201L47.2404 14.251L47.2503 14.2548L47.606 13.3201ZM48.4758 13.3612L48.6517 14.3456L48.6676 14.3427L48.6834 14.3394L48.4758 13.3612ZM48.7692 13.3002L49.7451 13.082L49.5319 12.1283L48.5735 12.3195L48.7692 13.3002ZM49.221 15.3214L49.5304 16.2723L50.3954 15.9909L50.1969 15.1032L49.221 15.3214ZM48.6475 15.4751L48.4174 14.5019L48.4095 14.5038L48.4015 14.5058L48.6475 15.4751ZM47.7475 15.5942L47.6998 14.5954L47.697 14.5955L47.7475 15.5942ZM46.0188 15.3523L45.6512 16.2823L45.6541 16.2834L46.0188 15.3523ZM44.8638 14.4324L45.6972 13.8798L45.6972 13.8798L44.8638 14.4324ZM44.4425 12.8392L45.4425 12.8342L45.4424 12.8276L44.4425 12.8392ZM47.9292 5.63901L47.953 7.68433L49.9529 7.66103L49.9291 5.61572L47.9292 5.63901ZM48.9413 6.67275L43.0291 6.74161L43.0524 8.74148L48.9646 8.67261L48.9413 6.67275ZM44.0406 7.7299L44.0168 5.68458L42.017 5.70787L42.0408 7.75319L44.0406 7.7299ZM43.0285 6.69616L48.9408 6.6273L48.9175 4.62743L43.0052 4.6963L43.0285 6.69616ZM44.3434 4.32841L47.0662 4.2967L47.0429 2.29683L44.3201 2.32855L44.3434 4.32841ZM46.0546 3.30841L46.1612 12.4612L48.1611 12.4379L48.0545 3.28512L46.0546 3.30841ZM46.1612 12.4612C46.1651 12.7937 46.2169 13.1794 46.4108 13.5253L48.1553 12.5472C48.1767 12.5854 48.1773 12.6026 48.1729 12.5814C48.1686 12.5604 48.162 12.5149 48.1611 12.4379L46.1612 12.4612ZM46.4173 13.5366C46.6011 13.8548 46.879 14.109 47.2404 14.2509L47.9716 12.3894C48.008 12.4037 48.0472 12.4265 48.0828 12.4578C48.1178 12.4886 48.1386 12.518 48.1489 12.5359L46.4173 13.5366ZM47.2503 14.2548C47.5308 14.3615 47.8216 14.4008 48.1044 14.3975L48.0811 12.3976C47.9974 12.3986 47.9637 12.3863 47.9617 12.3855L47.2503 14.2548ZM48.1044 14.3975C48.288 14.3954 48.4707 14.3779 48.6517 14.3456L48.3 12.3767C48.2259 12.39 48.1531 12.3968 48.0811 12.3976L48.1044 14.3975ZM48.6834 14.3394C48.8097 14.3126 48.9029 14.2932 48.9649 14.2809L48.5735 12.3195C48.4995 12.3343 48.397 12.3556 48.2683 12.3829L48.6834 14.3394ZM47.7933 13.5184L48.2451 15.5395L50.1969 15.1032L49.7451 13.082L47.7933 13.5184ZM48.9117 14.3704C48.8145 14.402 48.6542 14.4459 48.4174 14.5019L48.8776 16.4482C49.1338 16.3877 49.3559 16.3291 49.5304 16.2723L48.9117 14.3704ZM48.4015 14.5058C48.2397 14.5469 48.0103 14.5805 47.6998 14.5954L47.7953 16.5931C48.1918 16.5741 48.5624 16.5283 48.8934 16.4443L48.4015 14.5058ZM47.697 14.5955C47.1508 14.6232 46.7212 14.5534 46.3835 14.4211L45.6541 16.2834C46.3096 16.5401 47.0325 16.6317 47.7981 16.5929L47.697 14.5955ZM46.3863 14.4222C46.0733 14.2986 45.8555 14.1185 45.6972 13.8798L44.0304 14.9851C44.4273 15.5837 44.9795 16.0168 45.6512 16.2823L46.3863 14.4222ZM45.6972 13.8798C45.5538 13.6635 45.445 13.3371 45.4425 12.8342L43.4425 12.8442C43.4465 13.6283 43.6185 14.364 44.0304 14.9851L45.6972 13.8798ZM45.4424 12.8276L45.3317 3.31683L43.3318 3.34013L43.4426 12.8508L45.4424 12.8276ZM53.3248 9.71849L52.3248 9.72004L52.3249 9.73014L53.3248 9.71849ZM53.3909 15.3942L53.4026 16.3942L54.4025 16.3825L54.3909 15.3826L53.3909 15.3942ZM50.6681 15.426L49.6682 15.4376L49.6798 16.4375L50.6797 16.4259L50.6681 15.426ZM50.5156 2.33594L50.504 1.33601L49.5041 1.34765L49.5157 2.34758L50.5156 2.33594ZM53.1618 2.30512L54.1617 2.29347L54.15 1.29354L53.1501 1.30518L53.1618 2.30512ZM53.22 7.30975L52.2201 7.3214L52.2318 8.32133L53.2317 8.30968L53.22 7.30975ZM53.3351 7.30841L53.3467 8.30834L54.0349 8.30033L54.2732 7.65464L53.3351 7.30841ZM54.393 5.93449L54.9557 6.76116L54.9607 6.75778L54.393 5.93449ZM58.0357 5.84092L57.5387 6.70875L57.5473 6.71358L58.0357 5.84092ZM59.2393 7.09901L58.3529 7.56207L58.3573 7.57023L59.2393 7.09901ZM59.6842 9.0691L58.6842 9.07519L58.6842 9.08075L59.6842 9.0691ZM59.757 15.3201L59.7686 16.32L60.7685 16.3084L60.7569 15.3085L59.757 15.3201ZM57.0341 15.3518L56.0342 15.3635L56.0459 16.3634L57.0458 16.3517L57.0341 15.3518ZM56.967 9.58658L55.967 9.59118L55.9671 9.59822L56.967 9.58658ZM56.4903 8.17939L55.7591 8.86157L55.7638 8.86656L56.4903 8.17939ZM54.2118 7.93745L53.7182 7.06773L53.7127 7.07092L54.2118 7.93745ZM53.5551 8.63548L52.668 8.1739L52.6656 8.1785L53.5551 8.63548ZM52.3249 9.73014L52.391 15.4059L54.3909 15.3826L54.3247 9.70685L52.3249 9.73014ZM53.3793 14.3943L50.6564 14.426L50.6797 16.4259L53.4026 16.3942L53.3793 14.3943ZM51.668 15.4143L51.5156 2.32429L49.5157 2.34758L49.6682 15.4376L51.668 15.4143ZM50.5273 3.33587L53.1734 3.30505L53.1501 1.30518L50.504 1.33601L50.5273 3.33587ZM52.1618 2.31676L52.2201 7.3214L54.22 7.2981L54.1617 2.29347L52.1618 2.31676ZM53.2317 8.30968L53.3467 8.30834L53.3235 6.30848L53.2084 6.30982L53.2317 8.30968ZM54.2732 7.65464C54.4195 7.25836 54.6456 6.97227 54.9557 6.76114L53.8303 5.10783C53.1596 5.56442 52.6804 6.19428 52.3969 6.96217L54.2732 7.65464ZM54.9607 6.75778C55.2505 6.55795 55.6617 6.42117 56.2588 6.41421L56.2355 4.41435C55.3413 4.42476 54.5164 4.63478 53.8254 5.1112L54.9607 6.75778ZM56.2588 6.41421C56.791 6.40801 57.206 6.51819 57.5387 6.7087L58.5326 4.97314C57.8442 4.57892 57.0669 4.40466 56.2355 4.41435L56.2588 6.41421ZM57.5473 6.71358C57.8831 6.90151 58.1503 7.17406 58.353 7.56205L60.1256 6.63596C59.753 5.92263 59.2177 5.35645 58.524 4.96827L57.5473 6.71358ZM58.3573 7.57023C58.5566 7.94324 58.6803 8.43242 58.6842 9.07519L60.6841 9.06301C60.6787 8.1717 60.5058 7.34748 60.1213 6.62778L58.3573 7.57023ZM58.6842 9.08075L58.757 15.3317L60.7569 15.3085L60.6841 9.05745L58.6842 9.08075ZM59.7453 14.3202L57.0225 14.3519L57.0458 16.3517L59.7686 16.32L59.7453 14.3202ZM58.0341 15.3402L57.9669 9.57493L55.9671 9.59822L56.0342 15.3635L58.0341 15.3402ZM57.967 9.58197C57.9634 8.80634 57.7563 8.06258 57.2168 7.49222L55.7638 8.86656C55.8543 8.9622 55.965 9.15657 55.967 9.59118L57.967 9.58197ZM57.2215 7.49722C56.6782 6.91484 55.9511 6.6806 55.1817 6.68956L55.205 8.68942C55.5435 8.68548 55.681 8.77784 55.7591 8.86156L57.2215 7.49722ZM55.1817 6.68956C54.6654 6.69557 54.168 6.81246 53.7182 7.06775L54.7054 8.80714C54.8229 8.74046 54.9799 8.69205 55.205 8.68942L55.1817 6.68956ZM53.7127 7.07092C53.2572 7.33328 52.9085 7.71165 52.668 8.17391L54.4422 9.09706C54.5185 8.95047 54.6076 8.86348 54.7109 8.80397L53.7127 7.07092ZM52.6656 8.1785C52.4226 8.65157 52.324 9.17777 52.3248 9.72004L54.3248 9.71695C54.3243 9.41542 54.3793 9.21962 54.4446 9.09246L52.6656 8.1785ZM62.6631 15.1456L62.2617 16.0616L62.2683 16.0644L62.6631 15.1456ZM61.4884 14.1812L60.6552 14.7343L60.6616 14.7437L61.4884 14.1812ZM61.332 11.185L60.4467 10.72L60.4467 10.72L61.332 11.185ZM62.1397 10.2806L61.5825 9.45029L61.5825 9.45029L62.1397 10.2806ZM63.3099 9.75561L63.0473 8.79069L63.045 8.79131L63.3099 9.75561ZM64.7004 9.4965L64.808 10.4907L64.8159 10.4898L64.7004 9.4965ZM66.079 9.31424L66.2354 10.302L66.2471 10.3L66.079 9.31424ZM66.8368 9.0625L66.2673 8.24049L66.2673 8.24049L66.8368 9.0625ZM66.6729 7.61332L66.0205 8.3712L66.0268 8.37658L66.6729 7.61332ZM64.4294 7.63306L65.0311 8.43179L65.0387 8.42601L64.4294 7.63306ZM63.8635 8.4451L63.7942 9.44269L64.6092 9.49934L64.8273 8.71195L63.8635 8.4451ZM61.3428 8.2699L60.3627 8.07177L60.1369 9.1885L61.2735 9.26749L61.3428 8.2699ZM62.079 6.71434L62.8438 7.35872L62.8468 7.35502L62.079 6.71434ZM63.5182 5.68757L63.8969 6.61308L63.9003 6.61166L63.5182 5.68757ZM67.1531 5.47903L66.916 6.45052L66.918 6.451L67.1531 5.47903ZM68.4958 6.05789L67.9362 6.88667L67.9405 6.8895L68.4958 6.05789ZM69.4347 7.08254L68.5586 7.56475L68.5607 7.56845L69.4347 7.08254ZM69.868 15.2023L69.8797 16.2023L70.8796 16.1906L70.868 15.1907L69.868 15.2023ZM67.2858 15.2324L66.2859 15.2441L66.2976 16.244L67.2975 16.2323L67.2858 15.2324ZM67.27 13.871L68.2699 13.8593L68.2583 12.8594L67.2583 12.8711L67.27 13.871ZM67.1933 13.8719L67.1816 12.872L66.5713 12.8791L66.2986 13.4252L67.1933 13.8719ZM66.57 14.691L67.2355 15.4374L67.2422 15.4313L66.57 14.691ZM65.6239 15.2454L65.9609 16.1869L65.9705 16.1834L65.6239 15.2454ZM66.1576 13.315L66.625 14.1991L66.6346 14.1939L66.1576 13.315ZM66.8723 12.6547L66.024 12.1251L66.024 12.1251L66.8723 12.6547ZM67.1114 10.683L68.1113 10.6713L68.0899 8.82879L66.5567 9.85095L67.1114 10.683ZM66.7616 10.8405L67.055 11.7965L67.0638 11.7938L67.0726 11.7909L66.7616 10.8405ZM66.2709 10.9677L66.4652 11.9486L66.4762 11.9464L66.4871 11.944L66.2709 10.9677ZM65.7223 11.0699L65.8721 12.0587L65.8833 12.057L65.8945 12.055L65.7223 11.0699ZM65.2246 11.146L65.0717 10.1578L65.068 10.1584L65.2246 11.146ZM64.3899 11.3795L64.7945 12.294L64.7945 12.294L64.3899 11.3795ZM63.8387 11.8014L64.6362 12.4048L64.6433 12.3952L63.8387 11.8014ZM64.0606 13.2883L63.4803 14.1027L63.4876 14.1079L63.495 14.113L64.0606 13.2883ZM64.3298 14.4521C63.8198 14.4581 63.4022 14.3748 63.0578 14.2268L62.2683 16.0644C62.909 16.3397 63.6104 16.4607 64.3531 16.452L64.3298 14.4521ZM63.0644 14.2297C62.7366 14.086 62.4955 13.8837 62.3152 13.6188L60.6616 14.7437C61.0623 15.3328 61.6043 15.7735 62.2617 16.0615L63.0644 14.2297ZM62.3216 13.6283C62.1658 13.3935 62.0534 13.0543 62.0476 12.551L60.0477 12.5743C60.0569 13.3664 60.2384 14.1063 60.6552 14.7342L62.3216 13.6283ZM62.0476 12.551C62.0426 12.1241 62.118 11.8392 62.2173 11.65L60.4467 10.72C60.1542 11.2769 60.04 11.9104 60.0477 12.5743L62.0476 12.551ZM62.2173 11.65C62.3377 11.4208 62.4955 11.2462 62.697 11.111L61.5825 9.45029C61.0989 9.77482 60.7183 10.2031 60.4467 10.72L62.2173 11.65ZM62.697 11.111C62.9414 10.947 63.2308 10.8143 63.5747 10.7199L63.045 8.79131C62.5138 8.93721 62.0231 9.15459 61.5825 9.45029L62.697 11.111ZM63.5724 10.7205C63.9602 10.615 64.3717 10.5379 64.808 10.4907L64.5928 8.50231C64.0586 8.56014 63.5431 8.65579 63.0473 8.79069L63.5724 10.7205ZM64.8159 10.4898C65.3925 10.4228 65.8673 10.3602 66.2354 10.3019L65.9227 8.32653C65.5932 8.37869 65.1488 8.43763 64.5849 8.50319L64.8159 10.4898ZM66.2471 10.3C66.637 10.2335 67.0661 10.1202 67.4063 9.88451L66.2673 8.24049C66.2916 8.22368 66.2838 8.23479 66.2148 8.25771C66.1492 8.27948 66.0506 8.30466 65.911 8.32847L66.2471 10.3ZM67.4063 9.88451C67.8656 9.5663 68.0736 9.07798 68.0677 8.57512L66.0679 8.59841C66.0676 8.57604 66.0716 8.50942 66.1123 8.42553C66.1548 8.33797 66.2158 8.27619 66.2673 8.24049L67.4063 9.88451ZM68.0677 8.57512L68.0673 8.53677L66.0674 8.56006L66.0679 8.59841L68.0677 8.57512ZM68.0673 8.53677C68.0599 7.90447 67.8422 7.29295 67.319 6.85005L66.0268 8.37658C66.036 8.38439 66.0392 8.38863 66.0438 8.3997C66.0503 8.41515 66.0663 8.4623 66.0674 8.56006L68.0673 8.53677ZM67.3253 6.85546C66.8263 6.42583 66.1975 6.28638 65.5836 6.29353L65.6069 8.29339C65.9219 8.28972 66.0116 8.36351 66.0205 8.37118L67.3253 6.85546ZM65.5836 6.29353C64.9527 6.30088 64.3304 6.44802 63.8201 6.8401L65.0387 8.42601C65.1028 8.37671 65.2578 8.29746 65.6069 8.29339L65.5836 6.29353ZM63.8276 6.83436C63.377 7.1739 63.0526 7.62634 62.8998 8.17825L64.8273 8.71195C64.8544 8.61399 64.9073 8.52507 65.0311 8.43175L63.8276 6.83436ZM63.9329 7.44751L61.4122 7.27231L61.2735 9.26749L63.7942 9.44269L63.9329 7.44751ZM62.323 8.46803C62.4128 8.02379 62.5888 7.66132 62.8437 7.35872L61.3143 6.06997C60.8295 6.64536 60.5146 7.31993 60.3627 8.07177L62.323 8.46803ZM62.8468 7.35502C63.1017 7.04959 63.4424 6.79906 63.8969 6.61308L63.1394 4.76206C62.4148 5.05859 61.7961 5.49258 61.3112 6.07367L62.8468 7.35502ZM63.9003 6.61166C64.3538 6.42413 64.9125 6.31342 65.5965 6.30545L65.5732 4.30559C64.6892 4.31588 63.8701 4.45987 63.136 4.76348L63.9003 6.61166ZM65.5965 6.30545C66.0632 6.30002 66.502 6.34951 66.916 6.45052L67.3901 4.50754C66.804 4.3645 66.1974 4.29832 65.5732 4.30559L65.5965 6.30545ZM66.918 6.451C67.318 6.54776 67.6535 6.69577 67.9362 6.88666L69.0554 5.22912C68.5564 4.89215 67.9967 4.65425 67.3882 4.50706L66.918 6.451ZM67.9405 6.8895C68.2013 7.06366 68.4046 7.28499 68.5586 7.56475L70.3107 6.60033C70.0032 6.04165 69.5807 5.57988 69.0512 5.22628L67.9405 6.8895ZM68.5607 7.56845C68.6941 7.80852 68.7857 8.13691 68.791 8.59227L70.7909 8.56897C70.7826 7.85679 70.6366 7.18646 70.3087 6.59662L68.5607 7.56845ZM68.791 8.59227L68.8681 15.214L70.868 15.1907L70.7909 8.56897L68.791 8.59227ZM69.8564 14.2024L67.2742 14.2325L67.2975 16.2323L69.8797 16.2023L69.8564 14.2024ZM68.2858 15.2208L68.2699 13.8593L66.27 13.8826L66.2859 15.2441L68.2858 15.2208ZM67.2583 12.8711L67.1816 12.872L67.2049 14.8718L67.2816 14.8709L67.2583 12.8711ZM66.2986 13.4252C66.2011 13.6204 66.0697 13.7945 65.8977 13.9507L67.2422 15.4313C67.5932 15.1126 67.8772 14.7407 68.088 14.3186L66.2986 13.4252ZM65.9044 13.9446C65.7471 14.0849 65.5436 14.209 65.2773 14.3074L65.9705 16.1834C66.4427 16.0089 66.8698 15.7635 67.2355 15.4374L65.9044 13.9446ZM65.287 14.3039C65.0437 14.3909 64.7301 14.4475 64.3298 14.4521L64.3531 16.452C64.9244 16.4454 65.4657 16.3641 65.9609 16.1869L65.287 14.3039ZM65.111 14.5638C65.6448 14.5576 66.1584 14.4457 66.625 14.1991L65.6902 12.431C65.5469 12.5068 65.3549 12.5608 65.0877 12.5639L65.111 14.5638ZM66.6346 14.1939C67.0802 13.9521 67.451 13.6159 67.7205 13.1842L66.024 12.1251C65.9505 12.2429 65.8448 12.347 65.6806 12.4361L66.6346 14.1939ZM67.7205 13.1842C68.0001 12.7365 68.1296 12.2364 68.1235 11.7132L66.1236 11.7365C66.1255 11.9036 66.0875 12.0233 66.024 12.1251L67.7205 13.1842ZM68.1235 11.7132L68.1113 10.6713L66.1115 10.6946L66.1236 11.7365L68.1235 11.7132ZM66.5567 9.85095C66.5701 9.84203 66.5702 9.84369 66.5499 9.85284C66.5304 9.86165 66.4983 9.87449 66.4507 9.89005L67.0726 11.7909C67.2664 11.7275 67.477 11.6411 67.6661 11.515L66.5567 9.85095ZM66.4683 9.88447C66.3545 9.91939 66.2173 9.95529 66.0547 9.99132L66.4871 11.944C66.69 11.8991 66.88 11.8502 67.055 11.7965L66.4683 9.88447ZM66.0766 9.98673C65.9011 10.0215 65.7256 10.0542 65.5502 10.0849L65.8945 12.055C66.0848 12.0217 66.2751 11.9863 66.4652 11.9486L66.0766 9.98673ZM65.5726 10.0812C65.3888 10.109 65.2218 10.1346 65.0717 10.1578L65.3776 12.1343C65.5252 12.1114 65.69 12.0862 65.8721 12.0587L65.5726 10.0812ZM65.068 10.1584C64.6833 10.2194 64.3184 10.3177 63.9853 10.465L64.7945 12.294C64.9363 12.2313 65.1278 12.1739 65.3812 12.1337L65.068 10.1584ZM63.9853 10.465C63.6185 10.6273 63.285 10.8677 63.0341 11.2077L64.6433 12.3952C64.6525 12.3827 64.6865 12.3418 64.7945 12.294L63.9853 10.465ZM63.0412 11.1981C62.7536 11.5782 62.643 12.0198 62.6481 12.4546L64.6479 12.4313C64.6474 12.3894 64.6526 12.3736 64.652 12.3757C64.6517 12.3768 64.6503 12.3809 64.6473 12.3869C64.6442 12.393 64.6404 12.3992 64.6362 12.4048L63.0412 11.1981ZM62.6481 12.4546C62.6556 13.102 62.9168 13.7012 63.4803 14.1027L64.6408 12.4739C64.6347 12.4695 64.636 12.4695 64.6407 12.4749C64.6455 12.4805 64.65 12.4874 64.6531 12.4937C64.656 12.4997 64.6552 12.5002 64.6534 12.4919C64.6515 12.483 64.6483 12.4637 64.6479 12.4313L62.6481 12.4546ZM63.495 14.113C63.9783 14.4445 64.5399 14.5704 65.111 14.5638L65.0877 12.5639C64.8236 12.567 64.6927 12.5093 64.6262 12.4636L63.495 14.113ZM74.2772 9.47445L73.2772 9.476L73.2773 9.4861L74.2772 9.47445ZM74.3433 15.1502L74.355 16.1501L75.3549 16.1385L75.3433 15.1386L74.3433 15.1502ZM71.6205 15.1819L70.6206 15.1936L70.6322 16.1935L71.6322 16.1819L71.6205 15.1819ZM71.5062 5.3644L71.4945 4.36447L70.4946 4.37612L70.5062 5.37605L71.5062 5.3644ZM74.1012 5.33418L75.1011 5.32253L75.0894 4.3226L74.0895 4.33424L74.1012 5.33418ZM74.1213 7.0663L73.1214 7.07795L73.133 8.07788L74.133 8.06624L74.1213 7.0663ZM74.2364 7.06496L74.248 8.0649L74.9374 8.05687L75.1751 7.40976L74.2364 7.06496ZM75.3136 5.69721L75.8683 6.52927L75.8731 6.526L75.3136 5.69721ZM80.1534 6.8618L79.2671 7.32485L79.2686 7.32762L80.1534 6.8618ZM80.671 15.0765L80.6827 16.0764L81.6826 16.0648L81.671 15.0649L80.671 15.0765ZM77.9482 15.1082L76.9483 15.1199L76.9599 16.1198L77.9598 16.1081L77.9482 15.1082ZM77.8811 9.34298L76.881 9.34754L76.8811 9.35463L77.8811 9.34298ZM77.4045 7.94219L76.6737 8.62481L76.678 8.62936L77.4045 7.94219ZM75.145 7.69363L74.6459 6.82708L74.6402 6.83038L75.145 7.69363ZM74.5011 8.39152L73.609 7.93973L73.6066 7.94456L74.5011 8.39152ZM73.2773 9.4861L73.3434 15.1619L75.3433 15.1386L75.2772 9.46281L73.2773 9.4861ZM74.3317 14.1503L71.6089 14.182L71.6322 16.1819L74.355 16.1501L74.3317 14.1503ZM72.6204 15.1703L72.5061 5.35276L70.5062 5.37605L70.6206 15.1936L72.6204 15.1703ZM71.5178 6.36433L74.1128 6.33411L74.0895 4.33424L71.4945 4.36447L71.5178 6.36433ZM73.1012 5.34582L73.1214 7.07795L75.1213 7.05466L75.1011 5.32253L73.1012 5.34582ZM74.133 8.06624L74.248 8.0649L74.2247 6.06503L74.1097 6.06637L74.133 8.06624ZM75.1751 7.40976C75.3128 7.03487 75.5376 6.74974 75.8683 6.52925L74.7588 4.86517C74.0746 5.32132 73.5813 5.94802 73.2977 6.72017L75.1751 7.40976ZM75.8731 6.526C76.1898 6.31217 76.6083 6.17719 77.1793 6.17054L77.156 4.17068C76.2697 4.181 75.4521 4.39709 74.754 4.86842L75.8731 6.526ZM77.1793 6.17054C77.7115 6.16434 78.1265 6.27452 78.4592 6.46503L79.4531 4.72947C78.7646 4.33525 77.9873 4.161 77.156 4.17068L77.1793 6.17054ZM78.4592 6.46503C78.7944 6.65703 79.0627 6.93358 79.2671 7.32485L81.0398 6.39876C80.6688 5.6887 80.1389 5.12221 79.4531 4.72947L78.4592 6.46503ZM79.2686 7.32762C79.4671 7.70472 79.5908 8.19618 79.5983 8.83715L81.5982 8.81386C81.5878 7.92937 81.4151 7.11169 81.0383 6.39599L79.2686 7.32762ZM79.5983 8.83715L79.6711 15.0881L81.671 15.0649L81.5982 8.81386L79.5983 8.83715ZM80.6594 14.0766L77.9366 14.1083L77.9598 16.1081L80.6827 16.0764L80.6594 14.0766ZM78.9481 15.0966L78.881 9.33134L76.8811 9.35463L76.9483 15.1199L78.9481 15.0966ZM78.881 9.33843C78.8775 8.56482 78.6693 7.82417 78.131 7.25501L76.678 8.62936C76.7696 8.72621 76.8791 8.91942 76.8811 9.34754L78.881 9.33843ZM78.1353 7.25958C77.5933 6.67938 76.8729 6.43691 76.1022 6.44589L76.1255 8.44576C76.4456 8.44203 76.5856 8.53047 76.6737 8.6248L78.1353 7.25958ZM76.1022 6.44589C75.5882 6.45188 75.093 6.56957 74.6459 6.8271L75.6442 8.56015C75.7559 8.49581 75.9065 8.44831 76.1255 8.44576L76.1022 6.44589ZM74.6402 6.83038C74.1873 7.09524 73.8436 7.47646 73.609 7.93974L75.3933 8.8433C75.4669 8.69783 75.5525 8.61378 75.6498 8.55687L74.6402 6.83038ZM73.6066 7.94456C73.3715 8.4151 73.2764 8.93756 73.2772 9.476L75.2772 9.47291C75.2768 9.16755 75.3309 8.96805 75.3957 8.83848L73.6066 7.94456ZM94.7513 5.06809L95.7214 5.31079L96.036 4.05306L94.7396 4.06816L94.7513 5.06809ZM94.3054 6.85039L94.317 7.85032L95.0883 7.84134L95.2755 7.09309L94.3054 6.85039ZM85.7342 6.95022L84.7633 6.71079L84.454 7.9652L85.7459 7.95015L85.7342 6.95022ZM86.1737 5.16799L86.1621 4.16806L85.3881 4.17708L85.2028 4.92856L86.1737 5.16799ZM90.4109 14.9631L89.6529 15.6153L89.9567 15.9684L90.4226 15.963L90.4109 14.9631ZM85.9785 9.81121L84.9785 9.81885L84.9813 10.1855L85.2204 10.4634L85.9785 9.81121ZM85.9663 8.21323L85.9546 7.2133L84.9587 7.2249L84.9663 8.22088L85.9663 8.21323ZM89.3315 7.90555L88.8377 7.036L88.8377 7.036L89.3315 7.90555ZM90.2887 6.11729L91.2887 6.11651L91.2887 6.10746L91.2886 6.0984L90.2887 6.11729ZM89.7543 4.68521L89.0179 5.36191L89.0261 5.37061L89.7543 4.68521ZM85.7018 4.16987L84.7255 3.95373L84.453 5.18448L85.7135 5.1698L85.7018 4.16987ZM86.1998 1.92031L86.1882 0.920378L85.3949 0.929617L85.2234 1.70417L86.1998 1.92031ZM90.7755 2.35924L90.3736 3.27492L90.3801 3.27771L90.7755 2.35924ZM92.428 3.72716L91.5776 4.25338L91.5803 4.25778L92.428 3.72716ZM93.009 5.86826L94.0091 5.8624L94.0089 5.85149L93.009 5.86826ZM92.6608 7.80285L91.7415 7.40935L91.7389 7.41535L92.6608 7.80285ZM91.5455 9.19022L90.9567 8.38192L90.9535 8.38424L91.5455 9.19022ZM89.5544 10.0316L89.3304 9.05706L89.2599 9.07327L89.1924 9.09947L89.5544 10.0316ZM89.4526 10.0712L89.0906 9.13901L87.7911 9.64369L88.6857 10.7129L89.4526 10.0712ZM93.4201 14.8129L94.42 14.8013L94.4158 14.4447L94.187 14.1712L93.4201 14.8129ZM93.4214 14.928L93.433 15.9279L94.433 15.9163L94.4213 14.9163L93.4214 14.928ZM94.7262 1.821L95.6956 2.06675L96.0152 0.805918L94.7146 0.821067L94.7262 1.821ZM94.2678 3.62902L94.2795 4.62895L95.0482 4.62L95.2372 3.87477L94.2678 3.62902ZM87.2115 3.71121L86.2422 3.46546L85.9225 4.72629L87.2231 4.71114L87.2115 3.71121ZM87.6699 1.90319L87.6582 0.903255L86.8895 0.912209L86.7005 1.65744L87.6699 1.90319ZM93.7812 4.82539L93.3353 6.60769L95.2755 7.09309L95.7214 5.31079L93.7812 4.82539ZM94.2937 5.85046L85.7226 5.95029L85.7459 7.95015L94.317 7.85032L94.2937 5.85046ZM86.7051 7.18965L87.1446 5.40742L85.2028 4.92856L84.7633 6.71079L86.7051 7.18965ZM86.1854 6.16793L94.7629 6.06802L94.7396 4.06816L86.1621 4.16806L86.1854 6.16793ZM91.169 14.3109L86.7365 9.15901L85.2204 10.4634L89.6529 15.6153L91.169 14.3109ZM86.9785 9.80356L86.9662 8.20558L84.9663 8.22088L84.9785 9.81885L86.9785 9.80356ZM85.9779 9.21316L88.1383 9.188L88.115 7.18813L85.9546 7.2133L85.9779 9.21316ZM88.1383 9.188C88.7394 9.181 89.3187 9.06284 89.8254 8.7751L88.8377 7.036C88.7008 7.11373 88.4768 7.18392 88.115 7.18813L88.1383 9.188ZM89.8254 8.7751C90.3047 8.50287 90.6882 8.11858 90.9414 7.62484L89.1619 6.71199C89.0985 6.83563 89.0019 6.94275 88.8377 7.036L89.8254 8.7751ZM90.9414 7.62484C91.1813 7.15721 91.2892 6.64669 91.2887 6.11651L89.2887 6.11807C89.2889 6.37203 89.2387 6.56226 89.1619 6.71199L90.9414 7.62484ZM91.2886 6.0984C91.2736 5.30648 91.0259 4.57713 90.4824 3.99981L89.0261 5.37061C89.1731 5.52677 89.2817 5.75214 89.2889 6.13618L91.2886 6.0984ZM90.4906 4.00856C89.8742 3.33783 88.9751 3.13168 88.0679 3.14224L88.0912 5.14211C88.735 5.13461 88.9524 5.29048 89.018 5.36186L90.4906 4.00856ZM88.0679 3.14224L85.6902 3.16994L85.7135 5.1698L88.0912 5.14211L88.0679 3.14224ZM86.6782 4.38601L87.1762 2.13645L85.2234 1.70417L84.7255 3.95373L86.6782 4.38601ZM86.2115 2.92024L88.065 2.89865L88.0417 0.898788L86.1882 0.920378L86.2115 2.92024ZM88.065 2.89865C89.0584 2.88708 89.8142 3.02933 90.3736 3.27489L91.1775 1.44358C90.2805 1.04981 89.2215 0.885047 88.0417 0.898788L88.065 2.89865ZM90.3801 3.27771C90.9509 3.5235 91.3306 3.85422 91.5776 4.25338L93.2783 3.20094C92.7869 2.40691 92.065 1.82568 91.171 1.44076L90.3801 3.27771ZM91.5803 4.25778C91.841 4.67417 91.9977 5.20292 92.0092 5.88504L94.0089 5.85149C93.9925 4.87189 93.7618 3.97323 93.2756 3.19653L91.5803 4.25778ZM92.0091 5.87413C92.0128 6.50441 91.9132 7.00819 91.7415 7.40936L93.5801 8.19633C93.8814 7.49248 94.014 6.70654 94.009 5.8624L92.0091 5.87413ZM91.7389 7.41535C91.5813 7.79033 91.3293 8.11054 90.9567 8.38193L92.1343 9.99851C92.7844 9.52498 93.2759 8.92028 93.5827 8.19034L91.7389 7.41535ZM90.9535 8.38424C90.5868 8.65364 90.0604 8.88929 89.3304 9.05706L89.7785 11.0062C90.6891 10.7969 91.4901 10.4716 92.1374 9.9962L90.9535 8.38424ZM89.1924 9.09947L89.0906 9.13901L89.8146 11.0034L89.9165 10.9638L89.1924 9.09947ZM88.6857 10.7129L92.6531 15.4547L94.187 14.1712L90.2196 9.42948L88.6857 10.7129ZM92.4201 14.8246L92.4215 14.9396L94.4213 14.9163L94.42 14.8013L92.4201 14.8246ZM93.4097 13.9281L90.3993 13.9631L90.4226 15.963L93.433 15.9279L93.4097 13.9281ZM93.7569 1.57525L93.2985 3.38327L95.2372 3.87477L95.6956 2.06675L93.7569 1.57525ZM94.2562 2.62909L87.1999 2.71127L87.2231 4.71114L94.2795 4.62895L94.2562 2.62909ZM88.1808 3.95696L88.6392 2.14894L86.7005 1.65744L86.2422 3.46546L88.1808 3.95696ZM87.6815 2.90312L94.7379 2.82093L94.7146 0.821067L87.6582 0.903255L87.6815 2.90312ZM95.9875 12.5968L94.9876 12.6085L94.9993 13.6084L95.9992 13.5967L95.9875 12.5968ZM95.9622 10.4173L95.1117 9.89124L94.9588 10.1384L94.9622 10.4289L95.9622 10.4173ZM101.327 1.74412L101.315 0.744189L100.765 0.750591L100.476 1.21809L101.327 1.74412ZM103.206 1.72223L104.206 1.71059L104.194 0.710655L103.194 0.722302L103.206 1.72223ZM103.241 4.73907L103.253 5.73901L104.253 5.72736L104.241 4.72743L103.241 4.73907ZM102.129 4.75203L102.117 3.7521L101.566 3.75851L101.277 4.22773L102.129 4.75203ZM98.7473 10.2442L97.8957 9.7199L97.744 9.9664L97.7473 10.2558L98.7473 10.2442ZM98.7485 10.3465L97.7485 10.3581L97.7602 11.358L98.7601 11.3464L98.7485 10.3465ZM106.514 10.256L107.514 10.2444L107.503 9.24444L106.503 9.25608L106.514 10.256ZM106.54 12.4739L106.552 13.4738L107.552 13.4622L107.54 12.4623L106.54 12.4739ZM102.297 14.8246L101.297 14.8363L101.309 15.8362L102.309 15.8245L102.297 14.8246ZM102.263 11.8589L101.264 11.8176L101.263 11.8441L101.263 11.8706L102.263 11.8589ZM102.303 10.8932L103.302 10.9344L103.303 10.908L103.303 10.8815L102.303 10.8932ZM102.196 1.734L102.184 0.734064L101.184 0.745711L101.196 1.74564L102.196 1.734ZM104.791 1.70377L105.791 1.69212L105.779 0.692192L104.779 0.703839L104.791 1.70377ZM104.943 14.7938L104.955 15.7937L105.955 15.7821L105.943 14.7821L104.943 14.7938ZM96.9875 12.5852L96.9621 10.4056L94.9622 10.4289L94.9876 12.6085L96.9875 12.5852ZM96.8126 10.9433L102.177 2.27015L100.476 1.21809L95.1117 9.89124L96.8126 10.9433ZM101.338 2.74405L103.217 2.72217L103.194 0.722302L101.315 0.744189L101.338 2.74405ZM102.206 1.73388L102.241 4.75072L104.241 4.72743L104.206 1.71059L102.206 1.73388ZM103.229 3.73914L102.117 3.7521L102.14 5.75196L103.253 5.73901L103.229 3.73914ZM101.277 4.22773L97.8957 9.7199L99.5988 10.7685L102.98 5.27633L101.277 4.22773ZM97.7473 10.2558L97.7485 10.3581L99.7484 10.3348L99.7472 10.2326L97.7473 10.2558ZM98.7601 11.3464L106.526 11.2559L106.503 9.25608L98.7368 9.34653L98.7601 11.3464ZM105.514 10.2677L105.54 12.4855L107.54 12.4623L107.514 10.2444L105.514 10.2677ZM106.528 11.474L95.9759 11.5969L95.9992 13.5967L106.552 13.4738L106.528 11.474ZM103.297 14.813L103.263 11.8473L101.263 11.8706L101.297 14.8363L103.297 14.813ZM103.262 11.9002L103.302 10.9344L101.304 10.8519L101.264 11.8176L103.262 11.9002ZM103.303 10.8815L103.196 1.72235L101.196 1.74564L101.303 10.9048L103.303 10.8815ZM102.208 2.73393L104.803 2.7037L104.779 0.703839L102.184 0.734064L102.208 2.73393ZM103.791 1.71542L103.943 14.8054L105.943 14.7821L105.791 1.69212L103.791 1.71542ZM104.932 13.7939L102.286 13.8247L102.309 15.8245L104.955 15.7937L104.932 13.7939ZM113.187 14.9854L113.194 15.9854L113.198 15.9854L113.187 14.9854ZM110.339 14.2068L109.786 15.0398L109.788 15.0412L110.339 14.2068ZM108.491 11.895L107.571 12.2885L107.573 12.2917L108.491 11.895ZM107.821 8.22716L108.821 8.21849L108.821 8.21551L107.821 8.22716ZM108.412 4.57018L107.486 4.19078L107.485 4.19411L108.412 4.57018ZM110.207 2.25437L110.77 3.08061L110.771 3.07991L110.207 2.25437ZM115.863 2.18849L115.316 3.02558L115.318 3.02694L115.863 2.18849ZM117.718 4.46818L116.802 4.86902L116.802 4.87042L117.718 4.46818ZM118.393 8.10402L117.393 8.11269L117.393 8.11567L118.393 8.10402ZM117.797 11.793L116.87 11.4178L116.869 11.4211L117.797 11.793ZM116.009 14.1471L116.581 14.967L116.581 14.967L116.009 14.1471ZM114.943 11.5386L115.809 12.0388L115.809 12.0388L114.943 11.5386ZM115.568 8.13693L114.568 8.14858L114.568 8.1514L115.568 8.13693ZM115.232 5.66056L114.279 5.96187L114.281 5.96748L115.232 5.66056ZM114.359 4.18129L113.695 4.92979L113.7 4.93358L114.359 4.18129ZM111.279 4.83723L110.415 4.33276L110.415 4.33276L111.279 4.83723ZM110.64 8.19433L109.64 8.20311L109.64 8.20597L110.64 8.19433ZM110.97 10.7091L110.015 11.0054L110.017 11.0126L110.97 10.7091ZM111.85 12.2075L111.187 12.9556L111.191 12.9598L111.85 12.2075ZM113.179 13.9855C112.248 13.9927 111.5 13.7749 110.891 13.3724L109.788 15.0412C110.776 15.6939 111.927 15.9953 113.194 15.9854L113.179 13.9855ZM110.893 13.3737C110.283 12.9692 109.782 12.3627 109.409 11.4983L107.573 12.2917C108.075 13.4542 108.806 14.3889 109.786 15.0398L110.893 13.3737ZM109.41 11.5016C109.041 10.6402 108.833 9.55566 108.821 8.21849L106.821 8.23583C106.835 9.76219 107.072 11.1229 107.571 12.2885L109.41 11.5016ZM108.821 8.21551C108.806 6.88182 108.991 5.80203 109.338 4.94624L107.485 4.19411C107.012 5.35938 106.804 6.71758 106.821 8.2388L108.821 8.21551ZM109.337 4.94958C109.689 4.09159 110.173 3.4874 110.77 3.08061L109.643 1.42813C108.676 2.08793 107.963 3.02761 107.486 4.19078L109.337 4.94958ZM110.771 3.07991C111.371 2.66971 112.112 2.43957 113.04 2.42876L113.017 0.4289C111.755 0.443601 110.615 0.763824 109.642 1.42884L110.771 3.07991ZM113.04 2.42876C113.969 2.41795 114.712 2.63083 115.316 3.02558L116.41 1.35139C115.425 0.707757 114.279 0.414201 113.017 0.4289L113.04 2.42876ZM115.318 3.02694C115.93 3.42463 116.43 4.0204 116.802 4.86902L118.634 4.06733C118.13 2.91465 117.394 1.99063 116.408 1.35003L115.318 3.02694ZM116.802 4.87042C117.172 5.71051 117.382 6.7805 117.393 8.11269L119.393 8.09536C119.38 6.57253 119.14 5.21862 118.633 4.06593L116.802 4.87042ZM117.393 8.11567C117.409 9.45715 117.222 10.5482 116.87 11.4178L118.724 12.1683C119.2 10.9911 119.411 9.62287 119.393 8.09238L117.393 8.11567ZM116.869 11.4211C116.519 12.2925 116.035 12.9092 115.436 13.3272L116.581 14.967C117.547 14.2929 118.254 13.3402 118.725 12.1649L116.869 11.4211ZM115.436 13.3272C114.843 13.7415 114.105 13.9747 113.175 13.9855L113.198 15.9854C114.467 15.9706 115.611 15.6449 116.581 14.967L115.436 13.3272ZM113.172 13.6908C114.34 13.6772 115.229 13.0426 115.809 12.0388L114.077 11.0385C113.779 11.5535 113.48 11.6871 113.148 11.6909L113.172 13.6908ZM115.809 12.0388C116.381 11.0473 116.591 9.69729 116.568 8.12246L114.568 8.1514C114.589 9.59331 114.382 10.511 114.077 11.0385L115.809 12.0388ZM116.568 8.12528C116.556 7.07193 116.437 6.1388 116.184 5.35364L114.281 5.96748C114.452 6.49848 114.557 7.21627 114.568 8.14858L116.568 8.12528ZM116.186 5.35925C115.943 4.59119 115.573 3.91549 115.017 3.42899L113.7 4.93358C113.893 5.10317 114.106 5.41366 114.279 5.96186L116.186 5.35925ZM115.022 3.43279C114.464 2.93859 113.788 2.68925 113.044 2.69792L113.067 4.69779C113.319 4.69485 113.513 4.76779 113.695 4.92978L115.022 3.43279ZM113.044 2.69792C111.883 2.71144 110.996 3.33818 110.415 4.33276L112.142 5.34171C112.438 4.83448 112.736 4.70164 113.067 4.69779L113.044 2.69792ZM110.415 4.33276C109.842 5.31402 109.627 6.64825 109.64 8.20311L111.64 8.18555C111.628 6.76607 111.838 5.86224 112.142 5.34171L110.415 4.33276ZM109.64 8.20597C109.653 9.27023 109.769 10.212 110.015 11.0054L111.925 10.4129C111.755 9.86445 111.651 9.12965 111.64 8.18268L109.64 8.20597ZM110.017 11.0126C110.263 11.7858 110.634 12.4655 111.187 12.9556L112.514 11.4594C112.317 11.2849 112.101 10.9656 111.923 10.4056L110.017 11.0126ZM111.191 12.9598C111.752 13.4504 112.427 13.6995 113.172 13.6908L113.148 11.6909C112.896 11.6939 112.698 11.6207 112.509 11.4552L111.191 12.9598ZM125.65 0.84714L126.619 1.09579L126.943 -0.167988L125.638 -0.152792L125.65 0.84714ZM121.614 16.5685L121.626 17.5684L122.392 17.5595L122.583 16.8172L121.614 16.5685ZM119.268 16.5958L118.3 16.3472L117.975 17.611L119.28 17.5958L119.268 16.5958ZM123.304 0.874462L123.293 -0.125471L122.526 -0.116544L122.336 0.625809L123.304 0.874462ZM124.681 0.598487L120.645 16.3199L122.583 16.8172L126.619 1.09579L124.681 0.598487ZM121.602 15.5686L119.257 15.5959L119.28 17.5958L121.626 17.5684L121.602 15.5686ZM120.237 16.8445L124.273 1.12311L122.336 0.625809L118.3 16.3472L120.237 16.8445ZM123.316 1.87439L125.662 1.84707L125.638 -0.152792L123.293 -0.125471L123.316 1.87439ZM132.803 8.0129L133.803 8.00125L133.791 7.00132L132.791 7.01296L132.803 8.0129ZM132.828 10.1733L132.84 11.1732L133.84 11.1615L133.828 10.1616L132.828 10.1733ZM126.858 10.2428L125.858 10.2544L125.87 11.2544L126.87 11.2427L126.858 10.2428ZM126.833 8.08243L126.822 7.0825L125.822 7.09414L125.833 8.09408L126.833 8.08243ZM131.803 8.02454L131.828 10.1849L133.828 10.1616L133.803 8.00125L131.803 8.02454ZM132.817 9.17333L126.847 9.24286L126.87 11.2427L132.84 11.1732L132.817 9.17333ZM127.858 10.2311L127.833 8.07078L125.833 8.09408L125.858 10.2544L127.858 10.2311ZM126.845 9.08236L132.815 9.01283L132.791 7.01296L126.822 7.0825L126.845 9.08236Z" fill="#2C1F1F" mask="url(#path-1-outside-1_209_6508)"/>
</svg>
