<svg width="279" height="225" viewBox="0 0 279 225" fill="none" xmlns="http://www.w3.org/2000/svg">
<g clip-path="url(#clip0_209_6527)">
<path d="M24.3884 -39.4786C19.414 -31.1188 32.8449 -5.62137 126.364 29.4899C219.882 64.6011 235.802 116.85 232.071 138.586C230.828 151.543 236.548 179.465 269.379 187.49" stroke="white" stroke-opacity="0.13"/>
<path d="M0.85267 -37.1138C-4.6957 -27.4478 10.2849 2.03364 114.594 42.631C218.904 83.2284 220.348 145.809 216.187 170.941C214.8 185.924 237.493 216.04 274.112 225.319" stroke="white" stroke-opacity="0.13"/>
<path d="M52.7614 -37.1138C47.787 -28.8411 61.2179 -3.60924 154.737 31.1363C248.255 65.8818 264.175 117.586 260.444 139.095C259.201 151.918 264.921 179.549 297.752 187.491" stroke="white" stroke-opacity="0.13"/>
<path d="M66.9852 -39.4786C61.8195 -31.1188 75.7669 -5.62136 172.883 29.4899C269.998 64.6011 286.53 116.85 282.656 138.586C281.364 151.543 287.305 179.465 321.399 187.49" stroke="white" stroke-opacity="0.13"/>
<path d="M76.406 -56.0284C71.4316 -48.0169 84.8625 -23.5819 178.381 10.0664C271.9 43.7147 287.819 93.7865 284.089 114.616C282.845 127.034 288.566 153.793 321.397 161.484" stroke="white" stroke-opacity="0.13"/>
<path d="M76.406 -72.5776C71.4316 -64.5661 84.8625 -40.1311 178.381 -6.4828C271.9 27.1655 287.819 77.2373 284.089 98.0672C282.845 110.485 288.566 137.243 321.397 144.934" stroke="white" stroke-opacity="0.13"/>
<path d="M97.6853 -72.5776C92.7109 -64.5661 106.142 -40.1311 199.661 -6.4828C293.179 27.1655 309.098 77.2373 305.368 98.0672C304.125 110.485 309.845 137.243 342.676 144.934" stroke="white" stroke-opacity="0.13"/>
<path d="M97.6853 -93.8565C92.7109 -85.845 106.142 -61.41 199.661 -27.7617C293.179 5.8866 309.098 55.9584 305.368 76.7883C304.125 89.2061 309.845 115.965 342.676 123.656" stroke="white" stroke-opacity="0.13"/>
<path d="M111.865 -110.406C106.891 -102.395 120.321 -77.9597 213.84 -44.3114C307.359 -10.6631 323.278 39.4087 319.548 60.2386C318.304 72.6564 324.025 99.4148 356.856 107.106" stroke="white" stroke-opacity="0.13"/>
<path d="M76.406 -41.8423C71.4316 -33.8309 84.8625 -9.39579 178.381 24.2525C271.9 57.9008 287.819 107.973 284.089 128.802C282.845 141.22 288.566 167.979 321.397 175.67" stroke="white" stroke-opacity="0.13"/>
</g>
<defs>
<clipPath id="clip0_209_6527">
<rect width="279" height="225" fill="white"/>
</clipPath>
</defs>
</svg>
