<svg width="147" height="80" viewBox="0 0 147 80" fill="none" xmlns="http://www.w3.org/2000/svg">
<rect x="1.16797" y="0.5" width="145.337" height="79" rx="7.5" fill="white"/>
<rect x="1.16797" y="0.5" width="145.337" height="79" rx="7.5" stroke="#C9C9C9" stroke-dasharray="2 2"/>
<path d="M57.168 35.3334C57.168 31.6515 60.1527 28.6667 63.8346 28.6667C67.5166 28.6667 70.5013 31.6515 70.5013 35.3334H57.168ZM63.8346 27.8334C61.0721 27.8334 58.8346 25.5959 58.8346 22.8334C58.8346 20.0709 61.0721 17.8334 63.8346 17.8334C66.5971 17.8334 68.8346 20.0709 68.8346 22.8334C68.8346 25.5959 66.5971 27.8334 63.8346 27.8334Z" fill="#1B759B"/>
<path d="M77.168 35.3334C77.168 31.6515 80.1527 28.6667 83.8346 28.6667C87.5166 28.6667 90.5013 31.6515 90.5013 35.3334H77.168ZM83.8346 27.8334C81.0721 27.8334 78.8346 25.5959 78.8346 22.8334C78.8346 20.0709 81.0721 17.8334 83.8346 17.8334C86.5971 17.8334 88.8346 20.0709 88.8346 22.8334C88.8346 25.5959 86.5971 27.8334 83.8346 27.8334Z" fill="#1B759B"/>
<path d="M54.2905 58H50.8402V47.8182H54.3601C55.371 47.8182 56.2393 48.022 56.9652 48.4297C57.6944 48.834 58.2545 49.4157 58.6456 50.1747C59.0367 50.9337 59.2322 51.8419 59.2322 52.8991C59.2322 53.9598 59.035 54.8712 58.6406 55.6335C58.2495 56.3958 57.6844 56.9808 56.9453 57.3885C56.2095 57.7962 55.3246 58 54.2905 58ZM52.6847 56.4041H54.201C54.9103 56.4041 55.5019 56.2749 55.9759 56.0163C56.4498 55.7545 56.8061 55.3651 57.0447 54.848C57.2834 54.3277 57.4027 53.678 57.4027 52.8991C57.4027 52.1203 57.2834 51.474 57.0447 50.9602C56.8061 50.4432 56.4531 50.0571 55.9858 49.8018C55.5218 49.5433 54.9451 49.4141 54.2557 49.4141H52.6847V56.4041ZM64.0962 58.1491C63.3504 58.1491 62.7041 57.9851 62.1572 57.657C61.6104 57.3288 61.1861 56.8698 60.8845 56.2798C60.5862 55.6899 60.4371 55.0005 60.4371 54.2116C60.4371 53.4228 60.5862 52.7318 60.8845 52.1385C61.1861 51.5452 61.6104 51.0845 62.1572 50.7564C62.7041 50.4283 63.3504 50.2642 64.0962 50.2642C64.8419 50.2642 65.4882 50.4283 66.0351 50.7564C66.5819 51.0845 67.0045 51.5452 67.3028 52.1385C67.6044 52.7318 67.7552 53.4228 67.7552 54.2116C67.7552 55.0005 67.6044 55.6899 67.3028 56.2798C67.0045 56.8698 66.5819 57.3288 66.0351 57.657C65.4882 57.9851 64.8419 58.1491 64.0962 58.1491ZM64.1061 56.7074C64.5104 56.7074 64.8485 56.5964 65.1203 56.3743C65.3921 56.1489 65.5943 55.8473 65.7268 55.4695C65.8627 55.0916 65.9307 54.6707 65.9307 54.2067C65.9307 53.7393 65.8627 53.3168 65.7268 52.9389C65.5943 52.5578 65.3921 52.2545 65.1203 52.0291C64.8485 51.8037 64.5104 51.6911 64.1061 51.6911C63.6918 51.6911 63.3471 51.8037 63.072 52.0291C62.8002 52.2545 62.5964 52.5578 62.4605 52.9389C62.3279 53.3168 62.2616 53.7393 62.2616 54.2067C62.2616 54.6707 62.3279 55.0916 62.4605 55.4695C62.5964 55.8473 62.8002 56.1489 63.072 56.3743C63.3471 56.5964 63.6918 56.7074 64.1061 56.7074ZM74.0099 54.7884V50.3636H75.8097V58H74.0646V56.6428H73.9851C73.8127 57.0703 73.5294 57.42 73.1349 57.6918C72.7439 57.9635 72.2616 58.0994 71.6882 58.0994C71.1877 58.0994 70.7453 57.9884 70.3608 57.7663C69.9796 57.541 69.6814 57.2145 69.4659 56.7869C69.2505 56.3561 69.1428 55.8357 69.1428 55.2259V50.3636H70.9425V54.9474C70.9425 55.4313 71.0751 55.8158 71.3402 56.1009C71.6054 56.3859 71.9534 56.5284 72.3842 56.5284C72.6494 56.5284 72.9063 56.4638 73.1548 56.3345C73.4034 56.2053 73.6073 56.013 73.7663 55.7578C73.9287 55.4993 74.0099 55.1761 74.0099 54.7884ZM77.5999 58V47.8182H79.3996V51.6264H79.4742C79.567 51.4408 79.6979 51.2436 79.8669 51.0348C80.036 50.8227 80.2647 50.642 80.553 50.4929C80.8414 50.3404 81.2093 50.2642 81.6567 50.2642C82.2467 50.2642 82.7786 50.415 83.2526 50.7166C83.7299 51.0149 84.1077 51.4574 84.3861 52.044C84.6678 52.6274 84.8087 53.3433 84.8087 54.1918C84.8087 55.0303 84.6711 55.7429 84.3961 56.3295C84.121 56.9162 83.7464 57.3636 83.2725 57.6719C82.7985 57.9801 82.2616 58.1342 81.6617 58.1342C81.2242 58.1342 80.8613 58.0613 80.5729 57.9155C80.2845 57.7696 80.0525 57.594 79.8769 57.3885C79.7045 57.1797 79.5703 56.9825 79.4742 56.7969H79.3698V58H77.5999ZM79.3648 54.1818C79.3648 54.6757 79.4344 55.1082 79.5736 55.4794C79.7161 55.8506 79.92 56.1406 80.1851 56.3494C80.4536 56.5549 80.7784 56.6577 81.1595 56.6577C81.5573 56.6577 81.8904 56.5516 82.1588 56.3395C82.4273 56.1241 82.6295 55.8307 82.7654 55.4595C82.9046 55.085 82.9742 54.6591 82.9742 54.1818C82.9742 53.7079 82.9062 53.2869 82.7703 52.919C82.6345 52.5511 82.4323 52.2628 82.1638 52.054C81.8953 51.8452 81.5606 51.7408 81.1595 51.7408C80.7751 51.7408 80.4486 51.8419 80.1801 52.044C79.9117 52.2462 79.7078 52.5296 79.5686 52.8942C79.4327 53.2588 79.3648 53.688 79.3648 54.1818ZM87.9984 47.8182V58H86.1987V47.8182H87.9984ZM93.0898 58.1491C92.3241 58.1491 91.6629 57.9901 91.1061 57.6719C90.5526 57.3504 90.1267 56.8963 89.8284 56.3097C89.5301 55.7197 89.381 55.0253 89.381 54.2266C89.381 53.4411 89.5301 52.7517 89.8284 52.1584C90.13 51.5618 90.5509 51.0978 91.0912 50.7663C91.6314 50.4316 92.2661 50.2642 92.9953 50.2642C93.466 50.2642 93.9101 50.3404 94.3277 50.4929C94.7486 50.642 95.1198 50.8741 95.4413 51.1889C95.7661 51.5038 96.0214 51.9048 96.207 52.392C96.3926 52.8759 96.4854 53.4527 96.4854 54.1222V54.674H90.2261V53.4609H94.7602C94.7569 53.1162 94.6823 52.8097 94.5365 52.5412C94.3907 52.2694 94.1868 52.0556 93.925 51.8999C93.6665 51.7441 93.3649 51.6662 93.0202 51.6662C92.6523 51.6662 92.3291 51.7557 92.0507 51.9347C91.7723 52.1103 91.5552 52.3423 91.3994 52.6307C91.247 52.9157 91.1691 53.2289 91.1658 53.5703V54.6293C91.1658 55.0734 91.247 55.4545 91.4094 55.7727C91.5718 56.0876 91.7988 56.3295 92.0905 56.4986C92.3821 56.6643 92.7235 56.7472 93.1146 56.7472C93.3765 56.7472 93.6134 56.7107 93.8256 56.6378C94.0377 56.5616 94.2216 56.4505 94.3774 56.3047C94.5332 56.1589 94.6509 55.9782 94.7304 55.7628L96.4108 55.9517C96.3047 56.3958 96.1026 56.7836 95.8043 57.1151C95.5093 57.4432 95.1314 57.6984 94.6707 57.8807C94.21 58.0597 93.683 58.1491 93.0898 58.1491Z" fill="#4F4F4F"/>
</svg>
