<svg width="16" height="16" viewBox="0 0 16 16" fill="none" xmlns="http://www.w3.org/2000/svg">
<path d="M9.8845 5.17156L6.11323 8.94283C5.85288 9.20316 5.85288 9.62523 6.11323 9.88563C6.37358 10.146 6.7957 10.146 7.05603 9.88563L10.8273 6.11437C11.6083 5.33332 11.6083 4.06699 10.8273 3.28594C10.0462 2.50489 8.7799 2.50489 7.99883 3.28594L4.22761 7.05716C2.92586 8.35889 2.92586 10.4695 4.22761 11.7712C5.52936 13.073 7.6399 13.073 8.94163 11.7712L12.7129 7.99996L13.6557 8.94283L9.8845 12.714C8.06203 14.5365 5.10725 14.5365 3.2848 12.714C1.46236 10.8916 1.46236 7.93683 3.2848 6.11437L7.05603 2.34313C8.35776 1.04138 10.4684 1.04138 11.7701 2.34313C13.0718 3.64488 13.0718 5.75543 11.7701 7.05716L7.99883 10.8284C7.21783 11.6095 5.95147 11.6095 5.17042 10.8284C4.38937 10.0474 4.38937 8.78103 5.17042 7.99996L8.94163 4.22875L9.8845 5.17156Z" fill="#3E51FF"/>
</svg>
