<svg width="147" height="80" viewBox="0 0 147 80" fill="none" xmlns="http://www.w3.org/2000/svg">
<rect x="1.16797" y="0.5" width="145.337" height="79" rx="7.5" fill="white"/>
<rect x="1.16797" y="0.5" width="145.337" height="79" rx="7.5" stroke="#C9C9C9" stroke-dasharray="2 2"/>
<path d="M27.168 35.3334C27.168 31.6515 30.1527 28.6667 33.8346 28.6667C37.5166 28.6667 40.5013 31.6515 40.5013 35.3334H27.168ZM33.8346 27.8334C31.0721 27.8334 28.8346 25.5959 28.8346 22.8334C28.8346 20.0709 31.0721 17.8334 33.8346 17.8334C36.5971 17.8334 38.8346 20.0709 38.8346 22.8334C38.8346 25.5959 36.5971 27.8334 33.8346 27.8334Z" fill="#1B759B"/>
<path d="M47.168 35.3334C47.168 31.6515 50.1527 28.6667 53.8346 28.6667C57.5166 28.6667 60.5013 31.6515 60.5013 35.3334H47.168ZM53.8346 27.8334C51.0721 27.8334 48.8346 25.5959 48.8346 22.8334C48.8346 20.0709 51.0721 17.8334 53.8346 17.8334C56.5971 17.8334 58.8346 20.0709 58.8346 22.8334C58.8346 25.5959 56.5971 27.8334 53.8346 27.8334Z" fill="#1B759B"/>
<path d="M67.168 35.3334C67.168 31.6515 70.1527 28.6667 73.8346 28.6667C77.5166 28.6667 80.5013 31.6515 80.5013 35.3334H67.168ZM73.8346 27.8334C71.0721 27.8334 68.8346 25.5959 68.8346 22.8334C68.8346 20.0709 71.0721 17.8334 73.8346 17.8334C76.5971 17.8334 78.8346 20.0709 78.8346 22.8334C78.8346 25.5959 76.5971 27.8334 73.8346 27.8334Z" fill="#1B759B"/>
<path d="M87.168 35.3334C87.168 31.6515 90.1527 28.6667 93.8346 28.6667C97.5166 28.6667 100.501 31.6515 100.501 35.3334H87.168ZM93.8346 27.8334C91.0721 27.8334 88.8346 25.5959 88.8346 22.8334C88.8346 20.0709 91.0721 17.8334 93.8346 17.8334C96.5971 17.8334 98.8346 20.0709 98.8346 22.8334C98.8346 25.5959 96.5971 27.8334 93.8346 27.8334Z" fill="#1B759B"/>
<path d="M107.168 35.3334C107.168 31.6515 110.153 28.6667 113.835 28.6667C117.517 28.6667 120.501 31.6515 120.501 35.3334H107.168ZM113.835 27.8334C111.072 27.8334 108.835 25.5959 108.835 22.8334C108.835 20.0709 111.072 17.8334 113.835 17.8334C116.597 17.8334 118.835 20.0709 118.835 22.8334C118.835 25.5959 116.597 27.8334 113.835 27.8334Z" fill="#1B759B"/>
<path d="M60.8402 58V47.8182H67.3629V49.3643H62.6847V52.1286H66.9155V53.6747H62.6847V58H60.8402ZM68.8238 58V50.3636H70.6235V58H68.8238ZM69.7286 49.2798C69.4436 49.2798 69.1983 49.1854 68.9928 48.9964C68.7873 48.8042 68.6846 48.5739 68.6846 48.3054C68.6846 48.0336 68.7873 47.8033 68.9928 47.6143C69.1983 47.4221 69.4436 47.326 69.7286 47.326C70.017 47.326 70.2622 47.4221 70.4644 47.6143C70.6699 47.8033 70.7726 48.0336 70.7726 48.3054C70.7726 48.5739 70.6699 48.8042 70.4644 48.9964C70.2622 49.1854 70.017 49.2798 69.7286 49.2798ZM79.1552 50.3636L76.4357 58H74.4471L71.7276 50.3636H73.6467L75.4016 56.0362H75.4812L77.2411 50.3636H79.1552ZM83.3815 58.1491C82.6159 58.1491 81.9546 57.9901 81.3978 57.6719C80.8443 57.3504 80.4184 56.8963 80.1201 56.3097C79.8218 55.7197 79.6727 55.0253 79.6727 54.2266C79.6727 53.4411 79.8218 52.7517 80.1201 52.1584C80.4217 51.5618 80.8427 51.0978 81.3829 50.7663C81.9232 50.4316 82.5579 50.2642 83.287 50.2642C83.7577 50.2642 84.2018 50.3404 84.6194 50.4929C85.0403 50.642 85.4116 50.8741 85.7331 51.1889C86.0579 51.5038 86.3131 51.9048 86.4987 52.392C86.6843 52.8759 86.7771 53.4527 86.7771 54.1222V54.674H80.5179V53.4609H85.0519C85.0486 53.1162 84.9741 52.8097 84.8282 52.5412C84.6824 52.2694 84.4786 52.0556 84.2167 51.8999C83.9582 51.7441 83.6566 51.6662 83.3119 51.6662C82.944 51.6662 82.6208 51.7557 82.3424 51.9347C82.064 52.1103 81.8469 52.3423 81.6912 52.6307C81.5387 52.9157 81.4608 53.2289 81.4575 53.5703V54.6293C81.4575 55.0734 81.5387 55.4545 81.7011 55.7727C81.8635 56.0876 82.0905 56.3295 82.3822 56.4986C82.6739 56.6643 83.0153 56.7472 83.4063 56.7472C83.6682 56.7472 83.9052 56.7107 84.1173 56.6378C84.3294 56.5616 84.5134 56.4505 84.6691 56.3047C84.8249 56.1589 84.9426 55.9782 85.0221 55.7628L86.7025 55.9517C86.5965 56.3958 86.3943 56.7836 86.096 57.1151C85.801 57.4432 85.4232 57.6984 84.9625 57.8807C84.5018 58.0597 83.9748 58.1491 83.3815 58.1491Z" fill="#4F4F4F"/>
</svg>
