<svg width="149" height="94" viewBox="0 0 149 94" fill="none" xmlns="http://www.w3.org/2000/svg">
<path d="M22.1321 15.1612C22.1442 16.1979 22.0363 17.2018 21.8083 18.173C21.5802 19.1327 21.2432 20.0368 20.7973 20.8851C20.3629 21.7333 19.825 22.5144 19.1839 23.2283C18.554 23.9307 17.8376 24.5372 17.0345 25.0479C16.2429 25.5584 15.376 25.9616 14.4337 26.2575C13.4913 26.5419 12.4904 26.6903 11.4309 26.7026C10.4055 26.7146 9.42427 26.595 8.48703 26.3438C7.56119 26.0925 6.69112 25.7381 5.87682 25.2804C5.06238 24.8113 4.32093 24.2503 3.65247 23.5972C2.99527 22.9326 2.42842 22.1986 1.95191 21.3952C1.48665 20.5802 1.11757 19.7072 0.844667 18.7761C0.583152 17.8448 0.446489 16.8722 0.43468 15.8583C0.423136 14.8671 0.531478 13.8974 0.759706 12.949C0.987801 11.9893 1.31909 11.0853 1.75358 10.2371C2.19946 9.3887 2.73727 8.60765 3.36702 7.89389C3.99677 7.18012 4.7017 6.56233 5.48181 6.04052C6.27331 5.51857 7.1288 5.10981 8.04827 4.81425C8.96774 4.51869 9.94014 4.36494 10.9655 4.353C12.6174 4.33376 14.1242 4.57257 15.4858 5.06945C16.8589 5.56618 18.0295 6.28746 18.9976 7.23328C19.977 8.16758 20.7366 9.30952 21.2764 10.6591C21.8275 11.9972 22.1128 13.4979 22.1321 15.1612ZM14.5499 15.6939C14.5442 15.204 14.4647 14.7321 14.3113 14.2781C14.1691 13.8126 13.9593 13.4048 13.6817 13.0549C13.4041 12.6935 13.0589 12.407 12.6463 12.1953C12.2449 11.9721 11.7822 11.8635 11.2581 11.8696C10.7227 11.8759 10.2453 11.9783 9.82603 12.1769C9.40677 12.3754 9.04533 12.6474 8.74171 12.9928C8.44936 13.3266 8.22609 13.7223 8.0719 14.1798C7.91758 14.626 7.84334 15.0997 7.84918 15.601C7.85475 16.0795 7.92868 16.5572 8.07096 17.0341C8.21324 17.5109 8.42335 17.9415 8.70128 18.3256C8.97921 18.7098 9.31894 19.0192 9.72046 19.2538C10.1334 19.4882 10.6076 19.6023 11.143 19.5961C11.6784 19.5899 12.1557 19.4818 12.5749 19.2718C13.0053 19.0503 13.3665 18.7612 13.6586 18.4046C13.9506 18.0366 14.1736 17.6181 14.3276 17.1492C14.4817 16.6802 14.5558 16.1951 14.5499 15.6939ZM44.7048 10.4888C44.7152 11.3774 44.6449 12.1872 44.4939 12.9182C44.3541 13.6376 44.1226 14.3012 43.7992 14.9088C43.4759 15.5165 43.0552 16.0797 42.5371 16.5984C42.019 17.1172 41.3924 17.6144 40.6573 18.0902L44.8088 25.2884L37.1365 26.8818L34.42 19.6326L32.3018 19.7257L32.077 26.8381L24.7289 26.9237C24.7556 24.3256 24.7767 21.7389 24.7923 19.1637C24.8193 16.5883 24.8518 14.0015 24.8899 11.4032C24.8974 10.0928 24.9051 8.79382 24.9129 7.5062C24.9207 6.21859 24.9511 4.91932 25.0042 3.60839C25.7982 3.3029 26.5815 3.04881 27.3539 2.84611C28.1263 2.64342 28.8993 2.48629 29.6728 2.37474C30.4575 2.25166 31.2485 2.16838 32.0455 2.12492C32.8539 2.06993 33.6796 2.03752 34.5226 2.0277C35.8213 2.01257 37.0766 2.18026 38.2885 2.53075C39.5116 2.86972 40.5944 3.39262 41.5369 4.09947C42.4795 4.80631 43.2361 5.69193 43.8068 6.75632C44.3889 7.82057 44.6882 9.06473 44.7048 10.4888ZM37.0555 11.1248C37.0499 10.6463 36.9764 10.2085 36.8351 9.81135C36.7051 9.41408 36.5075 9.07456 36.2421 8.7928C35.988 8.49952 35.6664 8.27538 35.2772 8.1204C34.8993 7.95389 34.454 7.87362 33.9413 7.87959C33.7134 7.88225 33.4915 7.90192 33.2754 7.93862C33.0592 7.96393 32.8489 8.00626 32.6445 8.06561L32.4452 14.4258L32.8553 14.421C33.3452 14.4153 33.84 14.3469 34.3398 14.2157C34.851 14.0844 35.3045 13.8854 35.7001 13.6188C36.1072 13.352 36.4337 13.012 36.6795 12.599C36.9368 12.1858 37.0621 11.6944 37.0555 11.1248ZM66.6963 13.1381C66.7148 14.7331 66.5264 16.1652 66.131 17.4345C65.7356 18.7039 65.1734 19.8327 64.4443 20.8211C63.7264 21.798 62.8645 22.6341 61.8586 23.3294C60.8526 24.0248 59.7484 24.6016 58.546 25.06C57.3434 25.507 56.0598 25.841 54.6951 26.062C53.3418 26.2828 51.9474 26.4016 50.5119 26.4183C49.9765 26.4246 49.4523 26.4193 48.9394 26.4025C48.4263 26.3743 47.9017 26.3348 47.3656 26.2841L47.585 4.02902C48.8335 3.61569 50.1176 3.32158 51.4373 3.1467C52.7682 2.96028 54.0887 2.85945 55.3988 2.84419C57.028 2.82521 58.5287 3.03561 59.9011 3.47539C61.2735 3.91516 62.4605 4.57359 63.462 5.45065C64.4633 6.31633 65.245 7.39535 65.807 8.68772C66.3802 9.96857 66.6766 11.452 66.6963 13.1381ZM55.1524 19.8355C55.8347 19.725 56.4532 19.5127 57.0079 19.1986C57.5738 18.873 58.0592 18.48 58.464 18.0195C58.8687 17.5476 59.1759 17.0199 59.3855 16.4364C59.6065 15.8413 59.7131 15.2134 59.7054 14.5526C59.6979 13.9033 59.6225 13.3003 59.4793 12.7436C59.3359 12.1756 59.1081 11.6883 58.7957 11.2818C58.4832 10.8638 58.0749 10.5382 57.5708 10.3048C57.0667 10.06 56.4499 9.93041 55.7205 9.91612L55.1524 19.8355ZM88.2409 12.6479C88.2525 13.639 88.1957 14.631 88.0705 15.6237C86.1239 15.7717 84.1895 15.9994 82.2675 16.3066C80.3454 16.6024 78.4232 16.8983 76.5011 17.1941C76.8069 18.0109 77.2759 18.6606 77.9082 19.1432C78.5519 19.6256 79.3123 19.8618 80.1895 19.8515C80.6452 19.8462 81.1398 19.755 81.6733 19.5779C82.2181 19.4006 82.7568 19.1836 83.2893 18.9267C83.8217 18.6584 84.3311 18.3734 84.8175 18.0714C85.304 17.7695 85.7224 17.4969 86.0728 17.2535L85.3429 25.0214C84.9025 25.3683 84.4217 25.6645 83.9005 25.9098C83.3906 26.155 82.8574 26.3549 82.3009 26.5095C81.7444 26.6641 81.1817 26.7789 80.6129 26.8539C80.0441 26.9289 79.4862 26.9696 78.9394 26.976C77.8116 26.9891 76.7787 26.8473 75.841 26.5506C74.9032 26.2539 74.0495 25.8365 73.2798 25.2986C72.5214 24.7491 71.853 24.1017 71.2747 23.3565C70.6963 22.6112 70.2139 21.7965 69.8276 20.9122C69.4413 20.028 69.1456 19.0914 68.9404 18.1026C68.7351 17.1137 68.6266 16.1123 68.6148 15.0983C68.6025 14.0388 68.687 12.9782 68.8683 11.9164C69.0496 10.8547 69.3283 9.83168 69.7042 8.84742C70.0915 7.86303 70.5766 6.95155 71.1593 6.113C71.7533 5.26293 72.4453 4.51996 73.2355 3.88408C74.0257 3.24821 74.92 2.74785 75.9184 2.38301C76.9282 2.01803 78.0426 1.82844 79.2616 1.81425C80.2755 1.80244 81.2 1.93409 82.035 2.20922C82.8812 2.47282 83.6319 2.85147 84.2871 3.34518C84.9536 3.82735 85.53 4.40743 86.0165 5.08541C86.5143 5.76325 86.9218 6.51051 87.239 7.32718C87.5674 8.13233 87.8109 8.98974 87.9697 9.89941C88.1396 10.7976 88.2301 11.7137 88.2409 12.6479ZM81.3951 11.8389C81.3914 11.5199 81.3534 11.1956 81.2812 10.866C81.2089 10.5251 81.0914 10.2188 80.9287 9.94724C80.7774 9.67554 80.5755 9.45571 80.3228 9.28774C80.0701 9.10838 79.7557 9.02089 79.3798 9.02527C78.9241 9.03058 78.5211 9.16061 78.1709 9.41536C77.8319 9.65858 77.5393 9.96962 77.293 10.3485C77.0466 10.716 76.8462 11.1171 76.6917 11.5519C76.5373 11.9866 76.4223 12.3868 76.3468 12.7523L81.3995 12.2149L81.3951 11.8389ZM110.766 9.71935C110.776 10.608 110.706 11.4178 110.555 12.1487C110.415 12.8682 110.183 13.5317 109.86 14.1394C109.537 14.747 109.116 15.3102 108.598 15.829C108.08 16.3478 107.453 16.845 106.718 17.3207L110.87 24.5189L103.197 26.1123L100.481 18.8632L98.3626 18.9562L98.1378 26.0687L90.7896 26.1543C90.8163 23.5561 90.8375 20.9695 90.8531 18.3942C90.88 15.8189 90.9126 13.2321 90.9507 10.6338C90.9582 9.32339 90.9659 8.02438 90.9736 6.73677C90.9814 5.44916 91.0119 4.14988 91.065 2.83896C91.859 2.53346 92.6422 2.27937 93.4147 2.07668C94.1871 1.87398 94.96 1.71686 95.7335 1.6053C96.5183 1.48222 97.3092 1.39895 98.1063 1.35548C98.9146 1.30049 99.7403 1.26808 100.583 1.25827C101.882 1.24314 103.137 1.41082 104.349 1.76131C105.572 2.10028 106.655 2.62319 107.598 3.33003C108.54 4.03688 109.297 4.92249 109.868 5.98688C110.45 7.05114 110.749 8.2953 110.766 9.71935ZM103.116 10.3554C103.111 9.87688 103.037 9.43906 102.896 9.04192C102.766 8.64464 102.568 8.30512 102.303 8.02337C102.049 7.73008 101.727 7.50595 101.338 7.35096C100.96 7.18446 100.515 7.10419 100.002 7.11016C99.7742 7.11281 99.5522 7.13249 99.3362 7.16919C99.12 7.19449 98.9097 7.23682 98.7053 7.29617L98.5059 13.6563L98.916 13.6516C99.4059 13.6459 99.9008 13.5774 100.401 13.4463C100.912 13.315 101.365 13.116 101.761 12.8493C102.168 12.5825 102.494 12.2426 102.74 11.8296C102.998 11.4164 103.123 10.925 103.116 10.3554ZM21.8196 60.2333L13.2801 60.743L13.1198 52.8488L9.18937 52.8946L9.03731 60.3822L1.38158 60.4714L1.7511 36.4371L9.8897 36.7183L9.51994 48.994L13.3136 48.9498L13.1942 35.7569L20.989 35.8712L21.8196 60.2333ZM43.7531 46.1683C43.7647 47.1595 43.7079 48.1514 43.5827 49.1441C41.636 49.2921 39.7017 49.5198 37.7797 49.827C35.8576 50.1228 33.9354 50.4187 32.0133 50.7145C32.319 51.5313 32.7881 52.181 33.4204 52.6636C34.064 53.146 34.8245 53.3822 35.7017 53.3719C36.1574 53.3666 36.652 53.2754 37.1854 53.0983C37.7303 52.921 38.269 52.704 38.8015 52.4471C39.3339 52.1788 39.8433 51.8938 40.3297 51.5918C40.8162 51.2899 41.2346 51.0173 41.5849 50.7739L40.855 58.5418C40.4147 58.8887 39.9339 59.1849 39.4127 59.4302C38.9028 59.6754 38.3696 59.8753 37.8131 60.0299C37.2566 60.1845 36.6939 60.2993 36.1251 60.3743C35.5563 60.4493 34.9984 60.49 34.4516 60.4964C33.3237 60.5095 32.2909 60.3677 31.3532 60.071C30.4154 59.7743 29.5617 59.3569 28.792 58.819C28.0336 58.2695 27.3652 57.6222 26.7869 56.8769C26.2085 56.1316 25.7261 55.3169 25.3398 54.4326C24.9535 53.5484 24.6578 52.6118 24.4526 51.623C24.2473 50.6341 24.1388 49.6327 24.127 48.6187C24.1147 47.5592 24.1992 46.4986 24.3805 45.4369C24.5618 44.3751 24.8405 43.3521 25.2164 42.3678C25.6037 41.3834 26.0887 40.472 26.6715 39.6334C27.2654 38.7833 27.9575 38.0404 28.7477 37.4045C29.5379 36.7686 30.4322 36.2683 31.4306 35.9034C32.4404 35.5384 33.5548 35.3488 34.7738 35.3347C35.7877 35.3228 36.7122 35.4545 37.5471 35.7296C38.3934 35.9932 39.1441 36.3719 39.7993 36.8656C40.4658 37.3478 41.0422 37.9278 41.5287 38.6058C42.0265 39.2837 42.434 40.0309 42.7511 40.8476C43.0796 41.6527 43.3231 42.5101 43.4818 43.4198C43.6518 44.318 43.7422 45.2341 43.7531 46.1683ZM36.9073 45.3593C36.9036 45.0403 36.8656 44.716 36.7934 44.3865C36.7211 44.0455 36.6036 43.7392 36.4409 43.4676C36.2896 43.1959 36.0877 42.9761 35.835 42.8081C35.5823 42.6288 35.2679 42.5413 34.892 42.5457C34.4363 42.551 34.0333 42.681 33.6831 42.9358C33.3441 43.179 33.0514 43.49 32.8052 43.8689C32.5588 44.2364 32.3584 44.6375 32.2039 45.0723C32.0495 45.507 31.9345 45.9072 31.859 46.2727L36.9117 45.7353L36.9073 45.3593ZM67.0165 58.2371L58.5532 59.4295L57.4829 55.5794L53.5867 55.6247L52.7772 59.4967L44.052 58.7438L50.5882 35.9025L60.084 35.3133L67.0165 58.2371ZM56.8068 50.3574L55.4388 44.4256L54.2435 50.3872L56.8068 50.3574ZM83.6736 50.4546L83.0443 58.0504L68.6687 59.3458L68.9313 34.9368L77.8175 34.8333L76.7356 50.5354L83.6736 50.4546ZM101.064 35.212L100.978 42.4596L95.8877 42.724L95.4573 58.5894L88.2502 59.0494L87.4161 43.1986L82.3269 43.5314L82.438 35.4631L101.064 35.212ZM123.995 58.3596L115.456 58.8692L115.303 51.6586L111.373 51.7044L111.221 59.192L103.565 59.2812L103.935 35.2469L112.073 35.5281L111.703 47.8038L115.497 47.7596L115.382 34.9085L123.176 35.0228L123.995 58.3596ZM147.827 35.6244L139.949 48.8421L140.3 58.5115L131.517 58.6138L131.61 49.0076L125.208 36.4006L133.91 35.2054L136.731 42.5559L139.618 35.1389L147.827 35.6244ZM28.0486 68.2443L26.7687 93.3488L18.9802 93.7813L18.8945 80.5539L15.4984 91.2582L12.4908 91.2933L9.67974 81.7892L9.77454 92.8631L1.88236 93.1943L1.94906 69.5738L10.7287 69.1297L14.3465 80.4018L18.8549 68.3514L28.0486 68.2443ZM49.7426 79.1008C49.7541 80.0919 49.6973 81.0839 49.5721 82.0766C47.6255 82.2246 45.6911 82.4522 43.7691 82.7595C41.847 83.0553 39.9249 83.3512 38.0027 83.647C38.3085 84.4638 38.7775 85.1135 39.4098 85.5961C40.0535 86.0785 40.8139 86.3146 41.6911 86.3044C42.1468 86.2991 42.6414 86.2079 43.1749 86.0308C43.7197 85.8535 44.2584 85.6365 44.7909 85.3796C45.3233 85.1113 45.8327 84.8262 46.3192 84.5243C46.8056 84.2224 47.224 83.9498 47.5744 83.7064L46.8445 91.4742C46.4041 91.8212 45.9234 92.1173 45.4021 92.3627C44.8922 92.6079 44.359 92.8078 43.8025 92.9624C43.246 93.117 42.6833 93.2318 42.1145 93.3068C41.5457 93.3818 40.9879 93.4225 40.441 93.4288C39.3132 93.442 38.2804 93.3002 37.3426 93.0035C36.4048 92.7068 35.5511 92.2894 34.7815 91.7515C34.023 91.202 33.3547 90.5546 32.7763 89.8094C32.1979 89.0641 31.7156 88.2493 31.3293 87.3651C30.943 86.4809 30.6472 85.5443 30.442 84.5554C30.2368 83.5665 30.1283 82.5651 30.1164 81.5512C30.1041 80.4917 30.1886 79.4311 30.3699 78.3693C30.5513 77.3076 30.8299 76.2846 31.2058 75.3003C31.5931 74.3159 32.0782 73.4044 32.6609 72.5659C33.2549 71.7158 33.9469 70.9728 34.7371 70.337C35.5273 69.7011 36.4216 69.2007 37.42 68.8359C38.4298 68.4709 39.5442 68.2813 40.7632 68.2671C41.7772 68.2553 42.7016 68.387 43.5366 68.6621C44.3828 68.9257 45.1335 69.3044 45.7887 69.7981C46.4552 70.2802 47.0316 70.8603 47.5181 71.5383C48.0159 72.2161 48.4234 72.9634 48.7406 73.7801C49.069 74.5852 49.3125 75.4426 49.4713 76.3523C49.6412 77.2504 49.7317 78.1666 49.7426 79.1008ZM42.8967 78.2918C42.893 77.9728 42.8551 77.6485 42.7829 77.3189C42.7105 76.9779 42.593 76.6717 42.4303 76.4001C42.279 76.1284 42.0771 75.9086 41.8245 75.7406C41.5717 75.5613 41.2574 75.4738 40.8814 75.4782C40.4257 75.4835 40.0227 75.6135 39.6725 75.8682C39.3335 76.1115 39.0409 76.4225 38.7946 76.8014C38.5482 77.1689 38.3478 77.57 38.1934 78.0047C38.0389 78.4395 37.9239 78.8397 37.8484 79.2051L42.9011 78.6677L42.8967 78.2918ZM73.0059 91.1695L64.5426 92.3619L63.4723 88.5118L59.5761 88.5572L58.7667 92.4292L50.0415 91.6763L56.5777 68.8349L66.0734 68.2458L73.0059 91.1695ZM62.7962 83.2899L61.4282 77.3581L60.2329 83.3197L62.7962 83.2899ZM89.663 83.3871L89.0337 90.9828L74.6582 92.2783L74.9208 67.8693L83.8069 67.7658L82.725 83.4679L89.663 83.3871Z" fill="white"/>
</svg>
