<svg width="147" height="80" viewBox="0 0 147 80" fill="none" xmlns="http://www.w3.org/2000/svg">
<rect x="0.5" y="0.5" width="145.337" height="79" rx="7.5" fill="white"/>
<rect x="0.5" y="0.5" width="145.337" height="79" rx="7.5" stroke="#C9C9C9" stroke-dasharray="2 2"/>
<path d="M36.5 35.3334C36.5 31.6515 39.4848 28.6667 43.1667 28.6667C46.8486 28.6667 49.8333 31.6515 49.8333 35.3334H36.5ZM43.1667 27.8334C40.4042 27.8334 38.1667 25.5959 38.1667 22.8334C38.1667 20.0709 40.4042 17.8334 43.1667 17.8334C45.9292 17.8334 48.1667 20.0709 48.1667 22.8334C48.1667 25.5959 45.9292 27.8334 43.1667 27.8334Z" fill="#1B759B"/>
<path d="M56.5 35.3334C56.5 31.6515 59.4848 28.6667 63.1667 28.6667C66.8486 28.6667 69.8333 31.6515 69.8333 35.3334H56.5ZM63.1667 27.8334C60.4042 27.8334 58.1667 25.5959 58.1667 22.8334C58.1667 20.0709 60.4042 17.8334 63.1667 17.8334C65.9292 17.8334 68.1667 20.0709 68.1667 22.8334C68.1667 25.5959 65.9292 27.8334 63.1667 27.8334Z" fill="#1B759B"/>
<path d="M76.5 35.3334C76.5 31.6515 79.4848 28.6667 83.1667 28.6667C86.8486 28.6667 89.8333 31.6515 89.8333 35.3334H76.5ZM83.1667 27.8334C80.4042 27.8334 78.1667 25.5959 78.1667 22.8334C78.1667 20.0709 80.4042 17.8334 83.1667 17.8334C85.9292 17.8334 88.1667 20.0709 88.1667 22.8334C88.1667 25.5959 85.9292 27.8334 83.1667 27.8334Z" fill="#1B759B"/>
<path d="M96.5 35.3334C96.5 31.6515 99.4848 28.6667 103.167 28.6667C106.849 28.6667 109.833 31.6515 109.833 35.3334H96.5ZM103.167 27.8334C100.404 27.8334 98.1667 25.5959 98.1667 22.8334C98.1667 20.0709 100.404 17.8334 103.167 17.8334C105.929 17.8334 108.167 20.0709 108.167 22.8334C108.167 25.5959 105.929 27.8334 103.167 27.8334Z" fill="#1B759B"/>
<path d="M42.9656 54.5795H44.636L45.6254 55.8622L46.3313 56.6974L48.0266 58.875H46.2369L45.0835 57.4134L44.5913 56.7173L42.9656 54.5795ZM48.2702 52.9091C48.2702 54.0062 48.0647 54.9458 47.6538 55.728C47.2461 56.5069 46.6893 57.1035 45.9833 57.5178C45.2807 57.9321 44.4835 58.1392 43.592 58.1392C42.7004 58.1392 41.9016 57.9321 41.1957 57.5178C40.493 57.1001 39.9362 56.5019 39.5252 55.723C39.1175 54.9408 38.9137 54.0028 38.9137 52.9091C38.9137 51.812 39.1175 50.8741 39.5252 50.0952C39.9362 49.313 40.493 48.7147 41.1957 48.3004C41.9016 47.8861 42.7004 47.679 43.592 47.679C44.4835 47.679 45.2807 47.8861 45.9833 48.3004C46.6893 48.7147 47.2461 49.313 47.6538 50.0952C48.0647 50.8741 48.2702 51.812 48.2702 52.9091ZM46.4158 52.9091C46.4158 52.1368 46.2949 51.4856 46.0529 50.9553C45.8143 50.4216 45.4828 50.0189 45.0586 49.7472C44.6344 49.4721 44.1455 49.3345 43.592 49.3345C43.0385 49.3345 42.5496 49.4721 42.1254 49.7472C41.7011 50.0189 41.368 50.4216 41.1261 50.9553C40.8874 51.4856 40.7681 52.1368 40.7681 52.9091C40.7681 53.6813 40.8874 54.3343 41.1261 54.8679C41.368 55.3982 41.7011 55.8009 42.1254 56.076C42.5496 56.3478 43.0385 56.4837 43.592 56.4837C44.1455 56.4837 44.6344 56.3478 45.0586 56.076C45.4828 55.8009 45.8143 55.3982 46.0529 54.8679C46.2949 54.3343 46.4158 53.6813 46.4158 52.9091ZM54.6753 54.7884V50.3636H56.4751V58H54.73V56.6428H54.6505C54.4781 57.0703 54.1948 57.42 53.8003 57.6918C53.4092 57.9635 52.927 58.0994 52.3536 58.0994C51.8531 58.0994 51.4107 57.9884 51.0262 57.7663C50.645 57.541 50.3467 57.2145 50.1313 56.7869C49.9159 56.3561 49.8082 55.8357 49.8082 55.2259V50.3636H51.6079V54.9474C51.6079 55.4313 51.7404 55.8158 52.0056 56.1009C52.2707 56.3859 52.6188 56.5284 53.0496 56.5284C53.3148 56.5284 53.5716 56.4638 53.8202 56.3345C54.0688 56.2053 54.2726 56.013 54.4317 55.7578C54.5941 55.4993 54.6753 55.1761 54.6753 54.7884ZM60.3832 58.1541C59.8993 58.1541 59.4634 58.0679 59.0756 57.8956C58.6912 57.7199 58.3863 57.4614 58.1609 57.12C57.9388 56.7786 57.8278 56.3577 57.8278 55.8572C57.8278 55.4264 57.9073 55.0701 58.0664 54.7884C58.2255 54.5066 58.4426 54.2812 58.7177 54.1122C58.9928 53.9432 59.3027 53.8156 59.6474 53.7294C59.9954 53.6399 60.355 53.5753 60.7262 53.5355C61.1737 53.4891 61.5366 53.4477 61.815 53.4112C62.0934 53.3714 62.2956 53.3118 62.4215 53.2322C62.5508 53.1494 62.6154 53.0218 62.6154 52.8494V52.8196C62.6154 52.4451 62.5044 52.1551 62.2823 51.9496C62.0603 51.7441 61.7404 51.6413 61.3228 51.6413C60.882 51.6413 60.5323 51.7375 60.2738 51.9297C60.0186 52.1219 59.8462 52.349 59.7568 52.6108L58.0764 52.3722C58.2089 51.9081 58.4277 51.5204 58.7326 51.2088C59.0375 50.8939 59.4104 50.6586 59.8512 50.5028C60.292 50.3438 60.7792 50.2642 61.3129 50.2642C61.6808 50.2642 62.047 50.3073 62.4116 50.3935C62.7762 50.4796 63.1093 50.6222 63.4109 50.821C63.7125 51.0166 63.9544 51.2834 64.1367 51.6214C64.3223 51.9595 64.4151 52.3821 64.4151 52.8892V58H62.685V56.951H62.6254C62.516 57.1631 62.3619 57.362 62.163 57.5476C61.9675 57.7299 61.7205 57.8774 61.4222 57.9901C61.1273 58.0994 60.7809 58.1541 60.3832 58.1541ZM60.8505 56.8317C61.2118 56.8317 61.525 56.7604 61.7901 56.6179C62.0553 56.4721 62.2591 56.2798 62.4016 56.0412C62.5475 55.8026 62.6204 55.5424 62.6204 55.2607V54.3608C62.564 54.4072 62.4679 54.4503 62.332 54.4901C62.1995 54.5298 62.0503 54.5646 61.8846 54.5945C61.7189 54.6243 61.5548 54.6508 61.3924 54.674C61.23 54.6972 61.0891 54.7171 60.9698 54.7337C60.7014 54.7701 60.4611 54.8298 60.2489 54.9126C60.0368 54.9955 59.8694 55.1115 59.7468 55.2607C59.6242 55.4065 59.5629 55.5954 59.5629 55.8274C59.5629 56.1589 59.6838 56.4091 59.9258 56.5781C60.1677 56.7472 60.476 56.8317 60.8505 56.8317ZM68.9186 58.1342C68.3187 58.1342 67.7818 57.9801 67.3078 57.6719C66.8338 57.3636 66.4593 56.9162 66.1842 56.3295C65.9091 55.7429 65.7716 55.0303 65.7716 54.1918C65.7716 53.3433 65.9108 52.6274 66.1892 52.044C66.4709 51.4574 66.8504 51.0149 67.3277 50.7166C67.805 50.415 68.3369 50.2642 68.9236 50.2642C69.371 50.2642 69.7389 50.3404 70.0273 50.4929C70.3156 50.642 70.5443 50.8227 70.7133 51.0348C70.8824 51.2436 71.0133 51.4408 71.1061 51.6264H71.1807V47.8182H72.9854V58H71.2155V56.7969H71.1061C71.0133 56.9825 70.8791 57.1797 70.7034 57.3885C70.5277 57.594 70.2957 57.7696 70.0074 57.9155C69.719 58.0613 69.3561 58.1342 68.9186 58.1342ZM69.4207 56.6577C69.8019 56.6577 70.1267 56.5549 70.3952 56.3494C70.6636 56.1406 70.8675 55.8506 71.0067 55.4794C71.1459 55.1082 71.2155 54.6757 71.2155 54.1818C71.2155 53.688 71.1459 53.2588 71.0067 52.8942C70.8708 52.5296 70.6686 52.2462 70.4001 52.044C70.135 51.8419 69.8085 51.7408 69.4207 51.7408C69.0197 51.7408 68.6849 51.8452 68.4165 52.054C68.148 52.2628 67.9458 52.5511 67.8099 52.919C67.674 53.2869 67.6061 53.7079 67.6061 54.1818C67.6061 54.6591 67.674 55.085 67.8099 55.4595C67.9491 55.8307 68.153 56.1241 68.4214 56.3395C68.6932 56.5516 69.0263 56.6577 69.4207 56.6577ZM74.7632 58V50.3636H76.5082V51.6364H76.5877C76.7269 51.1955 76.9656 50.8558 77.3036 50.6172C77.645 50.3752 78.0345 50.2543 78.472 50.2543C78.5714 50.2543 78.6824 50.2592 78.8051 50.2692C78.931 50.2758 79.0354 50.2874 79.1183 50.304V51.9595C79.042 51.933 78.9211 51.9098 78.7553 51.8899C78.5929 51.8667 78.4355 51.8551 78.283 51.8551C77.9549 51.8551 77.6599 51.9264 77.3981 52.0689C77.1396 52.2081 76.9357 52.402 76.7866 52.6506C76.6374 52.8991 76.5629 53.1858 76.5629 53.5107V58H74.7632ZM85.0411 54.7884V50.3636H86.8408V58H85.0958V56.6428H85.0163C84.8439 57.0703 84.5605 57.42 84.1661 57.6918C83.775 57.9635 83.2928 58.0994 82.7194 58.0994C82.2189 58.0994 81.7764 57.9884 81.392 57.7663C81.0108 57.541 80.7125 57.2145 80.4971 56.7869C80.2817 56.3561 80.1739 55.8357 80.1739 55.2259V50.3636H81.9736V54.9474C81.9736 55.4313 82.1062 55.8158 82.3714 56.1009C82.6365 56.3859 82.9845 56.5284 83.4154 56.5284C83.6806 56.5284 83.9374 56.4638 84.186 56.3345C84.4346 56.2053 84.6384 56.013 84.7975 55.7578C84.9599 55.4993 85.0411 55.1761 85.0411 54.7884ZM88.5515 60.8636V50.3636H90.3214V51.6264H90.4258C90.5186 51.4408 90.6495 51.2436 90.8186 51.0348C90.9876 50.8227 91.2163 50.642 91.5046 50.4929C91.793 50.3404 92.1609 50.2642 92.6083 50.2642C93.1983 50.2642 93.7303 50.415 94.2042 50.7166C94.6815 51.0149 95.0593 51.4574 95.3377 52.044C95.6195 52.6274 95.7603 53.3433 95.7603 54.1918C95.7603 55.0303 95.6228 55.7429 95.3477 56.3295C95.0726 56.9162 94.6981 57.3636 94.2241 57.6719C93.7501 57.9801 93.2132 58.1342 92.6133 58.1342C92.1758 58.1342 91.8129 58.0613 91.5245 57.9155C91.2362 57.7696 91.0042 57.594 90.8285 57.3885C90.6562 57.1797 90.5219 56.9825 90.4258 56.7969H90.3512V60.8636H88.5515ZM90.3164 54.1818C90.3164 54.6757 90.386 55.1082 90.5252 55.4794C90.6678 55.8506 90.8716 56.1406 91.1367 56.3494C91.4052 56.5549 91.73 56.6577 92.1112 56.6577C92.5089 56.6577 92.842 56.5516 93.1105 56.3395C93.3789 56.1241 93.5811 55.8307 93.717 55.4595C93.8562 55.085 93.9258 54.6591 93.9258 54.1818C93.9258 53.7079 93.8579 53.2869 93.722 52.919C93.5861 52.5511 93.3839 52.2628 93.1154 52.054C92.847 51.8452 92.5122 51.7408 92.1112 51.7408C91.7267 51.7408 91.4002 51.8419 91.1318 52.044C90.8633 52.2462 90.6595 52.5296 90.5203 52.8942C90.3844 53.2588 90.3164 53.688 90.3164 54.1818ZM98.9612 47.8182V58H97.1615V47.8182H98.9612ZM104.053 58.1491C103.287 58.1491 102.626 57.9901 102.069 57.6719C101.515 57.3504 101.09 56.8963 100.791 56.3097C100.493 55.7197 100.344 55.0253 100.344 54.2266C100.344 53.4411 100.493 52.7517 100.791 52.1584C101.093 51.5618 101.514 51.0978 102.054 50.7663C102.594 50.4316 103.229 50.2642 103.958 50.2642C104.429 50.2642 104.873 50.3404 105.291 50.4929C105.711 50.642 106.083 50.8741 106.404 51.1889C106.729 51.5038 106.984 51.9048 107.17 52.392C107.355 52.8759 107.448 53.4527 107.448 54.1222V54.674H101.189V53.4609H105.723C105.72 53.1162 105.645 52.8097 105.499 52.5412C105.353 52.2694 105.15 52.0556 104.888 51.8999C104.629 51.7441 104.328 51.6662 103.983 51.6662C103.615 51.6662 103.292 51.7557 103.014 51.9347C102.735 52.1103 102.518 52.3423 102.362 52.6307C102.21 52.9157 102.132 53.2289 102.129 53.5703V54.6293C102.129 55.0734 102.21 55.4545 102.372 55.7727C102.535 56.0876 102.762 56.3295 103.053 56.4986C103.345 56.6643 103.686 56.7472 104.077 56.7472C104.339 56.7472 104.576 56.7107 104.788 56.6378C105.001 56.5616 105.184 56.4505 105.34 56.3047C105.496 56.1589 105.614 55.9782 105.693 55.7628L107.374 55.9517C107.268 56.3958 107.065 56.7836 106.767 57.1151C106.472 57.4432 106.094 57.6984 105.634 57.8807C105.173 58.0597 104.646 58.1491 104.053 58.1491Z" fill="#4F4F4F"/>
</svg>
