<svg width="147" height="80" viewBox="0 0 147 80" fill="none" xmlns="http://www.w3.org/2000/svg">
<rect x="0.5" y="0.5" width="145.337" height="79" rx="7.5" fill="white"/>
<rect x="0.5" y="0.5" width="145.337" height="79" rx="7.5" stroke="#C9C9C9" stroke-dasharray="2 2"/>
<path d="M66.5 35.3334C66.5 31.6515 69.4848 28.6667 73.1667 28.6667C76.8486 28.6667 79.8333 31.6515 79.8333 35.3334H66.5ZM73.1667 27.8334C70.4042 27.8334 68.1667 25.5959 68.1667 22.8334C68.1667 20.0709 70.4042 17.8334 73.1667 17.8334C75.9292 17.8334 78.1667 20.0709 78.1667 22.8334C78.1667 25.5959 75.9292 27.8334 73.1667 27.8334Z" fill="#307C94"/>
<path d="M58.7056 50.6172C58.6592 50.183 58.4637 49.8449 58.119 49.603C57.7776 49.361 57.3335 49.2401 56.7866 49.2401C56.4021 49.2401 56.0723 49.2981 55.7972 49.4141C55.5221 49.5301 55.3117 49.6875 55.1658 49.8864C55.02 50.0852 54.9454 50.3123 54.9421 50.5675C54.9421 50.7796 54.9902 50.9635 55.0863 51.1193C55.1857 51.2751 55.32 51.4077 55.489 51.517C55.658 51.6231 55.8453 51.7126 56.0508 51.7855C56.2563 51.8584 56.4634 51.9197 56.6722 51.9695L57.6268 52.2081C58.0112 52.2976 58.3808 52.4186 58.7354 52.571C59.0934 52.7235 59.4132 52.9157 59.695 53.1477C59.98 53.3797 60.2054 53.6598 60.3711 53.9879C60.5368 54.3161 60.6197 54.7005 60.6197 55.1413C60.6197 55.7379 60.4672 56.2633 60.1623 56.7173C59.8574 57.1681 59.4165 57.5211 58.8398 57.7763C58.2665 58.0282 57.5721 58.1541 56.7567 58.1541C55.9646 58.1541 55.2769 58.0315 54.6935 57.7862C54.1135 57.541 53.6594 57.183 53.3313 56.7124C53.0065 56.2417 52.8308 55.6683 52.8043 54.9922H54.619C54.6455 55.3468 54.7549 55.6418 54.9471 55.8771C55.1393 56.1125 55.3896 56.2881 55.6978 56.4041C56.0094 56.5201 56.3574 56.5781 56.7418 56.5781C57.1429 56.5781 57.4942 56.5185 57.7958 56.3991C58.1007 56.2765 58.3394 56.1075 58.5117 55.892C58.6841 55.6733 58.7719 55.4181 58.7752 55.1264C58.7719 54.8613 58.694 54.6425 58.5415 54.4702C58.3891 54.2945 58.1753 54.1487 57.9002 54.0327C57.6284 53.9134 57.3103 53.8073 56.9457 53.7145L55.7873 53.4162C54.9487 53.2008 54.2859 52.8743 53.7987 52.4368C53.3147 51.996 53.0728 51.411 53.0728 50.6818C53.0728 50.0819 53.2352 49.5566 53.56 49.1058C53.8881 48.6551 54.3339 48.3054 54.8974 48.0568C55.4608 47.8049 56.0988 47.679 56.8114 47.679C57.534 47.679 58.167 47.8049 58.7106 48.0568C59.2575 48.3054 59.6867 48.6518 59.9982 49.0959C60.3098 49.5367 60.4705 50.0438 60.4805 50.6172H58.7056ZM62.0445 58V50.3636H63.8442V58H62.0445ZM62.9493 49.2798C62.6643 49.2798 62.419 49.1854 62.2135 48.9964C62.008 48.8042 61.9053 48.5739 61.9053 48.3054C61.9053 48.0336 62.008 47.8033 62.2135 47.6143C62.419 47.4221 62.6643 47.326 62.9493 47.326C63.2377 47.326 63.4829 47.4221 63.6851 47.6143C63.8906 47.8033 63.9933 48.0336 63.9933 48.3054C63.9933 48.5739 63.8906 48.8042 63.6851 48.9964C63.4829 49.1854 63.2377 49.2798 62.9493 49.2798ZM67.3546 53.5256V58H65.5549V50.3636H67.275V51.6612H67.3645C67.5402 51.2337 67.8203 50.8939 68.2047 50.642C68.5925 50.3902 69.0714 50.2642 69.6415 50.2642C70.1685 50.2642 70.6276 50.3769 71.0187 50.6023C71.4131 50.8277 71.718 51.1541 71.9334 51.5817C72.1522 52.0092 72.2599 52.5279 72.2566 53.1378V58H70.4569V53.4162C70.4569 52.9058 70.3243 52.5064 70.0591 52.218C69.7973 51.9297 69.4344 51.7855 68.9704 51.7855C68.6555 51.7855 68.3754 51.8551 68.1302 51.9943C67.8882 52.1302 67.6976 52.3274 67.5584 52.5859C67.4225 52.8445 67.3546 53.1577 67.3546 53.5256ZM77.2671 61.0227C76.6208 61.0227 76.0657 60.9349 75.6017 60.7592C75.1376 60.5869 74.7648 60.3549 74.4831 60.0632C74.2013 59.7715 74.0058 59.4484 73.8964 59.0938L75.5171 58.701C75.5901 58.8501 75.6961 58.9976 75.8353 59.1435C75.9745 59.2926 76.1618 59.4152 76.3971 59.5114C76.6358 59.6108 76.9357 59.6605 77.297 59.6605C77.8074 59.6605 78.23 59.5362 78.5647 59.2876C78.8995 59.0424 79.0669 58.638 79.0669 58.0746V56.6278H78.9774C78.8846 56.8134 78.7487 57.004 78.5697 57.1996C78.394 57.3951 78.1604 57.5592 77.8687 57.6918C77.5804 57.8243 77.2174 57.8906 76.7799 57.8906C76.1933 57.8906 75.6613 57.7531 75.184 57.478C74.7101 57.1996 74.3322 56.7853 74.0505 56.2351C73.7721 55.6816 73.6329 54.9889 73.6329 54.157C73.6329 53.3184 73.7721 52.6108 74.0505 52.0341C74.3322 51.4541 74.7117 51.0149 75.189 50.7166C75.6663 50.415 76.1983 50.2642 76.7849 50.2642C77.2323 50.2642 77.6002 50.3404 77.8886 50.4929C78.1803 50.642 78.4123 50.8227 78.5846 51.0348C78.757 51.2436 78.8879 51.4408 78.9774 51.6264H79.0768V50.3636H80.8517V58.1243C80.8517 58.7772 80.6959 59.3175 80.3843 59.745C80.0728 60.1726 79.6469 60.4924 79.1066 60.7045C78.5664 60.9167 77.9532 61.0227 77.2671 61.0227ZM77.2821 56.4787C77.6632 56.4787 77.988 56.3859 78.2565 56.2003C78.525 56.0147 78.7288 55.7479 78.868 55.3999C79.0072 55.0518 79.0768 54.6342 79.0768 54.147C79.0768 53.6664 79.0072 53.2455 78.868 52.8842C78.7321 52.523 78.5299 52.2429 78.2615 52.044C77.9963 51.8419 77.6698 51.7408 77.2821 51.7408C76.881 51.7408 76.5463 51.8452 76.2778 52.054C76.0093 52.2628 75.8072 52.5495 75.6713 52.9141C75.5354 53.2753 75.4674 53.6863 75.4674 54.147C75.4674 54.6143 75.5354 55.0237 75.6713 55.375C75.8105 55.723 76.0143 55.9948 76.2828 56.1903C76.5546 56.3826 76.8876 56.4787 77.2821 56.4787ZM84.3558 47.8182V58H82.5561V47.8182H84.3558ZM89.4472 58.1491C88.6816 58.1491 88.0203 57.9901 87.4635 57.6719C86.91 57.3504 86.4841 56.8963 86.1858 56.3097C85.8875 55.7197 85.7384 55.0253 85.7384 54.2266C85.7384 53.4411 85.8875 52.7517 86.1858 52.1584C86.4874 51.5618 86.9084 51.0978 87.4486 50.7663C87.9889 50.4316 88.6236 50.2642 89.3527 50.2642C89.8234 50.2642 90.2675 50.3404 90.6851 50.4929C91.106 50.642 91.4773 50.8741 91.7988 51.1889C92.1236 51.5038 92.3788 51.9048 92.5644 52.392C92.75 52.8759 92.8428 53.4527 92.8428 54.1222V54.674H86.5836V53.4609H91.1176C91.1143 53.1162 91.0398 52.8097 90.8939 52.5412C90.7481 52.2694 90.5443 52.0556 90.2824 51.8999C90.0239 51.7441 89.7223 51.6662 89.3776 51.6662C89.0097 51.6662 88.6865 51.7557 88.4081 51.9347C88.1297 52.1103 87.9126 52.3423 87.7569 52.6307C87.6044 52.9157 87.5265 53.2289 87.5232 53.5703V54.6293C87.5232 55.0734 87.6044 55.4545 87.7668 55.7727C87.9292 56.0876 88.1562 56.3295 88.4479 56.4986C88.7396 56.6643 89.081 56.7472 89.4721 56.7472C89.7339 56.7472 89.9709 56.7107 90.183 56.6378C90.3951 56.5616 90.5791 56.4505 90.7348 56.3047C90.8906 56.1589 91.0083 55.9782 91.0878 55.7628L92.7682 55.9517C92.6622 56.3958 92.46 56.7836 92.1617 57.1151C91.8667 57.4432 91.4889 57.6984 91.0282 57.8807C90.5675 58.0597 90.0405 58.1491 89.4472 58.1491Z" fill="#3A3B4F"/>
</svg>
