<svg width="147" height="80" viewBox="0 0 147 80" fill="none" xmlns="http://www.w3.org/2000/svg">
<rect x="0.832031" y="0.5" width="145.337" height="79" rx="7.5" fill="white"/>
<rect x="0.832031" y="0.5" width="145.337" height="79" rx="7.5" stroke="#C9C9C9" stroke-dasharray="2 2"/>
<path d="M16.832 35.3334C16.832 31.6515 19.8168 28.6667 23.4987 28.6667C27.1806 28.6667 30.1654 31.6515 30.1654 35.3334H16.832ZM23.4987 27.8334C20.7362 27.8334 18.4987 25.5959 18.4987 22.8334C18.4987 20.0709 20.7362 17.8334 23.4987 17.8334C26.2612 17.8334 28.4987 20.0709 28.4987 22.8334C28.4987 25.5959 26.2612 27.8334 23.4987 27.8334Z" fill="#1B759B"/>
<path d="M36.832 35.3334C36.832 31.6515 39.8168 28.6667 43.4987 28.6667C47.1806 28.6667 50.1654 31.6515 50.1654 35.3334H36.832ZM43.4987 27.8334C40.7362 27.8334 38.4987 25.5959 38.4987 22.8334C38.4987 20.0709 40.7362 17.8334 43.4987 17.8334C46.2612 17.8334 48.4987 20.0709 48.4987 22.8334C48.4987 25.5959 46.2612 27.8334 43.4987 27.8334Z" fill="#1B759B"/>
<path d="M56.832 35.3334C56.832 31.6515 59.8168 28.6667 63.4987 28.6667C67.1806 28.6667 70.1654 31.6515 70.1654 35.3334H56.832ZM63.4987 27.8334C60.7362 27.8334 58.4987 25.5959 58.4987 22.8334C58.4987 20.0709 60.7362 17.8334 63.4987 17.8334C66.2612 17.8334 68.4987 20.0709 68.4987 22.8334C68.4987 25.5959 66.2612 27.8334 63.4987 27.8334Z" fill="#1B759B"/>
<path d="M76.832 35.3334C76.832 31.6515 79.8168 28.6667 83.4987 28.6667C87.1806 28.6667 90.1654 31.6515 90.1654 35.3334H76.832ZM83.4987 27.8334C80.7362 27.8334 78.4987 25.5959 78.4987 22.8334C78.4987 20.0709 80.7362 17.8334 83.4987 17.8334C86.2612 17.8334 88.4987 20.0709 88.4987 22.8334C88.4987 25.5959 86.2612 27.8334 83.4987 27.8334Z" fill="#1B759B"/>
<path d="M96.832 35.3334C96.832 31.6515 99.8168 28.6667 103.499 28.6667C107.181 28.6667 110.165 31.6515 110.165 35.3334H96.832ZM103.499 27.8334C100.736 27.8334 98.4987 25.5959 98.4987 22.8334C98.4987 20.0709 100.736 17.8334 103.499 17.8334C106.261 17.8334 108.499 20.0709 108.499 22.8334C108.499 25.5959 106.261 27.8334 103.499 27.8334Z" fill="#1B759B"/>
<path d="M116.832 35.3334C116.832 31.6515 119.817 28.6667 123.499 28.6667C127.181 28.6667 130.165 31.6515 130.165 35.3334H116.832ZM123.499 27.8334C120.736 27.8334 118.499 25.5959 118.499 22.8334C118.499 20.0709 120.736 17.8334 123.499 17.8334C126.261 17.8334 128.499 20.0709 128.499 22.8334C128.499 25.5959 126.261 27.8334 123.499 27.8334Z" fill="#1B759B"/>
<path d="M69.5376 50.6172C69.4912 50.183 69.2957 49.8449 68.951 49.603C68.6096 49.361 68.1655 49.2401 67.6186 49.2401C67.2341 49.2401 66.9044 49.2981 66.6293 49.4141C66.3542 49.5301 66.1437 49.6875 65.9979 49.8864C65.852 50.0852 65.7775 50.3123 65.7741 50.5675C65.7741 50.7796 65.8222 50.9635 65.9183 51.1193C66.0178 51.2751 66.152 51.4077 66.321 51.517C66.4901 51.6231 66.6773 51.7126 66.8828 51.7855C67.0883 51.8584 67.2955 51.9197 67.5043 51.9695L68.4588 52.2081C68.8433 52.2976 69.2128 52.4186 69.5675 52.571C69.9254 52.7235 70.2453 52.9157 70.527 53.1477C70.812 53.3797 71.0374 53.6598 71.2031 53.9879C71.3688 54.3161 71.4517 54.7005 71.4517 55.1413C71.4517 55.7379 71.2992 56.2633 70.9943 56.7173C70.6894 57.1681 70.2486 57.5211 69.6719 57.7763C69.0985 58.0282 68.4041 58.1541 67.5888 58.1541C66.7966 58.1541 66.1089 58.0315 65.5256 57.7862C64.9455 57.541 64.4915 57.183 64.1634 56.7124C63.8385 56.2417 63.6629 55.6683 63.6364 54.9922H65.451C65.4775 55.3468 65.5869 55.6418 65.7791 55.8771C65.9714 56.1125 66.2216 56.2881 66.5298 56.4041C66.8414 56.5201 67.1894 56.5781 67.5739 56.5781C67.9749 56.5781 68.3262 56.5185 68.6278 56.3991C68.9328 56.2765 69.1714 56.1075 69.3438 55.892C69.5161 55.6733 69.6039 55.4181 69.6072 55.1264C69.6039 54.8613 69.526 54.6425 69.3736 54.4702C69.2211 54.2945 69.0073 54.1487 68.7322 54.0327C68.4605 53.9134 68.1423 53.8073 67.7777 53.7145L66.6193 53.4162C65.7808 53.2008 65.1179 52.8743 64.6307 52.4368C64.1468 51.996 63.9048 51.411 63.9048 50.6818C63.9048 50.0819 64.0672 49.5566 64.392 49.1058C64.7202 48.6551 65.166 48.3054 65.7294 48.0568C66.2929 47.8049 66.9309 47.679 67.6435 47.679C68.366 47.679 68.9991 47.8049 69.5426 48.0568C70.0895 48.3054 70.5187 48.6518 70.8303 49.0959C71.1418 49.5367 71.3026 50.0438 71.3125 50.6172H69.5376ZM72.8765 58V50.3636H74.6762V58H72.8765ZM73.7813 49.2798C73.4963 49.2798 73.251 49.1854 73.0455 48.9964C72.8401 48.8042 72.7373 48.5739 72.7373 48.3054C72.7373 48.0336 72.8401 47.8033 73.0455 47.6143C73.251 47.4221 73.4963 47.326 73.7813 47.326C74.0697 47.326 74.315 47.4221 74.5171 47.6143C74.7226 47.8033 74.8254 48.0336 74.8254 48.3054C74.8254 48.5739 74.7226 48.8042 74.5171 48.9964C74.315 49.1854 74.0697 49.2798 73.7813 49.2798ZM77.8585 50.3636L79.3997 53.1825L80.9657 50.3636H82.8699L80.568 54.1818L82.9096 58H81.0155L79.3997 55.2507L77.7988 58H75.8897L78.2164 54.1818L75.9494 50.3636H77.8585Z" fill="#4F4F4F"/>
</svg>
