<svg width="147" height="80" viewBox="0 0 147 80" fill="none" xmlns="http://www.w3.org/2000/svg">
<rect x="0.832031" y="0.5" width="145.337" height="79" rx="7.5" fill="white"/>
<rect x="0.832031" y="0.5" width="145.337" height="79" rx="7.5" stroke="#C9C9C9" stroke-dasharray="2 2"/>
<path d="M46.832 35.3334C46.832 31.6515 49.8168 28.6667 53.4987 28.6667C57.1806 28.6667 60.1654 31.6515 60.1654 35.3334H46.832ZM53.4987 27.8334C50.7362 27.8334 48.4987 25.5959 48.4987 22.8334C48.4987 20.0709 50.7362 17.8334 53.4987 17.8334C56.2612 17.8334 58.4987 20.0709 58.4987 22.8334C58.4987 25.5959 56.2612 27.8334 53.4987 27.8334Z" fill="#1B759B"/>
<path d="M66.832 35.3334C66.832 31.6515 69.8168 28.6667 73.4987 28.6667C77.1806 28.6667 80.1654 31.6515 80.1654 35.3334H66.832ZM73.4987 27.8334C70.7362 27.8334 68.4987 25.5959 68.4987 22.8334C68.4987 20.0709 70.7362 17.8334 73.4987 17.8334C76.2612 17.8334 78.4987 20.0709 78.4987 22.8334C78.4987 25.5959 76.2612 27.8334 73.4987 27.8334Z" fill="#1B759B"/>
<path d="M86.832 35.3334C86.832 31.6515 89.8168 28.6667 93.4987 28.6667C97.1806 28.6667 100.165 31.6515 100.165 35.3334H86.832ZM93.4987 27.8334C90.7362 27.8334 88.4987 25.5959 88.4987 22.8334C88.4987 20.0709 90.7362 17.8334 93.4987 17.8334C96.2612 17.8334 98.4987 20.0709 98.4987 22.8334C98.4987 25.5959 96.2612 27.8334 93.4987 27.8334Z" fill="#1B759B"/>
<path d="M55.0568 49.3643V47.8182H63.1804V49.3643H60.0334V58H58.2038V49.3643H55.0568ZM63.7339 58V50.3636H65.479V51.6364H65.5585C65.6977 51.1955 65.9363 50.8558 66.2744 50.6172C66.6158 50.3752 67.0052 50.2543 67.4427 50.2543C67.5422 50.2543 67.6532 50.2592 67.7758 50.2692C67.9018 50.2758 68.0062 50.2874 68.089 50.304V51.9595C68.0128 51.933 67.8918 51.9098 67.7261 51.8899C67.5637 51.8667 67.4063 51.8551 67.2538 51.8551C66.9257 51.8551 66.6307 51.9264 66.3689 52.0689C66.1104 52.2081 65.9065 52.402 65.7574 52.6506C65.6082 52.8991 65.5337 53.1858 65.5337 53.5107V58H63.7339ZM69.1447 58V50.3636H70.9444V58H69.1447ZM70.0495 49.2798C69.7645 49.2798 69.5192 49.1854 69.3138 48.9964C69.1083 48.8042 69.0055 48.5739 69.0055 48.3054C69.0055 48.0336 69.1083 47.8033 69.3138 47.6143C69.5192 47.4221 69.7645 47.326 70.0495 47.326C70.3379 47.326 70.5832 47.4221 70.7853 47.6143C70.9908 47.8033 71.0936 48.0336 71.0936 48.3054C71.0936 48.5739 70.9908 48.8042 70.7853 48.9964C70.5832 49.1854 70.3379 49.2798 70.0495 49.2798ZM72.6551 60.8636V50.3636H74.425V51.6264H74.5294C74.6222 51.4408 74.7531 51.2436 74.9222 51.0348C75.0912 50.8227 75.3199 50.642 75.6082 50.4929C75.8966 50.3404 76.2645 50.2642 76.7119 50.2642C77.3019 50.2642 77.8338 50.415 78.3078 50.7166C78.7851 51.0149 79.1629 51.4574 79.4413 52.044C79.7231 52.6274 79.8639 53.3433 79.8639 54.1918C79.8639 55.0303 79.7264 55.7429 79.4513 56.3295C79.1762 56.9162 78.8017 57.3636 78.3277 57.6719C77.8537 57.9801 77.3168 58.1342 76.7169 58.1342C76.2794 58.1342 75.9165 58.0613 75.6281 57.9155C75.3398 57.7696 75.1078 57.594 74.9321 57.3885C74.7597 57.1797 74.6255 56.9825 74.5294 56.7969H74.4548V60.8636H72.6551ZM74.42 54.1818C74.42 54.6757 74.4896 55.1082 74.6288 55.4794C74.7713 55.8506 74.9752 56.1406 75.2403 56.3494C75.5088 56.5549 75.8336 56.6577 76.2148 56.6577C76.6125 56.6577 76.9456 56.5516 77.2141 56.3395C77.4825 56.1241 77.6847 55.8307 77.8206 55.4595C77.9598 55.085 78.0294 54.6591 78.0294 54.1818C78.0294 53.7079 77.9615 53.2869 77.8256 52.919C77.6897 52.5511 77.4875 52.2628 77.219 52.054C76.9506 51.8452 76.6158 51.7408 76.2148 51.7408C75.8303 51.7408 75.5038 51.8419 75.2354 52.044C74.9669 52.2462 74.7631 52.5296 74.6239 52.8942C74.488 53.2588 74.42 53.688 74.42 54.1818ZM83.0648 47.8182V58H81.2651V47.8182H83.0648ZM88.1562 58.1491C87.3906 58.1491 86.7293 57.9901 86.1725 57.6719C85.619 57.3504 85.1931 56.8963 84.8948 56.3097C84.5965 55.7197 84.4474 55.0253 84.4474 54.2266C84.4474 53.4411 84.5965 52.7517 84.8948 52.1584C85.1964 51.5618 85.6174 51.0978 86.1576 50.7663C86.6978 50.4316 87.3326 50.2642 88.0617 50.2642C88.5324 50.2642 88.9765 50.3404 89.3941 50.4929C89.815 50.642 90.1862 50.8741 90.5077 51.1889C90.8326 51.5038 91.0878 51.9048 91.2734 52.392C91.459 52.8759 91.5518 53.4527 91.5518 54.1222V54.674H85.2925V53.4609H89.8266C89.8233 53.1162 89.7487 52.8097 89.6029 52.5412C89.4571 52.2694 89.2532 52.0556 88.9914 51.8999C88.7329 51.7441 88.4313 51.6662 88.0866 51.6662C87.7187 51.6662 87.3955 51.7557 87.1171 51.9347C86.8387 52.1103 86.6216 52.3423 86.4658 52.6307C86.3134 52.9157 86.2355 53.2289 86.2322 53.5703V54.6293C86.2322 55.0734 86.3134 55.4545 86.4758 55.7727C86.6382 56.0876 86.8652 56.3295 87.1569 56.4986C87.4486 56.6643 87.7899 56.7472 88.181 56.7472C88.4429 56.7472 88.6799 56.7107 88.892 56.6378C89.1041 56.5616 89.288 56.4505 89.4438 56.3047C89.5996 56.1589 89.7173 55.9782 89.7968 55.7628L91.4772 55.9517C91.3711 56.3958 91.169 56.7836 90.8707 57.1151C90.5757 57.4432 90.1978 57.6984 89.7371 57.8807C89.2764 58.0597 88.7495 58.1491 88.1562 58.1491Z" fill="#4F4F4F"/>
</svg>
